<ttFont>
          <CharString index="0">
            rmoveto
            -27 hlineto
            -45 -4 -17 -26 -27 -31 12 11 -28 vhcurveto
            14 -35 -34 14 -35 hhcurveto
            -48 -10 -25 -70 hvcurveto
            -31 callgsubr
            5 17 26 28 31 -12 -12 28 vhcurveto
            -14 35 34 -13 34 hhcurveto
            48 9 25 70 hvcurveto
            return
          </CharString>
          <CharString index="1">
            36 394 hlineto
            240 -17 62 -204 -203 -17 -62 -240 vhcurveto
            -394 36 274 369 vlineto
            150 vmoveto
            -116 -369 116 vlineto
            191 11 47 173 173 12 -47 -191 vhcurveto
            return
          </CharString>
          <CharString index="2">
            rmoveto
            179 12 45 217 217 -12 47 -179 -180 -12 -47 -217 -217 12 -45 180 hvcurveto
            32 vmoveto
            -155 -2 35 195 195 2 37 155 154 2 -37 -195 -195 -2 -35 -154 hvcurveto
            return
          </CharString>
          <CharString index="3">
            rmoveto
            29 hlineto
            23 0 2 43 12 vhcurveto
            23 7 rlineto
            47 13 3 19 36 vvcurveto
            51 -27 13 -85 -27 -41 -2 -4 -31 vhcurveto
            -26 vlineto
            3 34 37 2 21 hhcurveto
            69 20 -2 -39 -64 callgsubr
            hvcurveto
            -21 -6 rlineto
            -29 -8 -11 -7 -30 vvcurveto
            return
          </CharString>
          <CharString index="4">
            38 hlineto
            -243 -32 callsubr
            -37 hlineto
            -244 -688 -19 callsubr
            77 220 rlineto
            293 hlineto
            -144 410 rmoveto
            132 -376 rlineto
            -269 hlineto
            132 376 rlineto
            return
          </CharString>
          <CharString index="5">
            -105 callsubr
            endchar
          </CharString>
          <CharString index="6">
            -191 -11 -47 -173 -173 -12 47 191 vhcurveto
            424 -36 -394 vlineto
            -240 18 -62 203 203 17 62 240 vhcurveto
            return
          </CharString>
          <CharString index="7">
            rmoveto
            134 63 32 164 49 0 33 -8 23 hvcurveto
            -17 56 -45 8 -75 9 -148 18 rcurveline
            -74 9 -11 20 100 vvcurveto
            51 5 40 28 25 vhcurveto
            23 27 43 10 74 hhcurveto
            52 71 -5 -7 47 hvcurveto
            33 vlineto
            8 -36 -73 5 -65 hhcurveto
            -149 -60 -40 -141 -93 0 -59 110 -13 hvcurveto
            157 -19 rlineto
            109 -14 2 -11 -123 vvcurveto
            -59 -5 -51 -34 -21 vhcurveto
            -22 -34 -38 -4 -61 hhcurveto
            -49 -83 6 7 -56 hvcurveto
            -35 vlineto
            -7 53 83 -5 63 hhcurveto
            return
          </CharString>
          <CharString index="8">
            rmoveto
            -103 callsubr
            endchar
          </CharString>
          <CharString index="9">
            rmoveto
            46 hlineto
            94 -62 callgsubr
            -27 vlineto
            -90 -108 -90 108 rlineto
            -27 -5 hlineto
            return
          </CharString>
          <CharString index="10">
            rmoveto
            118 47 29 112 109 -21 19 -80 9 hvcurveto
            -125 14 rlineto
            -54 6 -16 9 81 vvcurveto
            97 51 9 73 59 42 -4 -9 46 vhcurveto
            33 vlineto
            7 -35 -56 5 -41 hhcurveto
            -110 -64 -15 -130 -85 21 -30 77 -9 hvcurveto
            130 -14 rlineto
            52 -6 16 -4 -92 vvcurveto
            -73 -15 -36 -103 -61 -34 3 9 -69 -41 callgsubr
            -6 39 64 -5 49 hhcurveto
            return
          </CharString>
          <CharString index="11">
            rmoveto
            112 22 33 71 65 -22 16 -42 10 hvcurveto
            2 vlineto
            42 8 19 26 55 vvcurveto
            71 -29 28 -102 -101 -29 -28 -71 -55 19 -26 42 -8 vhcurveto
            -2 vlineto
            -42 -10 -22 -16 -65 vvcurveto
            -71 21 -33 112 vhcurveto
            210 vmoveto
            -76 -19 15 57 57 17 15 78 79 17 -15 -57 -57 -19 -15 -77 hvcurveto
            -179 vmoveto
            -75 -23 12 62 64 19 10 79 80 19 -10 -64 -62 -23 -12 -76 hvcurveto
            endchar
          </CharString>
          <CharString index="12">
            rmoveto
            5 vlineto
            -82 -29 callsubr
            -45 -5 hlineto
            101 -127 rlineto
            188 hmoveto
            5 vlineto
            -82 -29 callsubr
            -44 -5 hlineto
            100 -127 rlineto
            return
          </CharString>
          <CharString index="13">
            rmoveto
            -4 103 -32 27 -64 15 rrcurveto
            4 vlineto
            70 16 36 43 123 vvcurveto
            123 -34 63 -133 vhcurveto
            -252 -688 36 298 210 hlineto
            127 2 -76 -70 4 hvcurveto
            9 -152 rlineto
            35 hlineto
            -179 332 rmoveto
            -208 322 213 hlineto
            128 6 -66 -95 -93 -20 -68 -119 hvcurveto
            return
          </CharString>
          <CharString index="14">
            rmoveto
            30 -32 -37 vlineto
            -46 -4 -15 -44 vhcurveto
            -48 hlineto
            6 -31 -38 2 -47 hhcurveto
            -220 -17 -42 -310 -310 17 -42 220 221 16 42 310 185 -6 89 -51 42 hvcurveto
            52 4 12 23 69 vvcurveto
            -43 -412 rmoveto
            -309 -19 -9 -182 -181 -20 9 309 309 20 9 181 182 19 -9 -309 vhcurveto
            return
          </CharString>
          <CharString index="15">
            rmoveto
            -214 vlineto
            -191 -11 -47 -173 -173 -12 47 191 vhcurveto
            214 -36 -184 vlineto
            -233 17 -65 186 -4 vhcurveto
            -202 36 202 vlineto
            186 4 16 65 233 vvcurveto
            184 vlineto
            return
          </CharString>
          <CharString index="16">
            370 34 -334 297 293 34 -293 289 334 34 -370 hlineto
            return
          </CharString>
          <CharString index="17">
            -52 callsubr
            -70 callgsubr
            return
          </CharString>
          <CharString index="18">
            rmoveto
            26 5 hlineto
            -83 -82 callsubr
            -44 -5 hlineto
            return
          </CharString>
          <CharString index="19">
            -87 callsubr
            hlineto
            return
          </CharString>
          <CharString index="20">
            33 vlineto
            -8 -41 -63 -6 -48 hhcurveto
            -147 -16 42 177 hvcurveto
            332 return
          </CharString>
          <CharString index="21">
            rmoveto
            34 vlineto
            -6 -34 -51 -4 -39 hhcurveto
            -185 -19 28 290 290 19 28 185 38 49 -4 -6 33 hvcurveto
            32 vlineto
            7 -31 -54 5 -43 hhcurveto
            -198 -34 -41 -311 -315 34 -37 198 42 55 4 6 35 hvcurveto
            endchar
          </CharString>
          <CharString index="22">
            rmoveto
            -21 vlineto
            61 15 19 72 hvcurveto
            75 -48 -65 20 -17 vlineto
            -49 -4 -14 -44 vhcurveto
            return
          </CharString>
          <CharString index="23">
            35 320 hlineto
            -47 callsubr
            -33 -43 -45 -14 vhcurveto
            -38 callgsubr
            -510 35 264 -11 callgsubr
            0 99 152 116 22 -23 -148 vhcurveto
            return
          </CharString>
          <CharString index="24">
            rmoveto
            -161 -454 rlineto
            -5 hlineto
            -160 454 rlineto
            -38 hlineto
            182 -506 -69 -194 rlineto
            36 hlineto
            252 700 rlineto
            return
          </CharString>
          <CharString index="25">
            133 rlineto
            return
          </CharString>
          <CharString index="26">
            37 hlineto
            174 -32 callsubr
            -37 hlineto
            -152 -618 rlineto
            -6 hlineto
            -169 618 rlineto
            -39 hlineto
            -169 -618 rlineto
            -5 hlineto
            -153 618 rlineto
            -38 hlineto
            174 -688 rlineto
            37 hlineto
            171 618 rlineto
            4 hlineto
            endchar
          </CharString>
          <CharString index="27">
            605 -98 callgsubr
            return
          </CharString>
          <CharString index="28">
            888 -103 callgsubr
            return
          </CharString>
          <CharString index="29">
            38 688 -35 -613 -4 hlineto
            -365 613 rlineto
            -37 -688 35 613 4 hlineto
            return
          </CharString>
          <CharString index="30">
            -133 rlineto
            return
          </CharString>
          <CharString index="31">
            179 hlineto
            227 17 41 303 303 -17 41 -227 hvcurveto
            -179 hlineto
            36 -654 rmoveto
            620 130 vlineto
            203 18 -15 callsubr
            -15 -9 -206 hvcurveto
            return
          </CharString>
          <CharString index="32">
            -16 callgsubr
            -64 callsubr
            return
          </CharString>
          <CharString index="33">
            422 34 -378 hlineto
            371 622 rlineto
            32 -405 -34 362 vlineto
            -372 -622 rlineto
            return
          </CharString>
          <CharString index="34">
            35 259 hlineto
            142 27 81 130 vhcurveto
            36 vlineto
            -75 -61 -20 -94 -21 hvcurveto
            -4 hlineto
            -4 106 rlineto
            -27 hlineto
            return
          </CharString>
          <CharString index="35">
            -51 callgsubr
            128 82 45 -24 -62 18 hvcurveto
            11 -36 1 -47 -48 vvcurveto
            -74 0 -47 -14 -48 vhcurveto
            -53 -15 -46 -23 -77 hhcurveto
            return
          </CharString>
          <CharString index="36">
            -55 callsubr
            61 -35 callsubr
            -43 -77 callsubr
            return
          </CharString>
          <CharString index="37">
            rmoveto
            84 40 5 92 hvcurveto
            610 -35 -620 vlineto
            -45 -8 -12 -81 vhcurveto
            endchar
          </CharString>
          <CharString index="38">
            rmoveto
            44 79 rlineto
            -37 hlineto
            -35 -62 rlineto
            11 -27 -38 4 -53 hhcurveto
            -180 -12 -47 -217 -128 4 -68 41 -35 hvcurveto
            -44 -78 rlineto
            36 hlineto
            35 62 rlineto
            -11 28 38 -4 54 hhcurveto
            179 12 45 217 129 -4 68 -41 35 hvcurveto
            -303 -232 rmoveto
            195 2 37 155 46 33 -3 -10 23 vhcurveto
            -232 -418 rlineto
            -27 30 0 59 110 vvcurveto
            157 -230 rmoveto
            -48 -33 3 9 -23 hvcurveto
            233 419 rlineto
            27 -32 0 -59 -110 vvcurveto
            -195 -2 -35 -154 vhcurveto
            endchar
          </CharString>
          <CharString index="39">
            rmoveto
            90 -108 rlineto
            27 5 hlineto
            -94 -82 callsubr
            -46 hlineto
            -50 callgsubr
            -5 27 vlineto
            return
          </CharString>
          <CharString index="40">
            12 282 -8 -100 callsubr
            return
          </CharString>
          <CharString index="41">
            35 478 118 32 -118 121 hlineto
            67 26 15 92 vhcurveto
            30 vlineto
            -100 -53 -12 -106 hvcurveto
            -115 -94 -32 94 vlineto
            return
          </CharString>
          <CharString index="42">
            rmoveto
            -30 vlineto
            -5 29 44 -3 30 hhcurveto
            107 25 32 87 70 -14 37 -105 -29 -30 -2 -4 -20 hvcurveto
            129 172 32 -206 -194 vlineto
            4 34 34 3 18 hhcurveto
            91 20 -10 -70 -64 -18 -18 -84 -24 -41 2 4 -33 hvcurveto
            return
          </CharString>
          <CharString index="43">
            -888 rmoveto
            -106 callsubr
            return
          </CharString>
          <CharString index="44">
            rmoveto
            206 36 -206 hlineto
            return
          </CharString>
          <CharString index="45">
            55 9 4 0 1 9 vhcurveto
            -42 callsubr
            return
          </CharString>
          <CharString index="46">
            -91 221 -8 -97 callsubr
            return
          </CharString>
          <CharString index="47">
            -888 rmoveto
            -103 callsubr
            return
          </CharString>
          <CharString index="48">
            -19 140 605 -106 callgsubr
            117 -618 -105 callsubr
            return
          </CharString>
          <CharString index="49">
            -104 callsubr
            154 -10 -103 callgsubr
            return
          </CharString>
          <CharString index="50">
            rmoveto
            105 19 26 96 94 -31 11 -88 -69 -21 -14 -14 -11 hvcurveto
            -4 hlineto
            131 11 23 101 26 38 -3 -3 30 vhcurveto
            30 vlineto
            5 -33 -41 3 -26 hhcurveto
            -76 -39 -14 -56 -16 hvcurveto
            -8 -29 -2 -41 -57 vvcurveto
            -54 1 -39 5 -23 vhcurveto
            -64 16 38 -8 75 hhcurveto
            -4 31 rmoveto
            -74 -20 10 87 51 7 16 87 79 15 -5 -78 -74 -18 -7 -76 hvcurveto
            endchar
          </CharString>
          <CharString index="51">
            rmoveto
            70 5 5 24 61 vvcurveto
            68 -7 24 -95 -95 -7 -24 -68 -61 5 -24 71 -5 vhcurveto
            -236 -669 -19 callsubr
            77 220 rlineto
            293 hlineto
            78 -220 -19 callsubr
            -331 759 rmoveto
            49 2 15 67 67 2 -15 -49 -49 -2 -13 -67 -67 -2 13 49 vhcurveto
            -66 -505 rmoveto
            132 376 rlineto
            5 hlineto
            132 -376 rlineto
            endchar
          </CharString>
          <CharString index="52">
            rmoveto
            26 hlineto
            return
          </CharString>
          <CharString index="53">
            rmoveto
            25 0 14 4 13 vhcurveto
            3 10 7 7 13 5 38 18 39 16 34 16 rrcurveto
            47 21 16 19 62 vvcurveto
            88 -51 6 -65 -37 -48 -3 -5 -28 vhcurveto
            -30 vlineto
            4 35 43 2 26 hhcurveto
            71 19 -9 -58 -37 -8 -14 -36 -17 hvcurveto
            -33 -16 -35 -15 -31 -14 rrcurveto
            -57 -25 -1 -18 -84 vvcurveto
            -42 236 32 -201 vlineto
            endchar
          </CharString>
          <CharString index="54">
            67 512 171 -94 callsubr
            return
          </CharString>
          <CharString index="55">
            5 -44 vlineto
            return
          </CharString>
          <CharString index="56">
            -90 callsubr
            -5 return
          </CharString>
          <CharString index="57">
            rmoveto
            46 65 -46 hlineto
            -6 -696 rmoveto
            41 64 6 8 48 hvcurveto
            32 vlineto
            -7 -55 -60 -5 -34 hhcurveto
            -112 -30 24 112 104 16 18 75 29 hvcurveto
            22 9 rlineto
            53 21 19 10 75 vvcurveto
            87 -36 -85 vlineto
            -48 -3 -8 -55 -23 vhcurveto
            -47 -20 rlineto
            -78 -32 -2 -66 -82 vvcurveto
            -122 47 -37 127 vhcurveto
            endchar
          </CharString>
          <CharString index="58">
            179 hlineto
            227 17 41 303 303 -17 41 -227 hvcurveto
            -179 hlineto
            547 -688 rmoveto
            -74 callsubr
            -511 2 rmoveto
            620 130 vlineto
            203 18 -15 callsubr
            -15 -9 -206 hvcurveto
            endchar
          </CharString>
          <CharString index="59">
            -87 rmoveto
            3 callsubr
            hvcurveto
            -87 callsubr
            13 hlineto
            204 -10 58 -162 vhcurveto
            137 -243 rmoveto
            -297 hlineto
            183 16 28 142 109 30 -19 -171 vhcurveto
            endchar
          </CharString>
          <CharString index="60">
            144 -22 54 -143 -113 return
          </CharString>
          <CharString index="61">
            61 526 hmoveto
            -91 callgsubr
            return
          </CharString>
          <CharString index="62">
            48 2 10 24 12 vhcurveto
            32 17 37 18 30 15 rrcurveto
            46 23 16 20 62 vvcurveto
            86 -46 7 -60 -29 -43 -3 -5 -34 vhcurveto
            -32 vlineto
            4 48 35 3 19 hhcurveto
            61 15 -11 -54 -37 -7 -18 -30 -15 hvcurveto
            -29 -14 -36 -18 -34 -17 rrcurveto
            -48 -23 0 -16 -82 vvcurveto
            -39 218 return
          </CharString>
          <CharString index="63">
            rmoveto
            32 51 rlineto
            -48 31 -33 53 62 vvcurveto
            61 33 54 49 31 vhcurveto
            -32 51 rlineto
            -66 -41 -44 -73 -83 vvcurveto
            -83 44 -73 65 -41 vhcurveto
            return
          </CharString>
          <CharString index="64">
            104 319 rmoveto
            33 369 -25 hlineto
            -74 -45 rlineto
            -33 vlineto
            66 35 rlineto
            -46 -645 -7 callsubr
            return
          </CharString>
          <CharString index="65">
            32 vlineto
            -1 -9 -4 0 -4 hhcurveto
            return
          </CharString>
          <CharString index="66">
            -64 callsubr
            endchar
          </CharString>
          <CharString index="67">
            -46 callgsubr
            endchar
          </CharString>
          <CharString index="68">
            rmoveto
            83 1 -38 -75 hvcurveto
            32 hlineto
            82 0 59 -116 -116 -1 -59 -82 vhcurveto
            32 hlineto
            75 1 38 84 vhcurveto
            return
          </CharString>
          <CharString index="69">
            35 -28 callgsubr
            hlineto
            return
          </CharString>
          <CharString index="70">
            24 -29 -41 12 -59 hhcurveto
            -181 -11 -47 -217 -215 11 -47 181 hvcurveto
            32 vmoveto
            -157 0 39 191 195 0 37 157 156 0 -77 -155 -191 0 -39 -156 hvcurveto
            endchar
          </CharString>
          <CharString index="71">
            -22 callgsubr
            endchar
          </CharString>
          <CharString index="72">
            -62 callgsubr
            -44 vlineto
            return
          </CharString>
          <CharString index="73">
            -73 382 hmoveto
            44 hlineto
            -198 262 194 248 rlineto
            -42 hlineto
            -181 -233 rlineto
            -77 return
          </CharString>
          <CharString index="74">
            38 hlineto
            391 -32 callsubr
            -39 hlineto
            return
          </CharString>
          <CharString index="75">
            688 rlineto
            return
          </CharString>
          <CharString index="76">
            -89 callsubr
            219 -168 -103 callgsubr
            endchar
          </CharString>
          <CharString index="77">
            -86 callgsubr
            117 return
          </CharString>
          <CharString index="78">
            127 rlineto
            return
          </CharString>
          <CharString index="79">
            16 callgsubr
            41 36 57 27 24 hvcurveto
            -35 hlineto
            -36 -36 -26 -51 -41 18 callgsubr
            endchar
          </CharString>
          <CharString index="80">
            -113 -33 -43 -45 -14 return
          </CharString>
          <CharString index="81">
            hvcurveto
            4 hlineto
            return
          </CharString>
          <CharString index="82">
            -137 198 -85 rmoveto
            112 255 -95 -43 rlineto
            356 vlineto
            95 -42 -112 255 -113 -255 96 42 rlineto
            -356 vlineto
            -96 43 rlineto
            return
          </CharString>
          <CharString index="83">
            -33 -145 hvcurveto
            -339 vmoveto
            -142 -44 26 125 132 35 22 151 151 36 -22 -132 -125 -44 -26 -143 hvcurveto
            endchar
          </CharString>
          <CharString index="84">
            -14 callgsubr
            5 -688 rmoveto
            38 147 hlineto
            80 -2 142 -3 146 vhcurveto
            -28 hlineto
            -3 -146 -2 -142 -80 vvcurveto
            endchar
          </CharString>
          <CharString index="85">
            rmoveto
            32 51 rlineto
            -14 9 -10 16 20 vvcurveto
            20 10 16 15 9 vhcurveto
            -32 51 rlineto
            -32 -20 -21 -35 -41 vvcurveto
            -42 21 -34 31 -20 vhcurveto
            return
          </CharString>
          <CharString index="86">
            77 hhcurveto
            133 20 -29 -202 -202 -20 -29 -133 hvcurveto
            endchar
          </CharString>
          <CharString index="87">
            -227 87 hmoveto
            -73 callsubr
            return
          </CharString>
          <CharString index="88">
            rlineto
            38 hlineto
            return
          </CharString>
          <CharString index="89">
            rmoveto
            41 61 -41 hlineto
            return
          </CharString>
          <CharString index="90">
            119 6 rlineto
            24 vlineto
            -119 6 -6 186 rlineto
            -25 hlineto
            -6 -186 -116 -6 rlineto
            -24 vlineto
            116 -6 rlineto
            return
          </CharString>
          <CharString index="91">
            vmoveto
            -204 -8 25 301 301 8 25 204 203 8 -25 -301 -301 -8 -25 -203 hvcurveto
            return
          </CharString>
          <CharString index="92">
            -9 -301 -301 return
          </CharString>
          <CharString index="93">
            32 -23 -116 -75 -14 -32 -64 -32 hvcurveto
            -60 -31 -65 -32 -52 -26 rrcurveto
            -98 -49 0 -26 -149 vvcurveto
            -71 return
          </CharString>
          <CharString index="94">
            397 rmoveto
            103 7 28 121 121 -7 29 -103 -104 -8 -29 -121 -121 8 -28 104 hvcurveto
            return
          </CharString>
          <CharString index="95">
            36 688 -36 return
          </CharString>
          <CharString index="96">
            106 504 hmoveto
            1 callsubr
            return
          </CharString>
          <CharString index="97">
            hvcurveto
            34 vmoveto
            return
          </CharString>
          <CharString index="98">
            36 654 200 34 -436 -34 200 hlineto
            return
          </CharString>
          <CharString index="99">
            65 -20 17 hlineto
            49 4 14 44 vhcurveto
            21 vlineto
            -61 return
          </CharString>
          <CharString index="100">
            rmoveto
            -33 callsubr
            return
          </CharString>
          <CharString index="101">
            380 32 -380 hlineto
            return
          </CharString>
          <CharString index="102">
            64 -15 121 hhcurveto
            -7 34 rmoveto
            -142 -39 25 177 98 16 37 165 149 return
          </CharString>
          <CharString index="103">
            752 rmoveto
            21 vlineto
            -61 -15 -19 -72 hvcurveto
            -75 48 65 -20 17 vlineto
            49 4 14 44 vhcurveto
            return
          </CharString>
          <CharString index="104">
            67 99 hmoveto
            179 hlineto
            227 17 41 303 303 -17 41 -227 hvcurveto
            -179 return
          </CharString>
          <CharString index="105">
            70 99 rmoveto
            30 hlineto
            116 205 -116 206 rlineto
            -30 hlineto
            103 -206 rlineto
            return
          </CharString>
          <CharString index="106">
            rmoveto
            65 45 45 65 65 -45 45 -65 -65 -45 -45 -65 -65 45 -45 65 hvcurveto
            60 vmoveto
            return
          </CharString>
          <CharString index="107">
            -5 -55 callsubr
            101 return
          </CharString>
          <CharString index="108">
            -12 callsubr
            -323 -369 323 -36 -688 36 331 369 hlineto
            return
          </CharString>
          <CharString index="109">
            -41 callgsubr
            -3 return
          </CharString>
          <CharString index="110">
            -189 -6 -65 -199 -210 25 -52 169 57 -9 callgsubr
            34 return
          </CharString>
          <CharString index="111">
            56 6 27 hhcurveto
            168 32 -21 -142 -129 -31 -42 -152 -40 return
          </CharString>
          <CharString index="112">
            206 hlineto
            161 9 99 108 108 -6 99 -164 hvcurveto
            return
          </CharString>
          <CharString index="113">
            25 43 vvcurveto
            74 -27 29 -90 -27 -39 -4 -5 -29 vhcurveto
            -31 vlineto
            5 return
          </CharString>
          <CharString index="114">
            252 rlineto
            -35 hlineto
            -124 -257 rlineto
            -27 176 vlineto
            endchar
          </CharString>
          <CharString index="115">
            35 377 -27 hlineto
            -83 -46 rlineto
            -33 vlineto
            75 36 rlineto
            endchar
          </CharString>
          <CharString index="116">
            32 112 vvcurveto
            153 -81 11 -108 -63 -79 -5 -8 return
          </CharString>
          <CharString index="117">
            33 -1 628 rmoveto
            567 60 -567 hlineto
            -688 vmoveto
            return
          </CharString>
          <CharString index="118">
            -200 63 268 -63 callsubr
            endchar
          </CharString>
          <CharString index="119">
            18 -22 -54 -62 -34 -10 -54 -19 -32 3 5 -45 hvcurveto
            return
          </CharString>
          <CharString index="120">
            -743 -46 callgsubr
            return
          </CharString>
          <CharString index="121">
            -436 29 294 rmoveto
            23 hlineto
            16 216 rlineto
            return
          </CharString>
          <CharString index="122">
            233 7 41 311 311 -7 41 -233 return
          </CharString>
          <CharString index="123">
            -19 257 -8 rmoveto
            188 3 52 235 return
          </CharString>
          <CharString index="124">
            rmoveto
            107 11 30 162 162 -11 31 -107 return
          </CharString>
          <CharString index="125">
            hlineto
            43 212 rlineto
            -34 hlineto
            -43 -212 rlineto
            return
          </CharString>
          <CharString index="126">
            vmoveto
            320 32 -320 hlineto
            return
          </CharString>
          <CharString index="127">
            -45 -110 -131 -69 -20 -114 -40 return
          </CharString>
          <CharString index="128">
            -688 rmoveto
            34 85 49 32 -49 158 return
          </CharString>
        <CharString name=".notdef">
          -32 0 vmoveto
          500 700 -500 hlineto
          450 -50 rmoveto
          -600 -400 600 vlineto
          179 -435 rmoveto
          53 53 hlineto
          33 21 18 23 19 vhcurveto
          30 26 37 36 67 vvcurveto
          12 -3 123 -140 -140 -11 -124 -23 -11 2 -13 2 -7 vhcurveto
          49 28 hlineto
          23 8 77 90 77 12 -59 -28 -51 -28 -24 -28 -23 vhcurveto
          -28 -23 -26 -23 -43 vvcurveto
          -4 -179 rmoveto
          60 70 -60 hlineto
          endchar
        </CharString>
        <CharString name="A">
          58 519 hmoveto
          -103 callsubr
          endchar
        </CharString>
        <CharString name="A.ss01">
          89 495 hmoveto
          -106 callsubr
          endchar
        </CharString>
        <CharString name="AE">
          283 485 hmoveto
          -43 callgsubr
        </CharString>
        <CharString name="AEacute">
          283 386 750 -98 callgsubr
          99 -755 rmoveto
          -43 callgsubr
        </CharString>
        <CharString name="Aacute">
          58 273 750 -98 callgsubr
          246 -755 -99 callsubr
        </CharString>
        <CharString name="Aacute.ss01">
          89 283 750 -98 callgsubr
          212 -755 -101 callgsubr
        </CharString>
        <CharString name="Abreve">
          58 412 888 -71 callgsubr
        </CharString>
        <CharString name="Abreve.ss01">
          89 427 888 -75 callgsubr
        </CharString>
        <CharString name="Acircumflex">
          58 177 750 -106 callgsubr
          342 -755 -99 callsubr
        </CharString>
        <CharString name="Acircumflex.ss01">
          89 195 750 -106 callgsubr
          300 -755 -101 callgsubr
        </CharString>
        <CharString name="Adieresis">
          58 186 770 -86 callgsubr
          156 -831 -99 callsubr
        </CharString>
        <CharString name="Adieresis.ss01">
          89 203 770 -86 callgsubr
          115 -831 -101 callgsubr
        </CharString>
        <CharString name="Agrave">
          58 290 750 -89 callsubr
          330 -883 -99 callsubr
        </CharString>
        <CharString name="Agrave.ss01">
          89 312 750 -89 callsubr
          284 -883 -101 callgsubr
        </CharString>
        <CharString name="Amacron">
          58 192 851 -63 callsubr
          327 -887 -99 callsubr
        </CharString>
        <CharString name="Amacron.ss01">
          89 207 851 -63 callsubr
          288 -887 -101 callgsubr
        </CharString>
        <CharString name="Aogonek">
          58 492 -118 rmoveto
          39 32 53 27 26 vhcurveto
          6 hlineto
          -243 -32 callsubr
          -37 hlineto
          -244 -688 -19 callsubr
          77 220 rlineto
          293 hlineto
          77 -218 rlineto
          -35 -36 -25 -50 -40 vvcurveto
          -41 21 -31 -62 callsubr
          -35 -12 20 26 hvcurveto
          -332 372 rmoveto
          132 376 rlineto
          5 hlineto
          132 -376 rlineto
          endchar
        </CharString>
        <CharString name="Aogonek.ss01">
          89 516 -164 rmoveto
          -35 -12 20 26 39 32 53 27 26 hvcurveto
          3 3 hlineto
          1 1 rlineto
          -1 390 hlineto
          240 -17 62 -204 -203 -17 -62 -240 vhcurveto
          -394 36 274 369 -272 vlineto
          -35 -36 -25 -50 -40 vvcurveto
          -41 21 -31 -62 callsubr
          -390 472 rmoveto
          116 vlineto
          191 11 47 173 173 12 -47 -191 vhcurveto
          -116 vlineto
          endchar
        </CharString>
        <CharString name="Aring">
          58 322 669 -56 callsubr
        </CharString>
        <CharString name="Aring.ss01">
          89 310 748 -89 callgsubr
          185 -776 -101 callgsubr
        </CharString>
        <CharString name="Aringacute">
          58 404 1046 -65 callgsubr
          19 -244 -56 callsubr
        </CharString>
        <CharString name="Aringacute.ss01">
          89 295 943 -98 callgsubr
          15 -218 -89 callgsubr
          185 -758 -101 callgsubr
        </CharString>
        <CharString name="Atilde">
          58 447 856 -107 callsubr
          72 -856 -99 callsubr
        </CharString>
        <CharString name="Atilde.ss01">
          89 462 856 -107 callsubr
          33 -856 -101 callgsubr
        </CharString>
        <CharString name="B">
          62 99 hmoveto
          245 hlineto
          156 22 94 86 71 -13 81 -104 18 hvcurveto
          4 vlineto
          80 16 30 60 86 vvcurveto
          100 -34 72 -129 vhcurveto
          -253 hlineto
          246 -322 rmoveto
          -210 288 210 hlineto
          104 30 -47 -97 -93 -49 -51 -85 hvcurveto
          3 -332 rmoveto
          -213 298 213 hlineto
          97 41 -47 -102 -100 -33 -49 -105 hvcurveto
          endchar
        </CharString>
        <CharString name="C">
          -39 441 2 -86 callsubr
        </CharString>
        <CharString name="Cacute">
          -39 228 750 -98 callgsubr
          213 -753 -86 callsubr
        </CharString>
        <CharString name="Cacute.loclPLK">
          -39 228 750 -71 callsubr
          213 -753 -86 callsubr
        </CharString>
        <CharString name="Ccaron">
          -39 223 750 -98 callsubr
          312 -881 -86 callsubr
        </CharString>
        <CharString name="Ccedilla">
          -39 317 26 rmoveto
          -185 -19 28 290 290 19 28 185 38 49 -4 -6 33 hvcurveto
          32 vlineto
          7 -31 -54 5 -43 hhcurveto
          -198 -34 -41 -311 -268 25 -67 128 -14 hvcurveto
          -54 -180 rlineto
          -5 40 vlineto
          42 183 rlineto
          -1 15 18 0 18 hhcurveto
          42 55 4 6 35 hvcurveto
          34 vlineto
          -6 -34 -51 -4 -39 hhcurveto
          endchar
        </CharString>
        <CharString name="Ccircumflex">
          -39 129 750 -106 callgsubr
          312 -753 -86 callsubr
        </CharString>
        <CharString name="Cdotaccent">
          -39 224 815 -32 callgsubr
          217 -874 -86 callsubr
        </CharString>
        <CharString name="D">
          67 99 hmoveto
          -76 callsubr
          endchar
        </CharString>
        <CharString name="Dcaron">
          67 277 750 -98 callsubr
          -84 -883 rmoveto
          -76 callsubr
          endchar
        </CharString>
        <CharString name="Dcroat">
          -44 callgsubr
        </CharString>
        <CharString name="E">
          -15 99 hmoveto
          -91 callsubr
          endchar
        </CharString>
        <CharString name="Eacute">
          -15 262 750 -98 callgsubr
          -163 -755 rmoveto
          -91 callsubr
          endchar
        </CharString>
        <CharString name="Ebreve">
          -15 400 -79 callsubr
          -301 -888 rmoveto
          -91 callsubr
          endchar
        </CharString>
        <CharString name="Ecaron">
          -15 261 750 -98 callsubr
          -68 -883 rmoveto
          -91 callsubr
          endchar
        </CharString>
        <CharString name="Ecircumflex">
          -15 170 750 -106 callgsubr
          -71 -755 rmoveto
          -91 callsubr
          endchar
        </CharString>
        <CharString name="Edieresis">
          -15 180 770 -86 callgsubr
          -258 -831 rmoveto
          -91 callsubr
          endchar
        </CharString>
        <CharString name="Edotaccent">
          -15 262 815 -32 callgsubr
          -163 -876 rmoveto
          -91 callsubr
          endchar
        </CharString>
        <CharString name="Egrave">
          -15 285 750 -89 callsubr
          -85 -883 rmoveto
          -91 callsubr
          endchar
        </CharString>
        <CharString name="Emacron">
          -15 180 851 -63 callsubr
          -81 -887 rmoveto
          -91 callsubr
          endchar
        </CharString>
        <CharString name="Eng">
          106 505 688 rmoveto
          -611 -4 vlineto
          -365 611 rlineto
          -37 -688 35 613 4 hlineto
          367 -613 rlineto
          -110 vlineto
          -45 -8 -12 -81 vhcurveto
          -30 vlineto
          84 40 5 92 hvcurveto
          788 vlineto
          endchar
        </CharString>
        <CharString name="Eogonek">
          -15 443 -25 callgsubr
          21 24 42 38 54 30 23 hvcurveto
          34 -334 297 293 34 -293 289 334 34 -370 -688 335 vlineto
          -39 -35 -28 -48 -43 vvcurveto
          -38 21 -32 55 vhcurveto
          endchar
        </CharString>
        <CharString name="Eth">
          -44 callgsubr
        </CharString>
        <CharString name="Euro">
          8 351 -8 rmoveto
          42 55 4 6 35 hvcurveto
          34 vlineto
          -6 -34 -51 -4 -39 hhcurveto
          -163 -34 22 204 -6 hvcurveto
          279 34 -280 119 280 34 -279 hlineto
          201 6 34 22 163 hhcurveto
          38 49 -4 -6 33 hvcurveto
          32 vlineto
          7 -31 -54 5 -43 hhcurveto
          -176 -46 -33 -224 -9 hvcurveto
          -79 -34 78 -119 -78 -34 79 hlineto
          -230 8 46 -30 177 hhcurveto
          endchar
        </CharString>
        <CharString name="F">
          -46 99 hmoveto
          36 317 284 34 -284 303 316 34 -352 hlineto
          endchar
        </CharString>
        <CharString name="G">
          55 469 315 -93 callgsubr
          endchar
        </CharString>
        <CharString name="G.ss01">
          71 321 -8 -94 callgsubr
          endchar
        </CharString>
        <CharString name="G_tilde.loclGUA">
          55 446 888 -107 callsubr
          23 -573 -93 callgsubr
          endchar
        </CharString>
        <CharString name="Gbreve">
          55 410 -79 callsubr
          59 -573 -93 callgsubr
          endchar
        </CharString>
        <CharString name="Gbreve.ss01">
          71 418 -79 callsubr
          -97 -896 -94 callgsubr
          endchar
        </CharString>
        <CharString name="Gcaron">
          55 271 750 -98 callsubr
          292 -568 -93 callgsubr
          endchar
        </CharString>
        <CharString name="Gcaron.ss01">
          71 279 750 -98 callsubr
          136 -891 -94 callgsubr
          endchar
        </CharString>
        <CharString name="Gcircumflex">
          55 177 750 -106 callgsubr
          292 -440 -93 callgsubr
          endchar
        </CharString>
        <CharString name="Gcircumflex.ss01">
          71 185 750 -106 callgsubr
          136 -763 -94 callgsubr
          endchar
        </CharString>
        <CharString name="Gcommaaccent">
          55 469 315 -93 callgsubr
          -49 -522 -85 callsubr
          endchar
        </CharString>
        <CharString name="Gcommaaccent.ss01">
          71 321 -8 -94 callgsubr
          -57 -199 -85 callsubr
          endchar
        </CharString>
        <CharString name="Gdotaccent">
          55 272 815 -32 callgsubr
          197 -561 -93 callgsubr
          endchar
        </CharString>
        <CharString name="Gdotaccent.ss01">
          71 280 815 -32 callgsubr
          41 -884 -94 callgsubr
          endchar
        </CharString>
        <CharString name="Gtilde.loclGUA.ss01">
          71 454 888 -107 callsubr
          -133 -896 -94 callgsubr
          endchar
        </CharString>
        <CharString name="H">
          -11 callsubr
          endchar
        </CharString>
        <CharString name="Hbar">
          106 504 688 rmoveto
          -158 -369 158 -36 -688 36 311 369 -311 36 688 vlineto
          -405 -343 rmoveto
          149 369 -149 vlineto
          endchar
        </CharString>
        <CharString name="Hcircumflex">
          106 202 750 -106 callgsubr
          302 -755 rmoveto
          1 callsubr
          endchar
        </CharString>
        <CharString name="I">
          -296 100 hmoveto
          -36 callsubr
        </CharString>
        <CharString name="IJ">
          -20 100 hmoveto
          -22 callgsubr
          166 -654 -69 callgsubr
        </CharString>
        <CharString name="Iacute">
          -296 94 750 -98 callgsubr
          6 -755 -40 callgsubr
        </CharString>
        <CharString name="Iacute_J.loclNLD">
          -20 100 750 -98 callgsubr
          286 -5 -98 callgsubr
          -286 -755 rmoveto
          -22 callgsubr
          166 -654 -69 callgsubr
        </CharString>
        <CharString name="Ibreve">
          -296 234 -79 callsubr
          -134 -888 -40 callgsubr
        </CharString>
        <CharString name="Icircumflex">
          -296 1 750 -106 callgsubr
          99 -755 -40 callgsubr
        </CharString>
        <CharString name="Idieresis">
          -296 9 770 -86 callgsubr
          -86 -831 -40 callgsubr
        </CharString>
        <CharString name="Idotaccent">
          -296 96 815 -32 callgsubr
          4 -876 -40 callgsubr
        </CharString>
        <CharString name="Igrave">
          -296 117 750 -89 callsubr
          84 -883 -40 callgsubr
        </CharString>
        <CharString name="Imacron">
          -296 14 851 -63 callsubr
          86 -887 -40 callgsubr
        </CharString>
        <CharString name="Iogonek">
          -296 115 -25 callgsubr
          20 26 40 36 55 27 23 hvcurveto
          688 -36 -688 1 vlineto
          -36 -35 -26 -49 -40 vvcurveto
          -41 21 -31 55 vhcurveto
          endchar
        </CharString>
        <CharString name="Itilde">
          -296 270 888 -107 callsubr
          -170 -888 -40 callgsubr
        </CharString>
        <CharString name="J">
          -256 30 34 -69 callgsubr
        </CharString>
        <CharString name="Jcircumflex">
          -256 51 750 -106 callgsubr
          -21 -721 -69 callgsubr
        </CharString>
        <CharString name="K">
          -24 callgsubr
          endchar
        </CharString>
        <CharString name="Kcommaaccent">
          -24 callgsubr
          -29 -539 -85 callsubr
          endchar
        </CharString>
        <CharString name="L">
          -73 99 hmoveto
          -33 callgsubr
          endchar
        </CharString>
        <CharString name="Lacute">
          -73 99 750 -98 callgsubr
          -755 vmoveto
          -33 callgsubr
          endchar
        </CharString>
        <CharString name="Lcaron">
          -73 99 hmoveto
          -33 callgsubr
          176 -234 -27 callgsubr
          endchar
        </CharString>
        <CharString name="Lcommaaccent">
          -73 99 hmoveto
          -33 callgsubr
          109 -895 -85 callsubr
          endchar
        </CharString>
        <CharString name="Ldot">
          -73 99 hmoveto
          -33 callgsubr
          232 -361 -79 callgsubr
        </CharString>
        <CharString name="Lslash">
          -73 135 34 rmoveto
          283 vlineto
          186 68 rlineto
          34 vlineto
          -186 -68 rlineto
          337 -36 -350 vlineto
          -62 -23 rlineto
          -34 vlineto
          62 23 rlineto
          -304 335 34 vlineto
          endchar
        </CharString>
        <CharString name="M">
          260 658 hmoveto
          36 688 -47 hlineto
          -248 -628 rlineto
          -5 hlineto
          -247 628 rlineto
          -48 -688 35 610 4 hlineto
          240 -610 rlineto
          35 hlineto
          241 610 rlineto
          4 hlineto
          endchar
        </CharString>
        <CharString name="N">
          106 502 hmoveto
          -78 callsubr
          endchar
        </CharString>
        <CharString name="Nacute">
          106 301 750 -98 callgsubr
          201 -755 rmoveto
          -78 callsubr
          endchar
        </CharString>
        <CharString name="Nacute.loclPLK">
          106 301 750 -71 callsubr
          201 -755 rmoveto
          -78 callsubr
          endchar
        </CharString>
        <CharString name="Ncaron">
          106 296 750 -98 callsubr
          300 -883 rmoveto
          -78 callsubr
          endchar
        </CharString>
        <CharString name="Ncommaaccent">
          106 502 hmoveto
          -78 callsubr
          143 -820 -85 callsubr
          endchar
        </CharString>
        <CharString name="Ntilde">
          106 474 856 -107 callsubr
          28 -856 rmoveto
          -78 callsubr
          endchar
        </CharString>
        <CharString name="O">
          96 314 -8 -104 callgsubr
          endchar
        </CharString>
        <CharString name="OE">
          388 314 hmoveto
          558 34 -321 hlineto
          -26 -27 -2 -2 -13 hvcurveto
          58 39 7 87 1 175 rrcurveto
          280 34 -280 hlineto
          -1 169 -8 85 -57 39 rrcurveto
          -2 13 27 -2 26 hhcurveto
          321 34 -558 hlineto
          -220 -17 -41 -303 -303 17 -41 220 -10 callsubr
          -181 -20 9 301 301 20 9 181 182 19 -15 callsubr
          -19 -9 -182 hvcurveto
          endchar
        </CharString>
        <CharString name="Oacute">
          96 293 750 -98 callgsubr
          21 -763 -104 callgsubr
          endchar
        </CharString>
        <CharString name="Oacute.loclPLK">
          96 296 750 -71 callsubr
          18 -763 -104 callgsubr
          endchar
        </CharString>
        <CharString name="Obreve">
          96 430 -79 callsubr
          -116 -896 -104 callgsubr
          endchar
        </CharString>
        <CharString name="Ocircumflex">
          96 197 750 -106 callgsubr
          117 -763 -104 callgsubr
          endchar
        </CharString>
        <CharString name="Odieresis">
          96 204 770 -86 callgsubr
          -67 -839 -104 callgsubr
          endchar
        </CharString>
        <CharString name="Ograve">
          96 305 750 -89 callsubr
          110 -891 -104 callgsubr
          endchar
        </CharString>
        <CharString name="Ohorn">
          96 558 756 -93 callsubr
          endchar
        </CharString>
        <CharString name="Ohungarumlaut">
          96 220 752 -78 callgsubr
          -68 -765 -104 callgsubr
          endchar
        </CharString>
        <CharString name="Omacron">
          96 210 851 -63 callsubr
          104 -895 -104 callgsubr
          endchar
        </CharString>
        <CharString name="Oslash">
          96 551 743 -66 callgsubr
        </CharString>
        <CharString name="Oslashacute">
          96 423 883 -65 callgsubr
          229 -7 -66 callgsubr
        </CharString>
        <CharString name="Otilde">
          96 466 856 -107 callsubr
          -152 -864 -104 callgsubr
          endchar
        </CharString>
        <CharString name="P">
          31 99 hmoveto
          36 274 5 callsubr
          -242 hlineto
          36 -380 2 callgsubr
        </CharString>
        <CharString name="Q">
          96 476 15 rmoveto
          68 36 7 88 205 vvcurveto
          310 -16 42 -221 -220 -17 -42 -310 -310 17 -42 220 54 41 2 9 33 vhcurveto
          78 -118 rlineto
          42 2 hlineto
          -248 139 rmoveto
          -181 -20 9 309 309 20 9 181 182 19 -9 -309 -196 -8 -76 -51 -28 hvcurveto
          -117 174 rlineto
          -41 hlineto
          124 -186 rlineto
          -6 -27 -36 0 -45 hhcurveto
          endchar
        </CharString>
        <CharString name="R">
          -46 callsubr
          endchar
        </CharString>
        <CharString name="R.ss01">
          -53 callsubr
          endchar
        </CharString>
        <CharString name="Racute">
          61 406 883 -65 callgsubr
          221 -750 rmoveto
          -91 callgsubr
          endchar
        </CharString>
        <CharString name="Racute.ss01">
          67 408 883 -65 callgsubr
          205 -579 -94 callsubr
          endchar
        </CharString>
        <CharString name="Rcaron">
          61 320 750 -30 callgsubr
          252 -750 rmoveto
          -91 callgsubr
          endchar
        </CharString>
        <CharString name="Rcaron.ss01">
          67 322 750 -30 callgsubr
          236 -579 -94 callsubr
          endchar
        </CharString>
        <CharString name="Rcommaaccent">
          -46 callsubr
          -56 -455 -2 callgsubr
        </CharString>
        <CharString name="Rcommaaccent.ss01">
          -53 callsubr
          -54 -459 -2 callgsubr
        </CharString>
        <CharString name="S">
          -67 callsubr
          endchar
        </CharString>
        <CharString name="Sacute">
          12 254 750 -98 callgsubr
          28 -763 -100 callsubr
          endchar
        </CharString>
        <CharString name="Sacute.loclPLK">
          12 254 750 -71 callsubr
          28 -763 -100 callsubr
          endchar
        </CharString>
        <CharString name="Scaron">
          12 256 750 -98 callsubr
          120 -891 -100 callsubr
          endchar
        </CharString>
        <CharString name="Scedilla">
          12 479 188 rmoveto
          49 0 33 -8 23 vhcurveto
          -17 56 -45 8 -75 9 -148 18 rcurveline
          -74 9 -11 20 100 vvcurveto
          51 5 40 28 25 vhcurveto
          23 27 43 10 74 hhcurveto
          52 71 -5 -7 47 hvcurveto
          33 vlineto
          8 -36 -73 5 -65 hhcurveto
          -149 -60 -40 -141 -93 0 -59 110 -13 hvcurveto
          157 -19 rlineto
          109 -14 2 -11 -123 vvcurveto
          -59 -5 -51 -34 -21 vhcurveto
          -22 -34 -38 -4 -61 hhcurveto
          -49 -83 6 7 -56 hvcurveto
          -35 vlineto
          46 -6 68 -5 58 -1 -53 -177 rcurveline
          -5 40 vlineto
          41 182 rlineto
          133 63 33 163 hvcurveto
          endchar
        </CharString>
        <CharString name="Scircumflex">
          12 155 750 -106 callgsubr
          127 -763 -100 callsubr
          endchar
        </CharString>
        <CharString name="Scommaaccent">
          -67 callsubr
          -48 -199 -85 callsubr
          endchar
        </CharString>
        <CharString name="T">
          -19 callgsubr
          endchar
        </CharString>
        <CharString name="Tbar">
          -32 468 654 rmoveto
          34 -436 -34 200 -281 -169 -32 169 -341 36 341 169 32 -169 281 vlineto
          endchar
        </CharString>
        <CharString name="Tcaron">
          -32 227 750 -98 callsubr
          99 -883 rmoveto
          -9 callsubr
          endchar
        </CharString>
        <CharString name="Thorn">
          31 99 hmoveto
          36 143 5 callsubr
          -206 131 -36 hlineto
          36 -511 2 callgsubr
        </CharString>
        <CharString name="U">
          89 495 688 rmoveto
          -424 vlineto
          -101 callsubr
          394 vlineto
          endchar
        </CharString>
        <CharString name="Uacute">
          89 286 750 -98 callgsubr
          209 -67 rmoveto
          -424 vlineto
          -101 callsubr
          394 vlineto
          endchar
        </CharString>
        <CharString name="Ubreve">
          89 427 -79 callsubr
          68 -200 rmoveto
          -424 vlineto
          -101 callsubr
          394 vlineto
          endchar
        </CharString>
        <CharString name="Ucircumflex">
          89 193 750 -106 callgsubr
          302 -67 rmoveto
          -424 vlineto
          -101 callsubr
          394 vlineto
          endchar
        </CharString>
        <CharString name="Udieresis">
          89 201 770 -30 callsubr
          -143 rmoveto
          -424 vlineto
          -101 callsubr
          394 vlineto
          endchar
        </CharString>
        <CharString name="Ugrave">
          89 321 750 -89 callsubr
          275 -195 rmoveto
          -424 vlineto
          -101 callsubr
          394 vlineto
          endchar
        </CharString>
        <CharString name="Uhorn">
          89 601 786 rmoveto
          -37 vlineto
          -46 -4 -15 -44 vhcurveto
          -58 -424 hlineto
          -101 callsubr
          366 22 vlineto
          -34 callgsubr
          vlineto
          endchar
        </CharString>
        <CharString name="Uhungarumlaut">
          89 217 752 -78 callgsubr
          116 -69 rmoveto
          -424 vlineto
          -101 callsubr
          394 vlineto
          endchar
        </CharString>
        <CharString name="Umacron">
          89 207 851 -63 callsubr
          288 -199 rmoveto
          -424 vlineto
          -101 callsubr
          394 vlineto
          endchar
        </CharString>
        <CharString name="Uogonek">
          89 495 688 rmoveto
          -424 vlineto
          -191 -11 -47 -173 -173 -12 47 191 vhcurveto
          424 -36 -394 vlineto
          -240 18 -62 203 38 31 2 5 26 vhcurveto
          -39 -38 -25 -47 -38 vvcurveto
          -41 21 -31 -62 callsubr
          -35 -12 20 26 53 46 60 40 24 hvcurveto
          62 37 7 81 157 vvcurveto
          394 vlineto
          endchar
        </CharString>
        <CharString name="Uring">
          89 310 730 -89 callgsubr
          185 -70 rmoveto
          -424 vlineto
          -101 callsubr
          394 vlineto
          endchar
        </CharString>
        <CharString name="Utilde">
          89 463 888 -107 callsubr
          32 -200 rmoveto
          -424 vlineto
          -101 callsubr
          394 vlineto
          endchar
        </CharString>
        <CharString name="V">
          31 263 hmoveto
          37 hlineto
          235 -32 callsubr
          -37 hlineto
          -214 -628 rlineto
          -5 hlineto
          -212 628 rlineto
          -38 hlineto
          endchar
        </CharString>
        <CharString name="W">
          306 592 hmoveto
          -81 callsubr
        </CharString>
        <CharString name="Wacute">
          306 401 750 -98 callgsubr
          191 -755 rmoveto
          -81 callsubr
        </CharString>
        <CharString name="Wcircumflex">
          306 302 750 -106 callgsubr
          290 -755 rmoveto
          -81 callsubr
        </CharString>
        <CharString name="Wdieresis">
          306 309 815 -86 callgsubr
          106 -876 rmoveto
          -81 callsubr
        </CharString>
        <CharString name="Wgrave">
          306 415 750 -89 callsubr
          278 -883 rmoveto
          -81 callsubr
        </CharString>
        <CharString name="X">
          47 505 hmoveto
          43 hlineto
          -236 347 233 341 rlineto
          -42 hlineto
          -210 -308 rlineto
          -6 hlineto
          -209 308 rlineto
          -43 hlineto
          232 -342 -235 -346 rlineto
          42 hlineto
          212 311 rlineto
          7 hlineto
          endchar
        </CharString>
        <CharString name="Y">
          -20 238 hmoveto
          -83 callgsubr
          endchar
        </CharString>
        <CharString name="Y.loclGUA">
          -21 440 688 -92 callsubr
          endchar
        </CharString>
        <CharString name="Yacute">
          -20 241 750 -98 callgsubr
          -3 -755 rmoveto
          -83 callgsubr
          endchar
        </CharString>
        <CharString name="Yacute.loclGUA">
          -21 364 883 -65 callgsubr
          177 -62 -92 callsubr
          endchar
        </CharString>
        <CharString name="Ycircumflex">
          -20 140 750 -106 callgsubr
          98 -755 rmoveto
          -83 callgsubr
          endchar
        </CharString>
        <CharString name="Ycircumflex.loclGUA">
          -21 255 858 -68 callsubr
          275 -62 -92 callsubr
          endchar
        </CharString>
        <CharString name="Ydieresis">
          -20 148 770 -86 callgsubr
          -87 -831 rmoveto
          -83 callgsubr
          endchar
        </CharString>
        <CharString name="Ydieresis.loclGUA">
          -21 187 876 -12 callgsubr
          76 -127 -92 callsubr
          endchar
        </CharString>
        <CharString name="Ygrave">
          -20 253 750 -89 callsubr
          86 -883 rmoveto
          -83 callgsubr
          endchar
        </CharString>
        <CharString name="Ygrave.loclGUA">
          -21 277 750 -59 callgsubr
          189 -62 -92 callsubr
          endchar
        </CharString>
        <CharString name="Z">
          -19 47 hmoveto
          -74 callsubr
          endchar
        </CharString>
        <CharString name="Zacute">
          -19 239 750 -98 callgsubr
          -192 -755 rmoveto
          -74 callsubr
          endchar
        </CharString>
        <CharString name="Zacute.loclPLK">
          -19 239 750 -71 callsubr
          -192 -755 rmoveto
          -74 callsubr
          endchar
        </CharString>
        <CharString name="Zcaron">
          -19 239 749 -98 callsubr
          -98 -882 rmoveto
          -74 callsubr
          endchar
        </CharString>
        <CharString name="Zdotaccent">
          -19 235 815 -32 callgsubr
          -188 -876 rmoveto
          -74 callsubr
          endchar
        </CharString>
        <CharString name="a">
          -29 218 -8 -107 callgsubr
          endchar
        </CharString>
        <CharString name="aacute">
          -29 223 -80 callsubr
          -5 -618 -107 callgsubr
          endchar
        </CharString>
        <CharString name="abreve">
          -29 368 -74 callgsubr
          -150 -751 -107 callgsubr
          endchar
        </CharString>
        <CharString name="acircumflex">
          -29 137 605 -106 callgsubr
          81 -618 -107 callgsubr
          endchar
        </CharString>
        <CharString name="acute">
          -378 13 -80 callsubr
          endchar
        </CharString>
        <CharString name="acute.case.loclPLK">
          -378 13 750 -71 callsubr
          endchar
        </CharString>
        <CharString name="acute.loclPLK">
          -378 13 605 -71 callsubr
          endchar
        </CharString>
        <CharString name="acutecomb">
          -141 -80 callsubr
          endchar
        </CharString>
        <CharString name="acutecomb.case">
          -141 750 -98 callgsubr
          endchar
        </CharString>
        <CharString name="adieresis">
          -29 145 -55 callgsubr
          -104 -739 -107 callgsubr
          endchar
        </CharString>
        <CharString name="ae">
          283 750 260 -73 callgsubr
        </CharString>
        <CharString name="aeacute">
          283 518 738 -65 callgsubr
          333 -345 -73 callgsubr
        </CharString>
        <CharString name="agrave">
          -29 261 605 -89 callsubr
          58 -746 -107 callgsubr
          endchar
        </CharString>
        <CharString name="amacron">
          -29 148 706 -63 callsubr
          70 -750 -107 callgsubr
          endchar
        </CharString>
        <CharString name="ampersand">
          100 457 366 rmoveto
          -331 vlineto
          -9 -45 -53 -2 -44 hhcurveto
          -143 -71 21 132 92 13 63 139 hvcurveto
          98 34 -98 hlineto
          -138 -8 88 59 106 26 45 199 39 66 -7 -9 52 hvcurveto
          32 vlineto
          9 -48 -75 7 -52 hhcurveto
          -205 -37 -68 -113 -100 34 -43 71 -19 hvcurveto
          -4 vlineto
          -71 -19 -40 -34 -112 vvcurveto
          -124 32 -68 217 84 82 13 3 11 vhcurveto
          324 106 34 vlineto
          endchar
        </CharString>
        <CharString name="aogonek">
          -29 405 -164 rmoveto
          -35 -12 20 25 43 36 55 24 21 hvcurveto
          330 vlineto
          153 -31 35 -146 -64 -57 -5 -7 -35 -41 callgsubr
          7 34 68 6 42 hhcurveto
          131 23 -15 -147 hvcurveto
          -46 vlineto
          2 -64 -97 3 -30 hhcurveto
          -108 -30 -34 -111 -122 51 -24 113 62 78 8 80 25 -26 callsubr
          3 -76 rlineto
          -38 -36 -28 -50 -44 vvcurveto
          -38 21 -32 -62 callsubr
          -22 374 rmoveto
          -50 -5 -36 -16 -40 vhcurveto
          -56 -23 -61 -4 -61 hhcurveto
          -104 -24 21 93 98 22 15 89 hvcurveto
          183 hlineto
          endchar
        </CharString>
        <CharString name="approxequal">
          -66 71 294 rmoveto
          -31 callgsubr
          6 17 29 30 32 -12 -11 29 vhcurveto
          -15 37 36 -13 8 callgsubr
          12 11 -28 vhcurveto
          13 -38 -36 15 -37 hhcurveto
          -52 -10 -25 -70 hvcurveto
          -184 vmoveto
          -31 callgsubr
          6 17 29 30 32 -12 -11 28 vhcurveto
          -14 38 36 -14 8 callgsubr
          13 10 -28 vhcurveto
          14 -38 -36 14 -37 hhcurveto
          -52 -10 -25 -70 hvcurveto
          endchar
        </CharString>
        <CharString name="aring">
          -29 251 -53 callgsubr
          -33 -651 -107 callgsubr
          endchar
        </CharString>
        <CharString name="aringacute">
          -29 237 831 -98 callgsubr
          14 -221 -89 callgsubr
          -33 -651 -107 callgsubr
          endchar
        </CharString>
        <CharString name="arrowboth">
          351 310 192 rmoveto
          -43 95 rlineto
          348 hlineto
          -42 -95 17 callgsubr
          -348 hlineto
          43 96 -255 -113 rlineto
          endchar
        </CharString>
        <CharString name="arrowdown">
          -137 198 -85 rmoveto
          112 255 -95 -43 rlineto
          561 -34 -561 vlineto
          -96 43 rlineto
          endchar
        </CharString>
        <CharString name="arrowdown.ss01">
          -187 173 171 rmoveto
          142 285 rlineto
          -285 hlineto
          endchar
        </CharString>
        <CharString name="arrowleft">
          351 257 287 rmoveto
          571 34 -571 hlineto
          43 96 -245 -113 245 -112 rlineto
          endchar
        </CharString>
        <CharString name="arrowleft.ss01">
          -169 315 201 rmoveto
          285 vlineto
          -285 -143 rlineto
          endchar
        </CharString>
        <CharString name="arrowright">
          351 573 192 rmoveto
          17 callgsubr
          -560 -34 560 hlineto
          endchar
        </CharString>
        <CharString name="arrowright.ss01">
          -169 48 201 rmoveto
          285 142 -285 143 rlineto
          endchar
        </CharString>
        <CharString name="arrowup">
          -137 181 -81 rmoveto
          34 559 hlineto
          95 -42 -112 255 -113 -255 96 42 rlineto
          endchar
        </CharString>
        <CharString name="arrowup.ss01">
          -187 30 231 rmoveto
          285 hlineto
          -142 285 rlineto
          endchar
        </CharString>
        <CharString name="arrowupdn">
          -25 callsubr
          endchar
        </CharString>
        <CharString name="arrowupdnbse">
          -25 callsubr
          -30 -333 rmoveto
          285 34 -285 hlineto
          endchar
        </CharString>
        <CharString name="asciicircum">
          -85 343 459 rmoveto
          37 hlineto
          -132 290 rlineto
          -49 hlineto
          -132 -290 rlineto
          37 hlineto
          120 265 rlineto
          endchar
        </CharString>
        <CharString name="asciitilde">
          -66 395 355 rmoveto
          -27 hlineto
          -45 -6 -17 -29 -29 -32 12 11 -29 vhcurveto
          13 -37 -36 15 -37 hhcurveto
          -52 -10 -25 -70 hvcurveto
          -31 callgsubr
          6 17 29 30 32 -12 -11 28 vhcurveto
          -14 38 35 -14 37 hhcurveto
          52 10 25 70 hvcurveto
          endchar
        </CharString>
        <CharString name="asterisk">
          -111 224 490 rmoveto
          128 -80 19 32 -134 71 134 72 -19 33 -129 -82 6 152 rlineto
          -38 hlineto
          6 -152 -128 81 -19 -32 133 -72 -133 -71 19 -33 128 81 -6 -151 -19 callsubr
          endchar
        </CharString>
        <CharString name="asterisk.ss02">
          285 178 -14 rmoveto
          231 170 231 -170 -90 276 232 174 rlineto
          -288 hlineto
          -85 269 -87 -269 rlineto
          -287 hlineto
          234 -174 rlineto
          endchar
        </CharString>
        <CharString name="at">
          271 402 -108 rmoveto
          104 20 0 2 27 hvcurveto
          32 vlineto
          -2 -26 -47 -1 -78 hhcurveto
          -57 -45 2 3 -22 hvcurveto
          -160 17 -6 67 282 vvcurveto
          285 6 66 146 14 vhcurveto
          4 38 45 3 54 hhcurveto
          57 47 -3 -5 37 hvcurveto
          143 -16 6 -68 -280 vvcurveto
          -186 -21 -3 -43 vhcurveto
          -74 253 hlineto
          128 -24 32 -122 -51 -48 -4 -6 -32 -41 callgsubr
          6 27 56 5 37 hhcurveto
          105 17 -12 -122 hvcurveto
          -37 vlineto
          2 -51 -80 2 -24 hhcurveto
          -89 -25 -32 -94 -104 42 -21 94 50 64 7 68 19 -26 callsubr
          3 -68 rlineto
          92 hlineto
          80 28 9 210 349 -5 53 -318 -319 -4 -53 -349 -349 4 -53 319 hvcurveto
          -18 208 rmoveto
          -82 -18 16 77 83 16 11 70 hvcurveto
          148 -33 hlineto
          -121 -35 -33 -99 vhcurveto
          endchar
        </CharString>
        <CharString name="atilde">
          -29 403 743 -107 callsubr
          -185 -751 -107 callgsubr
          endchar
        </CharString>
        <CharString name="b">
          -5 283 -8 rmoveto
          -8 callgsubr
          -86 -50 -21 -58 -21 hvcurveto
          -4 304 -35 -743 28 hlineto
          3 80 rlineto
          4 hlineto
          -77 24 67 -11 70 hhcurveto
          -9 32 rmoveto
          -77 -46 23 56 -16 hvcurveto
          -13 45 0 47 60 vvcurveto
          62 1 47 13 45 vhcurveto
          53 16 45 24 -21 callsubr
        </CharString>
        <CharString name="backslash">
          -234 252 -55 rmoveto
          36 hlineto
          -241 798 rlineto
          -37 hlineto
          endchar
        </CharString>
        <CharString name="bar">
          -290 104 -161 rmoveto
          35 904 -35 hlineto
          endchar
        </CharString>
        <CharString name="bar.ss02">
          -34 -1 hmoveto
          500 696 -500 hlineto
          endchar
        </CharString>
        <CharString name="braceleft">
          -264 215 -150 rmoveto
          37 hlineto
          -55 38 -40 73 64 vvcurveto
          121 vlineto
          77 -20 54 -55 17 vhcurveto
          5 vlineto
          55 17 20 54 77 vvcurveto
          121 vlineto
          64 40 73 55 38 vhcurveto
          -37 hlineto
          -54 -31 -39 -79 -77 vvcurveto
          -115 vlineto
          -63 -23 -67 -72 vhcurveto
          -29 vlineto
          73 22 -67 -63 hvcurveto
          -115 vlineto
          -77 39 -79 54 -31 vhcurveto
          endchar
        </CharString>
        <CharString name="braceright">
          -264 17 -150 rmoveto
          36 hlineto
          54 31 39 79 77 vvcurveto
          115 vlineto
          63 23 67 73 vhcurveto
          29 vlineto
          -73 -23 67 63 hvcurveto
          115 vlineto
          77 -39 79 -54 31 vhcurveto
          -36 hlineto
          55 -38 39 -73 -64 vvcurveto
          -121 vlineto
          -77 21 -54 55 -17 vhcurveto
          -5 vlineto
          -55 -17 -21 -54 -77 vvcurveto
          -121 vlineto
          -64 -39 -73 -55 -38 vhcurveto
          endchar
        </CharString>
        <CharString name="bracketleft">
          -263 99 -150 rmoveto
          137 33 hlineto
          -102 4 rlineto
          819 vlineto
          102 4 rlineto
          33 -137 vlineto
          endchar
        </CharString>
        <CharString name="bracketleft.ss02">
          6 callgsubr
          hvcurveto
          -348 vlineto
          endchar
        </CharString>
        <CharString name="bracketright">
          -263 33 -150 rmoveto
          138 893 -138 -33 hlineto
          103 -4 rlineto
          -819 vlineto
          -103 -4 rlineto
          endchar
        </CharString>
        <CharString name="bracketright.ss02">
          -135 0 vmoveto
          352 348 hlineto
          13 callgsubr
          vhcurveto
          endchar
        </CharString>
        <CharString name="breve">
          -272 246 -74 callgsubr
          endchar
        </CharString>
        <CharString name="brokenbar">
          -290 104 390 rmoveto
          35 353 -35 hlineto
          -904 vmoveto
          35 353 -35 hlineto
          endchar
        </CharString>
        <CharString name="bullet">
          -208 256 342 rmoveto
          82 -4 13 -91 -89 -4 -13 -82 -79 4 -13 89 91 4 13 79 vhcurveto
          endchar
        </CharString>
        <CharString name="bullet.ss02">
          251 392 421 rmoveto
          62 50 39 73 90 -76 73 -36 -37 -76 -73 -90 -73 50 -39 63 hvcurveto
          60 vmoveto
          -30 -23 18 34 57 36 46 17 17 35 -46 -57 -34 -23 -18 -29 hvcurveto
          -189 -250 rmoveto
          73 39 50 63 62 -39 50 -73 -90 -73 -76 -36 -37 73 -76 90 hvcurveto
          378 hmoveto
          89 73 76 37 36 -73 76 -89 -74 -39 -50 -62 -63 39 -50 74 hvcurveto
          -378 60 rmoveto
          -57 -46 36 17 17 46 35 57 34 18 -23 -29 -30 -18 -23 -34 hvcurveto
          378 hmoveto
          -35 -18 23 30 29 18 23 35 56 46 -35 -17 -17 -46 -36 -56 hvcurveto
          -189 -299 rmoveto
          36 76 73 90 73 -50 39 -62 -63 -50 -39 -73 -90 76 -73 37 hvcurveto
          60 vmoveto
          -17 -36 46 57 34 23 18 30 29 23 -18 -34 -57 -35 -46 -17 hvcurveto
          endchar
        </CharString>
        <CharString name="c">
          -125 362 4 -85 callgsubr
        </CharString>
        <CharString name="cacute">
          -125 186 -80 callsubr
          176 -606 -85 callgsubr
        </CharString>
        <CharString name="cacute.loclPLK">
          -125 186 605 -71 callsubr
          176 -606 -85 callgsubr
        </CharString>
        <CharString name="caron">
          -271 107 605 -98 callsubr
          endchar
        </CharString>
        <CharString name="caron.loclCSY">
          -379 45 454 -27 callgsubr
          endchar
        </CharString>
        <CharString name="ccaron">
          -125 180 605 -98 callsubr
          276 -734 -85 callgsubr
        </CharString>
        <CharString name="ccedilla">
          -125 250 24 rmoveto
          -129 -21 37 195 187 21 43 126 34 45 -5 -7 32 hvcurveto
          33 vlineto
          6 -29 -48 5 -40 hhcurveto
          -142 -34 -52 -212 -166 11 -75 111 -17 hvcurveto
          -54 -181 rlineto
          -5 40 vlineto
          42 183 rlineto
          -1 9 11 0 11 hhcurveto
          40 48 5 7 28 hvcurveto
          33 vlineto
          -7 -27 -47 -6 -38 hhcurveto
          endchar
        </CharString>
        <CharString name="ccircumflex">
          -125 86 605 -106 callgsubr
          276 -606 -85 callgsubr
        </CharString>
        <CharString name="cdotaccent">
          -125 181 670 -32 callgsubr
          181 -727 -85 callgsubr
        </CharString>
        <CharString name="cedilla">
          -408 20 3 callgsubr
        </CharString>
        <CharString name="cent">
          -109 372 115 rmoveto
          -28 -8 -39 -5 -37 -1 rrcurveto
          484 vlineto
          35 39 -5 -7 25 hvcurveto
          34 vlineto
          -27 5 -37 5 -35 2 rrcurveto
          77 -34 -77 vlineto
          -126 -4 -41 -45 -228 vvcurveto
          -206 23 -62 144 -7 vhcurveto
          -75 34 75 vlineto
          42 1 37 6 25 6 rrcurveto
          -268 264 rmoveto
          195 23 41 107 5 vhcurveto
          -483 vlineto
          -109 5 -21 41 196 vvcurveto
          endchar
        </CharString>
        <CharString name="circumflex">
          -271 13 605 -106 callgsubr
          endchar
        </CharString>
        <CharString name="colon">
          21 callgsubr
          -510 vmoveto
          46 65 -46 hlineto
          endchar
        </CharString>
        <CharString name="comma">
          -364 32 -80 rmoveto
          -63 callgsubr
          endchar
        </CharString>
        <CharString name="copyright">
          115 324 -8 rmoveto
          15 callsubr
          15 callgsubr
          hvcurveto
          26 -16 callsubr
          20 136 rmoveto
          25 30 2 3 18 hvcurveto
          30 vlineto
          -3 -17 -29 -2 -23 hhcurveto
          -90 -10 14 146 146 10 14 90 22 28 -2 -3 18 hvcurveto
          29 vlineto
          4 -14 -30 2 -28 hhcurveto
          -109 -17 -22 -168 -170 17 -20 109 hvcurveto
          endchar
        </CharString>
        <CharString name="currency">
          149 88 -12 rmoveto
          111 111 rlineto
          -22 28 43 -7 70 hhcurveto
          69 44 7 21 28 hvcurveto
          111 -111 23 23 -112 112 rlineto
          25 40 3 69 114 vvcurveto
          112 -3 68 -25 41 vhcurveto
          112 111 -22 22 -111 -110 rlineto
          22 -28 -44 7 -70 hhcurveto
          -70 -43 -7 -21 -29 hvcurveto
          -110 110 -23 -23 112 -112 rlineto
          -25 -40 -3 -68 -112 vvcurveto
          -115 3 -69 26 -39 vhcurveto
          -113 -112 rlineto
          275 92 rmoveto
          -154 -2 37 206 202 2 39 154 154 2 -39 -202 -206 -2 -37 -154 hvcurveto
          endchar
        </CharString>
        <CharString name="d">
          -5 -76 callgsubr
          9 32 -72 callsubr
          endchar
        </CharString>
        <CharString name="dagger">
          -166 169 hmoveto
          25 hlineto
          6 466 -17 callsubr
          endchar
        </CharString>
        <CharString name="daggerdbl">
          -166 169 hmoveto
          25 hlineto
          6 186 119 6 rlineto
          24 vlineto
          -119 6 rlineto
          244 vlineto
          -17 callsubr
          -244 vlineto
          -116 -6 rlineto
          -24 vlineto
          116 -6 rlineto
          endchar
        </CharString>
        <CharString name="dcaron">
          -5 -76 callgsubr
          243 462 -27 callgsubr
          -246 -575 -72 callsubr
          endchar
        </CharString>
        <CharString name="dcroat">
          -5 504 688 rmoveto
          -64 55 -35 -55 -139 -32 139 -217 -4 hlineto
          58 -21 -50 21 -86 -26 callgsubr
          29 -49 150 70 67 11 77 24 -26 callsubr
          4 -80 rlineto
          27 656 64 hlineto
          -113 -556 rmoveto
          -53 -15 -46 -23 -77 hhcurveto
          -67 callgsubr
          128 82 45 -24 -62 18 hvcurveto
          11 -36 1 -47 -48 vvcurveto
          -74 0 -47 -14 -48 vhcurveto
          endchar
        </CharString>
        <CharString name="degree">
          -183 175 -13 callsubr
          31 vmoveto
          4 callgsubr
          endchar
        </CharString>
        <CharString name="dialog">
          273 306 -212 rmoveto
          213 212 rlineto
          227 688 -687 -688 247 60 -187 568 567 -568 -192 hlineto
          -188 -187 rlineto
          endchar
        </CharString>
        <CharString name="dieresis">
          -269 22 -55 callgsubr
          endchar
        </CharString>
        <CharString name="divide">
          -18 235 405 rmoveto
          44 58 -44 hlineto
          -168 -226 rmoveto
          -6 callsubr
          168 -226 rmoveto
          44 58 -44 hlineto
          endchar
        </CharString>
        <CharString name="dollar">
          -52 410 215 rmoveto
          110 -18 24 -77 9 vhcurveto
          -55 6 rlineto
          222 vlineto
          40 -2 49 -4 36 -7 rrcurveto
          34 vlineto
          -32 6 -49 5 -44 1 rrcurveto
          77 -34 -77 vlineto
          -103 -3 -53 -27 -121 vvcurveto
          -90 22 -30 79 -10 vhcurveto
          55 -6 rlineto
          -231 vlineto
          -56 -36 4 8 -50 hvcurveto
          -34 vlineto
          36 -6 55 -4 51 -1 rrcurveto
          -76 34 76 vlineto
          104 3 46 30 114 vvcurveto
          -235 158 rmoveto
          -53 6 -16 11 85 vvcurveto
          99 49 11 71 1 vhcurveto
          -218 vlineto
          34 -267 rmoveto
          227 vlineto
          49 -5 rlineto
          47 -6 18 -6 -96 vvcurveto
          -85 -23 -27 -91 -2 vhcurveto
          endchar
        </CharString>
        <CharString name="dotaccent">
          -449 20 670 -32 callgsubr
          endchar
        </CharString>
        <CharString name="dotbelowcomb">
          -107 -127 -79 callgsubr
        </CharString>
        <CharString name="dotlessi">
          -323 87 hmoveto
          -38 callsubr
          endchar
        </CharString>
        <CharString name="e">
          -34 432 256 -105 callgsubr
          endchar
        </CharString>
        <CharString name="eacute">
          -34 359 738 -65 callgsubr
          174 -349 -105 callgsubr
          endchar
        </CharString>
        <CharString name="ebreve">
          -34 248 602 rmoveto
          116 1 59 82 hvcurveto
          -32 hlineto
          -75 -1 -38 -84 -83 -1 38 75 vhcurveto
          -32 hlineto
          -82 0 -59 116 vhcurveto
          184 -346 -105 callgsubr
          endchar
        </CharString>
        <CharString name="ecaron">
          -34 272 605 -30 callgsubr
          206 -349 -105 callgsubr
          endchar
        </CharString>
        <CharString name="ecircumflex">
          -34 250 713 -68 callsubr
          272 -349 -105 callgsubr
          endchar
        </CharString>
        <CharString name="edieresis">
          -34 183 731 -12 callgsubr
          72 -414 -105 callgsubr
          endchar
        </CharString>
        <CharString name="edotaccent">
          -34 270 731 rmoveto
          -43 -61 43 hlineto
          162 -414 -105 callgsubr
          endchar
        </CharString>
        <CharString name="egrave">
          -34 277 605 -59 callgsubr
          181 -349 -105 callgsubr
          endchar
        </CharString>
        <CharString name="eight">
          57 294 1 callgsubr
          32 48 100 vvcurveto
          128 -44 -37 callgsubr
          32 -34 -115 -115 -37 -24 callsubr
        </CharString>
        <CharString name="eight.dnom">
          -183 174 -4 -96 callsubr
        </CharString>
        <CharString name="eight.numr">
          -183 174 304 -96 callsubr
        </CharString>
        <CharString name="eight.tnum">
          43 287 1 callgsubr
          31 48 100 vvcurveto
          128 -43 -37 callgsubr
          31 -34 -115 -115 -36 -24 callsubr
        </CharString>
        <CharString name="ellipsis">
          -28 61 hmoveto
          46 65 -46 hlineto
          168 -65 -14 callgsubr
          168 -65 -14 callgsubr
          endchar
        </CharString>
        <CharString name="emacron">
          -34 351 742 20 callgsubr
          81 -450 -105 callgsubr
          endchar
        </CharString>
        <CharString name="emdash">
          316 63 287 rmoveto
          722 34 -722 hlineto
          endchar
        </CharString>
        <CharString name="endash">
          -85 63 287 rmoveto
          321 34 -321 hlineto
          endchar
        </CharString>
        <CharString name="eng">
          0 282 518 rmoveto
          -27 callsubr
          hvcurveto
          -38 callgsubr
          -510 35 264 -11 callgsubr
          0 99 152 116 22 -23 -148 vhcurveto
          -425 vlineto
          -45 -8 -12 -81 vhcurveto
          -30 vlineto
          84 40 5 92 hvcurveto
          420 vlineto
          144 -22 54 -143 vhcurveto
          endchar
        </CharString>
        <CharString name="eogonek">
          -34 432 256 rmoveto
          204 -10 58 -162 -189 -6 -65 -199 -210 25 -52 169 37 43 2 4 34 vhcurveto
          -36 -35 -25 -47 -42 vvcurveto
          -38 21 -32 -62 callsubr
          -35 -12 21 24 43 40 57 29 24 hvcurveto
          -99 callgsubr
          endchar
        </CharString>
        <CharString name="equal">
          -18 67 332 rmoveto
          -6 callsubr
          -222 vmoveto
          -6 callsubr
          endchar
        </CharString>
        <CharString name="estimated">
          96 113 323 rmoveto
          438 21 hlineto
          310 -16 42 -221 -220 -17 -42 -310 -310 17 -42 220 181 43 28 180 10 vhcurveto
          -36 hlineto
          -168 -10 -40 -6 -148 hhcurveto
          -177 -23 9 288 -1 hvcurveto
          201 339 rmoveto
          179 21 -9 -296 1 hvcurveto
          -402 hlineto
          296 1 22 9 178 hhcurveto
          endchar
        </CharString>
        <CharString name="eth">
          16 callsubr
          29 -1 47 -7 53 hvcurveto
          -11 86 -35 94 -37 63 70 12 rcurveline
          32 vlineto
          -89 -16 -25 34 -23 20 -11 10 rlinecurve
          -42 -4 hlineto
          12 -12 25 -22 26 -32 -92 -16 rcurveline
          -32 vlineto
          112 19 28 -43 25 -54 18 -63 rlinecurve
          -5 -2 rlineto
          -37 callsubr
        </CharString>
        <CharString name="exclam">
          -346 79 173 rmoveto
          -47 callgsubr
          -10 -173 -14 callgsubr
          endchar
        </CharString>
        <CharString name="exclam.case">
          -346 79 173 rmoveto
          -47 callgsubr
          -10 -173 -14 callgsubr
          endchar
        </CharString>
        <CharString name="exclam.ss02">
          262 397 -8 rmoveto
          194 158 158 194 194 -158 158 -194 -194 -158 -158 -194 -194 158 -158 194 hvcurveto
          45 vmoveto
          -169 -138 138 169 169 138 138 169 169 138 -138 -169 -169 -138 -138 -169 hvcurveto
          -20 231 rmoveto
          40 hlineto
          8 55 6 88 69 vvcurveto
          99 -68 -99 vlineto
          -69 6 -88 8 -55 vhcurveto
          -14 -159 rmoveto
          68 82 -68 hlineto
          endchar
        </CharString>
        <CharString name="exclamdbl">
          -173 79 173 rmoveto
          -47 callgsubr
          174 hmoveto
          -47 callgsubr
          -184 -173 -14 callgsubr
          174 -65 -14 callgsubr
          endchar
        </CharString>
        <CharString name="exclamdown">
          -346 69 445 -23 callsubr
        </CharString>
        <CharString name="exclamdown.case">
          -346 69 623 -23 callsubr
        </CharString>
        <CharString name="f">
          -228 121 hmoveto
          -66 callsubr
          endchar
        </CharString>
        <CharString name="f_f">
          76 121 hmoveto
          -66 callsubr
          304 -478 rmoveto
          -66 callsubr
          endchar
        </CharString>
        <CharString name="fi">
          -19 121 hmoveto
          -66 callsubr
          267 204 -15 callgsubr
          endchar
        </CharString>
        <CharString name="five">
          -4 75 38 rmoveto
          -32 vlineto
          -8 48 70 -6 51 19 callgsubr
          -183 -54 -52 -4 -7 -36 14 callgsubr
          62 4 callsubr
          -70 5 7 -59 hvcurveto
          endchar
        </CharString>
        <CharString name="five.dnom">
          -216 44 34 -65 callsubr
          endchar
        </CharString>
        <CharString name="five.numr">
          -216 44 342 -65 callsubr
          endchar
        </CharString>
        <CharString name="five.tnum">
          43 97 38 rmoveto
          -32 vlineto
          -8 47 71 -6 50 19 callgsubr
          -182 -55 -52 -5 -6 -35 14 callgsubr
          61 4 callsubr
          -69 5 7 -59 hvcurveto
          endchar
        </CharString>
        <CharString name="fiveeighths">
          257 164 hmoveto
          -33 callsubr
          -510 -346 -65 callsubr
          570 -346 -96 callsubr
        </CharString>
        <CharString name="fl">
          -19 121 hmoveto
          -66 callsubr
          270 -478 rmoveto
          35 743 -35 hlineto
          endchar
        </CharString>
        <CharString name="florin">
          -233 320 713 rmoveto
          7 30 rlineto
          -100 -54 -7 -215 -46 hvcurveto
          -2 -11 rlineto
          -95 hlineto
          -7 -32 rlineto
          94 hlineto
          -114 -540 rlineto
          -83 -18 -29 -15 -91 hhcurveto
          -7 -30 rlineto
          99 55 7 193 41 hvcurveto
          99 468 rlineto
          118 hlineto
          7 32 rlineto
          -117 hlineto
          4 21 rlineto
          167 35 29 15 92 hhcurveto
          endchar
        </CharString>
        <CharString name="four">
          22 375 hmoveto
          36 176 95 34 -95 300 -35 -300 -290 hlineto
          239 478 rlineto
          -41 hlineto
          -238 -481 rlineto
          -31 329 vlineto
          endchar
        </CharString>
        <CharString name="four.dnom">
          -204 215 hmoveto
          -23 callgsubr
        </CharString>
        <CharString name="four.numr">
          -204 215 308 rmoveto
          -23 callgsubr
        </CharString>
        <CharString name="four.ss01">
          22 411 210 rmoveto
          478 -36 vlineto
          -329 -481 rlineto
          -31 329 -176 36 176 95 34 vlineto
          -417 hmoveto
          287 415 rlineto
          -415 vlineto
          endchar
        </CharString>
        <CharString name="four.tnum">
          43 390 hmoveto
          36 176 94 34 -94 300 -35 -300 -296 hlineto
          245 478 rlineto
          -41 hlineto
          -245 -481 rlineto
          -31 336 vlineto
          endchar
        </CharString>
        <CharString name="fraction">
          -408 -152 hmoveto
          -33 callsubr
          endchar
        </CharString>
        <CharString name="g">
          -5 242 -203 rmoveto
          -100 callgsubr
        </CharString>
        <CharString name="g_tilde.loclGUA">
          -5 416 743 -107 callsubr
          -174 -946 rmoveto
          -100 callgsubr
        </CharString>
        <CharString name="gbreve">
          -5 380 -74 callgsubr
          -138 -946 rmoveto
          -100 callgsubr
        </CharString>
        <CharString name="gcaron">
          -5 241 605 -98 callsubr
          95 -941 rmoveto
          -100 callgsubr
        </CharString>
        <CharString name="gcircumflex">
          -5 147 605 -106 callgsubr
          95 -813 rmoveto
          -100 callgsubr
        </CharString>
        <CharString name="gcommaaccent">
          -5 316 -4 callsubr
          -74 -955 rmoveto
          -100 callgsubr
        </CharString>
        <CharString name="gdotaccent">
          -5 242 670 -32 callgsubr
          -934 vmoveto
          -100 callgsubr
        </CharString>
        <CharString name="germandbls">
          10 300 hmoveto
          152 24 60 184 133 -38 51 -74 13 hvcurveto
          4 vlineto
          72 12 33 39 84 vvcurveto
          120 -45 50 -140 -146 -51 -60 -151 vhcurveto
          -539 34 538 vlineto
          146 48 34 110 120 35 -35 -99 -92 -40 -36 -101 vhcurveto
          -36 -32 36 hlineto
          114 34 -42 -147 -184 -18 -19 -141 hvcurveto
          -60 -32 hlineto
          endchar
        </CharString>
        <CharString name="grave">
          -378 114 605 -89 callsubr
          endchar
        </CharString>
        <CharString name="gravecomb">
          -40 605 -89 callsubr
          endchar
        </CharString>
        <CharString name="gravecomb.case">
          -40 750 -89 callsubr
          endchar
        </CharString>
        <CharString name="greater">
          -17 67 55 -13 callgsubr
          endchar
        </CharString>
        <CharString name="greaterequal">
          -17 67 180 -13 callgsubr
          -202 vmoveto
          -6 callsubr
          endchar
        </CharString>
        <CharString name="guillemotleft">
          -132 -1 callgsubr
          251 -205 rmoveto
          30 hlineto
          -103 205 103 206 rlineto
          -30 hlineto
          -116 -206 rlineto
          endchar
        </CharString>
        <CharString name="guillemotright">
          -132 -2 callsubr
          32 -205 rmoveto
          31 hlineto
          116 205 -116 206 rlineto
          -31 hlineto
          104 -206 rlineto
          endchar
        </CharString>
        <CharString name="guilsinglleft">
          -267 -1 callgsubr
          endchar
        </CharString>
        <CharString name="guilsinglright">
          -267 -2 callsubr
          endchar
        </CharString>
        <CharString name="h">
          0 412 hmoveto
          -54 callgsubr
          endchar
        </CharString>
        <CharString name="hbar">
          0 282 518 rmoveto
          -113 -31 -45 -33 -12 hvcurveto
          -4 216 139 32 -139 55 -35 -55 -64 -32 64 -656 35 264 -11 callgsubr
          0 99 152 116 22 -23 -148 vhcurveto
          -315 35 320 vlineto
          144 -22 54 -143 vhcurveto
          endchar
        </CharString>
        <CharString name="hcircumflex">
          0 -12 783 -106 callgsubr
          424 -788 rmoveto
          -54 callgsubr
          endchar
        </CharString>
        <CharString name="hookabovecomb">
          -166 608 -104 callsubr
          endchar
        </CharString>
        <CharString name="hookabovecomb.case">
          -166 733 -95 callgsubr
          endchar
        </CharString>
        <CharString name="house">
          102 49 hmoveto
          537 391 hlineto
          -250 304 rlineto
          -37 hlineto
          -250 -304 rlineto
          36 -358 rmoveto
          348 vlineto
          232 281 233 -281 rlineto
          -348 vlineto
          endchar
        </CharString>
        <CharString name="hungarumlaut">
          -201 21 607 -78 callgsubr
          endchar
        </CharString>
        <CharString name="hyphen">
          11 callsubr
        </CharString>
        <CharString name="i">
          -323 84 682 -15 callgsubr
          endchar
        </CharString>
        <CharString name="i.loclTRK">
          -323 83 670 -32 callgsubr
          4 -731 -40 callsubr
        </CharString>
        <CharString name="iacute">
          -323 84 -80 callsubr
          3 -610 -40 callsubr
        </CharString>
        <CharString name="iacute_j.loclNLD">
          -114 88 -80 callsubr
          209 -5 -98 callgsubr
          -210 -610 -46 callgsubr
          120 -707 -70 callsubr
        </CharString>
        <CharString name="ibreve">
          -323 221 -74 callgsubr
          -134 13 callsubr
          endchar
        </CharString>
        <CharString name="icircumflex">
          -323 -12 605 -106 callgsubr
          99 -610 -40 callsubr
        </CharString>
        <CharString name="idieresis">
          -323 -5 -55 callgsubr
          -85 -731 -40 callsubr
        </CharString>
        <CharString name="igrave">
          -323 98 605 -89 callsubr
          90 -738 -40 callsubr
        </CharString>
        <CharString name="ij">
          -114 84 9 callgsubr
          209 -61 -18 callsubr
          -206 13 callsubr
          120 -707 -70 callsubr
        </CharString>
        <CharString name="imacron">
          -323 1 706 -63 callsubr
          86 -742 -40 callsubr
        </CharString>
        <CharString name="infinity">
          386 251 57 rmoveto
          127 48 67 78 34 hvcurveto
          -78 33 48 -67 128 hhcurveto
          152 34 71 128 127 -34 72 -152 -128 -48 -68 -77 -33 hvcurveto
          77 -34 -48 68 -127 hhcurveto
          -152 -36 -72 -127 -128 36 -71 152 hvcurveto
          32 vmoveto
          -127 -26 63 104 104 26 63 127 121 43 -81 -86 26 hvcurveto
          -86 -26 -43 -81 -121 hhcurveto
          418 hmoveto
          -122 -43 81 86 -25 hvcurveto
          86 25 43 81 122 hhcurveto
          126 25 -63 -104 -104 -25 -63 -126 hvcurveto
          endchar
        </CharString>
        <CharString name="integral">
          -173 73 -190 rmoveto
          83 54 6 83 4 0 5 -4 70 hvcurveto
          -34 591 rlineto
          -1 19 -1 15 7 vvcurveto
          44 23 12 79 vhcurveto
          30 vlineto
          -83 -55 -7 -82 -10 0 -7 1 -21 hvcurveto
          36 -594 rlineto
          4 -73 0 -3 -3 vvcurveto
          -44 -23 -12 -79 vhcurveto
          endchar
        </CharString>
        <CharString name="iogonek">
          -323 83 731 rmoveto
          -61 43 61 vlineto
          -67 -849 rmoveto
          40 36 55 27 23 vhcurveto
          -28 callgsubr
          -510 vlineto
          -36 -35 -26 -49 -40 vvcurveto
          -41 21 -31 -62 callsubr
          -35 -12 20 26 hvcurveto
          endchar
        </CharString>
        <CharString name="itilde">
          -323 257 743 -107 callsubr
          -170 13 callsubr
          endchar
        </CharString>
        <CharString name="j">
          -323 84 9 callgsubr
          -86 -940 -70 callsubr
        </CharString>
        <CharString name="jcircumflex">
          -323 -12 605 -106 callgsubr
          10 -807 -70 callsubr
        </CharString>
        <CharString name="k">
          -34 callsubr
          466 -35 -743 35 243 77 hlineto
          endchar
        </CharString>
        <CharString name="kcommaaccent">
          -34 callsubr
          466 -35 -743 35 243 77 hlineto
          -8 -450 -85 callsubr
          endchar
        </CharString>
        <CharString name="kgreenlandic">
          -34 callsubr
          233 -35 -510 35 243 77 hlineto
          endchar
        </CharString>
        <CharString name="l">
          -323 -6 callgsubr
          endchar
        </CharString>
        <CharString name="lacute">
          -323 88 783 -98 callgsubr
          -1 -788 rmoveto
          35 743 -35 hlineto
          endchar
        </CharString>
        <CharString name="lcaron">
          -323 -6 callgsubr
          84 -289 -27 callgsubr
          endchar
        </CharString>
        <CharString name="lcommaaccent">
          -323 -6 callgsubr
          -20 -950 -85 callsubr
          endchar
        </CharString>
        <CharString name="ldot">
          -310 -6 callgsubr
          105 -476 -79 callgsubr
        </CharString>
        <CharString name="leftOpenDialog">
          93 626 628 rmoveto
          60 -626 -688 626 60 -566 568 vlineto
          endchar
        </CharString>
        <CharString name="less">
          -17 448 55 -3 callgsubr
          endchar
        </CharString>
        <CharString name="lessequal">
          -17 448 180 -3 callgsubr
          -1 -338 rmoveto
          381 32 -381 hlineto
          endchar
        </CharString>
        <CharString name="logicalnot">
          -19 412 63 rmoveto
          34 209 -379 -34 345 hlineto
          endchar
        </CharString>
        <CharString name="longs">
          -259 121 hmoveto
          35 631 hlineto
          67 26 15 92 vhcurveto
          30 vlineto
          -100 -53 -12 -106 hvcurveto
          -115 -94 -32 94 vlineto
          endchar
        </CharString>
        <CharString name="lozenge">
          -45 220 hmoveto
          47 hlineto
          162 344 -162 345 rlineto
          -47 hlineto
          -162 -345 rlineto
          185 -314 rmoveto
          -148 314 148 315 149 -315 rlineto
          endchar
        </CharString>
        <CharString name="lslash">
          -322 87 hmoveto
          35 350 hlineto
          64 23 rlineto
          35 vlineto
          -64 -23 rlineto
          358 -35 -370 vlineto
          -60 -21 rlineto
          -35 vlineto
          60 21 rlineto
          endchar
        </CharString>
        <CharString name="m">
          267 679 hmoveto
          35 320 hlineto
          144 -21 54 -131 -102 -33 -43 -45 -13 vhcurveto
          -5 hlineto
          63 -14 -37 25 -91 hhcurveto
          -102 -31 -43 -17 callgsubr
          -38 callgsubr
          -510 35 264 -11 callgsubr
          0 99 139 104 18 -23 -148 vhcurveto
          -315 35 264 vlineto
          134 0 88 138 105 18 -23 -148 vhcurveto
          endchar
        </CharString>
        <CharString name="macron">
          -200 63 706 -63 callsubr
          endchar
        </CharString>
        <CharString name="minus">
          -18 67 237 rmoveto
          -6 callsubr
          endchar
        </CharString>
        <CharString name="minute">
          -379 48 394 -7 callgsubr
          endchar
        </CharString>
        <CharString name="multiply">
          -86 223 230 rmoveto
          133 -133 23 23 -134 133 134 133 -22 22 -134 -133 -133 134 -23 -23 133 -134 -132 -133 22 -22 rlineto
          endchar
        </CharString>
        <CharString name="n">
          0 412 hmoveto
          -84 callgsubr
        </CharString>
        <CharString name="nacute">
          0 249 -80 callsubr
          163 -610 rmoveto
          -84 callgsubr
        </CharString>
        <CharString name="nacute.loclPLK">
          0 249 605 -71 callsubr
          163 -610 rmoveto
          -84 callgsubr
        </CharString>
        <CharString name="napostrophe">
          0 4 598 rmoveto
          -63 callgsubr
          408 -598 rmoveto
          -84 callgsubr
        </CharString>
        <CharString name="ncaron">
          0 243 605 -98 callsubr
          263 -738 rmoveto
          -84 callgsubr
        </CharString>
        <CharString name="ncommaaccent">
          0 412 hmoveto
          -84 callsubr
          -184 -522 -85 callsubr
          endchar
        </CharString>
        <CharString name="nine">
          31 251 -8 rmoveto
          124 63 24 88 28 hvcurveto
          18 53 2 82 115 vvcurveto
          111 -2 76 -13 48 vhcurveto
          91 -25 -64 16 -122 -49 callgsubr
        </CharString>
        <CharString name="nine.dnom">
          -199 149 -4 -57 callgsubr
        </CharString>
        <CharString name="nine.numr">
          -199 149 304 -57 callgsubr
        </CharString>
        <CharString name="nine.ss01">
          41 210 hmoveto
          44 hlineto
          162 147 92 150 180 vvcurveto
          182 -54 37 -170 -170 -50 -52 -152 -167 46 -35 155 110 44 13 28 25 vhcurveto
          5 -1 -37 -117 -84 -106 -118 -102 rlinecurve
          76 319 rmoveto
          -132 -54 0 169 135 38 34 148 139 47 -19 -170 -128 -59 -21 -127 hvcurveto
          endchar
        </CharString>
        <CharString name="nine.tnum">
          43 267 -8 rmoveto
          125 63 25 78 24 hvcurveto
          21 64 2 82 113 vvcurveto
          119 -2 78 -18 54 vhcurveto
          77 -25 -63 14 -118 -49 callgsubr
        </CharString>
        <CharString name="notequal">
          -18 218 142 rmoveto
          229 32 -213 hlineto
          76 158 rlineto
          137 32 -121 hlineto
          66 136 rlineto
          -36 hlineto
          -66 -136 rlineto
          -223 -32 207 hlineto
          -76 -158 rlineto
          -131 -32 115 hlineto
          -64 -132 rlineto
          36 hlineto
          endchar
        </CharString>
        <CharString name="ntilde">
          0 420 743 -107 callsubr
          -8 -743 rmoveto
          -84 callgsubr
        </CharString>
        <CharString name="numbersign">
          158 315 hmoveto
          35 hlineto
          40 202 rlineto
          116 34 -109 hlineto
          41 206 rlineto
          100 34 -93 18 callsubr
          -172 18 callsubr
          -110 -34 103 hlineto
          -42 -206 rlineto
          -93 -34 86 hlineto
          -40 -202 rlineto
          35 hlineto
          39 202 rlineto
          173 hlineto
          48 240 rmoveto
          -41 -206 rlineto
          -173 hlineto
          42 206 rlineto
          endchar
        </CharString>
        <CharString name="o">
          -19 257 -8 -102 callsubr
        </CharString>
        <CharString name="oacute">
          -19 231 -80 callsubr
          26 -87 callgsubr
        </CharString>
        <CharString name="oacute.loclPLK">
          -19 240 605 -71 callsubr
          17 -87 callgsubr
        </CharString>
        <CharString name="obreve">
          -19 373 -74 callgsubr
          -116 -751 -102 callsubr
        </CharString>
        <CharString name="ocircumflex">
          -59 callsubr
          endchar
        </CharString>
        <CharString name="odieresis">
          -19 147 -55 callgsubr
          -67 -739 -102 callsubr
        </CharString>
        <CharString name="oe">
          313 780 256 rmoveto
          204 -10 58 -162 -107 -48 -23 -56 -22 vhcurveto
          61 -21 -48 18 -105 hhcurveto
          -180 -12 -47 -217 -217 12 -45 180 108 46 17 65 21 hvcurveto
          -63 24 50 -19 101 hhcurveto
          56 -9 callgsubr
          35 hvcurveto
          -88 callsubr
          -523 -219 rmoveto
          -155 -2 35 195 195 2 37 155 154 2 -37 -195 -195 -2 -35 -154 hvcurveto
          348 462 rmoveto
          110 30 -19 -171 hvcurveto
          -21 -297 vlineto
          183 16 28 141 vhcurveto
          endchar
        </CharString>
        <CharString name="ogonek">
          -434 98 -195 rmoveto
          -28 callsubr
        </CharString>
        <CharString name="ograve">
          -19 259 605 -89 callsubr
          99 -746 -102 callsubr
        </CharString>
        <CharString name="ohorn">
          -19 454 608 -92 callgsubr
          endchar
        </CharString>
        <CharString name="ohungarumlaut">
          -19 170 607 -78 callgsubr
          -75 -620 -102 callsubr
        </CharString>
        <CharString name="omacron">
          -19 153 706 -63 callsubr
          104 -750 -102 callsubr
        </CharString>
        <CharString name="one">
          -218 168 hmoveto
          36 688 -28 hlineto
          -133 -78 rlineto
          -37 vlineto
          125 67 rlineto
          endchar
        </CharString>
        <CharString name="one.dnom">
          -338 98 hmoveto
          8 callsubr
        </CharString>
        <CharString name="one.numr">
          -338 98 308 rmoveto
          8 callsubr
        </CharString>
        <CharString name="one.tnum">
          43 110 hmoveto
          390 34 -171 654 -29 hlineto
          -185 -95 rlineto
          -35 vlineto
          178 85 rlineto
          -609 -183 vlineto
          endchar
        </CharString>
        <CharString name="oneeighth">
          171 -43 callsubr
          51 -692 -96 callsubr
        </CharString>
        <CharString name="onehalf">
          147 104 319 rmoveto
          33 369 -25 hlineto
          -74 -45 rlineto
          -33 vlineto
          66 35 rlineto
          344 43 rmoveto
          -390 -688 -19 callsubr
          391 -32 callsubr
          -65 -630 rmoveto
          40 -1 18 25 12 vhcurveto
          32 17 37 18 31 15 rrcurveto
          46 23 17 20 62 vvcurveto
          87 -47 7 -60 -29 -42 -3 -5 -35 -41 callgsubr
          5 48 35 3 20 hhcurveto
          60 16 -12 -54 -36 -7 -18 -31 -16 hvcurveto
          -29 -13 -35 -18 -35 -17 rrcurveto
          -47 -24 -1 -15 -82 vvcurveto
          -39 219 33 -187 vlineto
          endchar
        </CharString>
        <CharString name="onequarter">
          66 -43 callsubr
          12 21 callsubr
          -34 -158 -139 hlineto
          122 7 callsubr
        </CharString>
        <CharString name="ordfeminine">
          -167 159 315 rmoveto
          40 48 5 44 23 -26 callsubr
          5 -44 rlineto
          27 239 hlineto
          112 -22 25 -108 -45 -43 -3 -6 -27 vhcurveto
          -31 vlineto
          5 26 49 4 31 hhcurveto
          91 15 -10 -100 hvcurveto
          -29 vlineto
          1 -44 -66 2 -21 hhcurveto
          -81 -21 -24 -82 -91 37 -17 82 hvcurveto
          30 vmoveto
          -70 -18 15 63 64 16 11 61 hvcurveto
          125 -25 hlineto
          -32 -2 -30 -10 -22 vhcurveto
          -37 -16 -43 -7 -43 hhcurveto
          endchar
        </CharString>
        <CharString name="ordmasculine">
          -155 189 315 rmoveto
          131 9 31 158 158 -9 34 -131 -132 -9 -34 -158 -158 9 -31 132 hvcurveto
          29 vmoveto
          -106 -2 25 135 135 2 26 106 106 1 -26 -135 -135 -1 -25 -106 hvcurveto
          endchar
        </CharString>
        <CharString name="orn.001">
          -195 289 341 rmoveto
          105 -6 17 -117 -112 -6 -17 -105 -102 6 -16 112 117 6 16 102 vhcurveto
          endchar
        </CharString>
        <CharString name="orn.002">
          17 210 -48 callgsubr
          63 101 -44 callsubr
          121 87 -1 callsubr
          -29 -21 22 28 29 21 21 29 28 22 -21 -29 -28 -22 -22 -28 hvcurveto
          endchar
        </CharString>
        <CharString name="orn.003">
          -117 211 -48 callgsubr
          63 101 -44 callsubr
          63 101 -22 callsubr
          endchar
        </CharString>
        <CharString name="orn.007">
          -195 168 222 rmoveto
          67 54 53 67 67 -54 54 -67 -67 -53 -54 -67 -67 53 -53 67 hvcurveto
          endchar
        </CharString>
        <CharString name="orn.010">
          262 397 hmoveto
          352 348 hlineto
          13 callgsubr
          -207 -145 -143 -205 -204 145 -144 207 vhcurveto
          endchar
        </CharString>
        <CharString name="orn.015">
          10 callsubr
          187 60 -187 hlineto
          187 -272 rmoveto
          213 212 rlineto
          167 60 -192 hlineto
          -188 -187 rlineto
          endchar
        </CharString>
        <CharString name="orn.016">
          10 callsubr
          567 60 -567 hlineto
          endchar
        </CharString>
        <CharString name="orn.017">
          -472 0 vmoveto
          60 688 -60 hlineto
          endchar
        </CharString>
        <CharString name="orn.018">
          260 211 -48 callgsubr
          370 hmoveto
          99 62 67 110 126 vvcurveto
          125 -67 111 -99 62 vhcurveto
          -32 -51 rlineto
          82 -51 56 -92 -104 vvcurveto
          -105 -55 -91 -83 -52 vhcurveto
          -275 51 -44 callsubr
          244 hmoveto
          65 41 44 73 83 vvcurveto
          83 -44 73 -66 41 vhcurveto
          -32 -51 rlineto
          49 -31 33 -54 -61 vvcurveto
          -62 -33 -53 -48 -31 vhcurveto
          -149 50 -22 callsubr
          118 hmoveto
          -18 callgsubr
        </CharString>
        <CharString name="orn.019">
          17 338 -45 callgsubr
          -89 36 -1 callsubr
          -28 -22 22 28 29 22 21 28 29 21 -21 -29 -28 -21 -22 -29 hvcurveto
          endchar
        </CharString>
        <CharString name="orn.020">
          -117 204 -45 callgsubr
          -31 50 rmoveto
          -18 callgsubr
        </CharString>
        <CharString name="orn.021">
          221 376 -116 rmoveto
          193 100 139 201 179 vvcurveto
          188 -149 144 -183 -183 -148 -144 -188 -178 139 -202 192 -100 vhcurveto
          endchar
        </CharString>
        <CharString name="orn.022">
          -143 171 220 rmoveto
          98 80 83 40 40 -80 83 -98 -81 -42 -55 -68 -68 42 -55 81 hvcurveto
          endchar
        </CharString>
        <CharString name="oslash">
          -19 403 486 -69 callsubr
        </CharString>
        <CharString name="oslashacute">
          -19 367 738 -65 callgsubr
          137 -119 -69 callsubr
        </CharString>
        <CharString name="otilde">
          -19 408 743 -107 callsubr
          -151 -751 -102 callsubr
        </CharString>
        <CharString name="p">
          -5 87 -197 rmoveto
          35 268 4 hlineto
          -58 21 50 -21 86 hhcurveto
          -8 callgsubr
          -70 -67 -11 -77 -24 hvcurveto
          -38 callgsubr
          hlineto
          187 -486 rmoveto
          -77 -45 24 67 -20 hvcurveto
          -9 31 -1 47 62 vvcurveto
          60 0 47 12 42 vhcurveto
          59 17 46 23 -21 callsubr
        </CharString>
        <CharString name="paragraph">
          -48 267 -144 rmoveto
          36 832 -36 hlineto
          -197 -10 -31 -203 -203 10 -29 197 hvcurveto
          94 -366 rmoveto
          36 832 -36 hlineto
          endchar
        </CharString>
        <CharString name="parenleft">
          -281 201 -150 rmoveto
          34 hlineto
          -79 115 -41 54 278 vvcurveto
          278 41 53 79 115 vhcurveto
          -34 hlineto
          -90 -126 -31 -58 -262 vvcurveto
          -263 30 -58 91 -126 vhcurveto
          endchar
        </CharString>
        <CharString name="parenleft.ss02">
          6 callgsubr
          -204 145 -144 207 hvcurveto
          endchar
        </CharString>
        <CharString name="parenright">
          -281 17 -150 rmoveto
          33 hlineto
          91 126 30 58 263 vvcurveto
          262 -30 58 -91 126 vhcurveto
          -33 hlineto
          79 -115 40 -53 -278 vvcurveto
          -278 -40 -54 -79 -115 vhcurveto
          endchar
        </CharString>
        <CharString name="parenright.ss02">
          -135 0 vmoveto
          207 145 144 204 13 callgsubr
          hvcurveto
          endchar
        </CharString>
        <CharString name="partialdiff">
          16 callsubr
          39 -2 37 -7 67 hvcurveto
          -12 105 -59 143 -89 73 rrcurveto
          -42 -4 hlineto
          85 -75 41 -84 28 -96 -5 -2 rcurveline
          -37 callsubr
        </CharString>
        <CharString name="percent">
          169 176 311 17 callsubr
          -107 -12 -31 -162 -162 12 -30 107 hvcurveto
          -40 -311 rmoveto
          39 hlineto
          390 -32 callsubr
          -39 hlineto
          -350 -344 rmoveto
          -75 -10 6 153 154 10 6 75 79 5 -6 -154 -153 -10 -6 -74 hvcurveto
          350 -352 17 callsubr
          -106 -12 -31 -162 -162 12 -30 106 hvcurveto
          33 vmoveto
          -74 -10 6 153 154 10 6 74 80 5 -6 -154 -153 -10 -6 -75 hvcurveto
          endchar
        </CharString>
        <CharString name="period">
          -364 61 hmoveto
          46 65 -46 hlineto
          endchar
        </CharString>
        <CharString name="periodcentered">
          -364 61 267 -79 callgsubr
        </CharString>
        <CharString name="perthousand">
          293 161 360 rmoveto
          -29 callgsubr
          -91 -360 rmoveto
          38 hlineto
          398 -32 callsubr
          -37 hlineto
          -308 -296 rmoveto
          -63 -8 4 132 131 8 4 63 66 5 -4 -131 -132 -9 -4 -62 hvcurveto
          255 -400 rmoveto
          -29 callgsubr
          248 hmoveto
          -29 callgsubr
          -248 33 rmoveto
          -5 callgsubr
          248 hmoveto
          -5 callgsubr
          endchar
        </CharString>
        <CharString name="pi">
          -7 403 hmoveto
          35 510 -351 -510 35 478 281 hlineto
          endchar
        </CharString>
        <CharString name="plus">
          -18 240 63 rmoveto
          32 174 175 32 -175 174 -32 -174 -173 -32 173 hlineto
          endchar
        </CharString>
        <CharString name="plusminus">
          -18 240 189 rmoveto
          32 174 175 32 -175 175 -32 -175 -173 -32 173 hlineto
          -173 -348 rmoveto
          -6 callsubr
          endchar
        </CharString>
        <CharString name="product">
          106 504 -190 rmoveto
          36 878 -441 -878 35 844 370 hlineto
          endchar
        </CharString>
        <CharString name="q">
          -5 405 -197 rmoveto
          35 707 -27 hlineto
          -4 -80 rlineto
          -4 hlineto
          77 -24 -67 11 -70 hhcurveto
          -150 -29 -49 -214 -214 28 -49 151 86 50 21 58 21 -26 callsubr
          -152 -47 -51 callgsubr
          133 77 46 -23 -53 15 hvcurveto
          14 -48 0 -47 -60 vvcurveto
          -62 -1 -47 -11 -37 vhcurveto
          -61 -18 -45 -24 -77 hhcurveto
          endchar
        </CharString>
        <CharString name="question">
          -52 callgsubr
        </CharString>
        <CharString name="question.case">
          -52 callgsubr
        </CharString>
        <CharString name="questiondown">
          -163 242 445 -50 callsubr
        </CharString>
        <CharString name="questiondown.case">
          -107 249 623 -50 callsubr
        </CharString>
        <CharString name="quotedbl">
          -278 11 callgsubr
          109 -145 rmoveto
          23 hlineto
          8 145 rlineto
          89 -39 -89 vlineto
          endchar
        </CharString>
        <CharString name="quotedblbase">
          -246 32 -80 rmoveto
          -63 callgsubr
          117 hmoveto
          -21 vlineto
          62 14 19 72 hvcurveto
          75 -47 -65 20 -17 vlineto
          -49 -4 -14 -45 vhcurveto
          endchar
        </CharString>
        <CharString name="quotedblleft">
          -255 54 522 rmoveto
          48 -8 callsubr
          -15 -19 -72 hvcurveto
          118 -75 rmoveto
          47 -8 callsubr
          -14 -19 -72 hvcurveto
          endchar
        </CharString>
        <CharString name="quotedblright">
          -255 29 543 -85 callsubr
          118 hmoveto
          -63 callgsubr
          endchar
        </CharString>
        <CharString name="quoteleft">
          -373 54 522 rmoveto
          48 -8 callsubr
          -15 -19 -72 hvcurveto
          endchar
        </CharString>
        <CharString name="quoteright">
          -373 29 543 -85 callsubr
          endchar
        </CharString>
        <CharString name="quotesinglbase">
          -364 32 -80 rmoveto
          -63 callgsubr
          endchar
        </CharString>
        <CharString name="quotesingle">
          -379 11 callgsubr
          endchar
        </CharString>
        <CharString name="r">
          -20 callsubr
          endchar
        </CharString>
        <CharString name="racute">
          -227 136 -80 callsubr
          -49 -610 rmoveto
          -73 callsubr
          endchar
        </CharString>
        <CharString name="radical">
          -24 254 -106 rmoveto
          40 hlineto
          199 876 rlineto
          -36 hlineto
          -187 -828 -161 375 -86 -39 12 -30 54 24 rlineto
          endchar
        </CharString>
        <CharString name="rcaron">
          -227 130 605 -98 callsubr
          51 -738 rmoveto
          -73 callsubr
          endchar
        </CharString>
        <CharString name="rcommaaccent">
          -20 callsubr
          -20 -717 -85 callsubr
          endchar
        </CharString>
        <CharString name="registered">
          115 324 696 rmoveto
          15 callgsubr
          15 callsubr
          hvcurveto
          -678 -16 callsubr
          119 403 rmoveto
          53 -4 55 -87 vhcurveto
          -138 -372 30 154 105 hlineto
          4 4 0 1 4 hvcurveto
          54 -155 rlineto
          35 hlineto
          -58 160 rlineto
          44 16 7 44 44 vvcurveto
          -99 -80 rmoveto
          -100 158 106 hlineto
          59 3 -31 -47 -48 -4 -32 -64 hvcurveto
          endchar
        </CharString>
        <CharString name="rightCloseDialog">
          91 624 688 rmoveto
          -625 -60 565 -568 -190 hlineto
          -188 -187 rlineto
          -85 vlineto
          213 212 rlineto
          225 hlineto
          -438 60 rmoveto
          -187 -60 187 hlineto
          endchar
        </CharString>
        <CharString name="rightOpenDialog">
          92 625 688 rmoveto
          -626 -60 566 -568 -566 -60 626 hlineto
          endchar
        </CharString>
        <CharString name="ring">
          -288 122 -53 callgsubr
          endchar
        </CharString>
        <CharString name="s">
          -61 callsubr
          endchar
        </CharString>
        <CharString name="sacute">
          -91 203 -80 callsubr
          18 -618 -97 callsubr
          endchar
        </CharString>
        <CharString name="sacute.loclPLK">
          -91 203 605 -71 callsubr
          18 -618 -97 callsubr
          endchar
        </CharString>
        <CharString name="scaron">
          -91 200 605 -98 callsubr
          115 -746 -97 callsubr
          endchar
        </CharString>
        <CharString name="scedilla">
          -91 386 133 rmoveto
          109 -21 19 -80 9 vhcurveto
          -125 14 rlineto
          -54 6 -16 9 81 vvcurveto
          97 51 9 73 59 42 -4 -9 46 vhcurveto
          33 vlineto
          7 -35 -56 5 -41 hhcurveto
          -110 -64 -15 -130 -85 21 -30 77 -9 hvcurveto
          130 -14 rlineto
          52 -6 16 -4 -92 vvcurveto
          -73 -15 -36 -103 -61 -34 3 9 -69 -41 callgsubr
          34 -5 54 -5 46 -1 -53 -177 rcurveline
          -5 40 vlineto
          42 182 rlineto
          110 2 44 30 109 vvcurveto
          endchar
        </CharString>
        <CharString name="scircumflex">
          -91 103 605 -106 callgsubr
          118 -618 -97 callsubr
          endchar
        </CharString>
        <CharString name="scommaaccent">
          -61 callsubr
          -39 -199 -85 callsubr
          endchar
        </CharString>
        <CharString name="second">
          -261 48 394 -7 callgsubr
          101 -294 -7 callgsubr
          endchar
        </CharString>
        <CharString name="section">
          76 283 -171 rmoveto
          122 69 24 123 46 -4 35 -25 27 hvcurveto
          86 6 14 78 73 vvcurveto
          101 -36 19 -106 31 vhcurveto
          -147 43 rlineto
          -70 19 -15 17 83 vvcurveto
          98 62 10 92 47 61 -5 -6 39 vhcurveto
          33 vlineto
          7 -33 -62 5 -51 hhcurveto
          -123 -69 -24 -123 -46 4 -36 25 -26 hvcurveto
          -86 -7 -14 -77 -73 vvcurveto
          -101 36 -19 115 -33 vhcurveto
          155 -45 rlineto
          53 -15 16 -17 -83 vvcurveto
          -98 -62 -10 -93 -47 -61 5 6 -38 -41 callgsubr
          -7 33 61 -5 52 hhcurveto
          148 280 rmoveto
          -12 -13 4 8 -29 hvcurveto
          -214 60 rlineto
          -49 15 -15 16 82 vvcurveto
          86 33 35 46 11 13 -4 -9 33 vhcurveto
          222 -63 rlineto
          38 -11 14 -16 -83 vvcurveto
          -86 -32 -34 -46 vhcurveto
          endchar
        </CharString>
        <CharString name="semicolon">
          21 callgsubr
          -29 -590 rmoveto
          -63 callgsubr
          endchar
        </CharString>
        <CharString name="seven">
          -53 134 hmoveto
          39 hlineto
          259 659 rlineto
          29 -395 -34 355 vlineto
          endchar
        </CharString>
        <CharString name="seven.dnom">
          -245 75 hmoveto
          7 callgsubr
        </CharString>
        <CharString name="seven.numr">
          -245 75 308 rmoveto
          7 callgsubr
        </CharString>
        <CharString name="seven.tnum">
          43 182 hmoveto
          40 hlineto
          278 659 rlineto
          29 -428 -34 387 vlineto
          endchar
        </CharString>
        <CharString name="seveneighths">
          185 92 hmoveto
          -33 callsubr
          -407 -380 rmoveto
          38 hlineto
          148 349 rlineto
          28 -239 -32 201 vlineto
          319 -657 -96 callsubr
        </CharString>
        <CharString name="six">
          31 303 10 callgsubr
          -124 -38 -24 -28 -20 hvcurveto
          -5 hlineto
          269 22 48 184 44 65 -5 -7 48 vhcurveto
          32 vlineto
          8 -56 -67 6 -41 hhcurveto
          -127 -63 -26 -96 -28 hvcurveto
          -15 -50 -2 -80 -110 vvcurveto
          -114 1 -76 11 -37 vhcurveto
          -100 29 -5 callsubr
          29 -10 -162 -146 -34 -19 -144 hvcurveto
          endchar
        </CharString>
        <CharString name="six.dnom">
          -199 178 -4 -57 callsubr
        </CharString>
        <CharString name="six.numr">
          -199 178 304 -57 callsubr
        </CharString>
        <CharString name="six.ss01">
          41 288 -8 rmoveto
          171 50 52 152 167 -46 35 -155 -111 -44 -13 -28 -24 hvcurveto
          -5 1 33 102 71 101 135 122 rlinecurve
          -52 callsubr
          -174 -157 -80 -151 -169 vvcurveto
          -182 54 -37 169 vhcurveto
          -1 34 rmoveto
          -139 -47 19 170 128 59 21 127 132 54 0 -169 -135 -38 -34 -148 hvcurveto
          endchar
        </CharString>
        <CharString name="six.tnum">
          43 299 10 callgsubr
          -104 -53 -16 -36 -25 hvcurveto
          -6 hlineto
          269 23 48 184 46 64 -5 -7 47 vhcurveto
          32 vlineto
          8 -52 -68 6 -44 hhcurveto
          -122 -64 -23 -84 -28 hvcurveto
          -19 -55 -2 -83 -117 vvcurveto
          -114 1 -76 13 -44 vhcurveto
          -93 27 -5 callsubr
          28 -10 -162 -146 -33 -19 -144 hvcurveto
          endchar
        </CharString>
        <CharString name="slash">
          -234 10 -55 rmoveto
          36 hlineto
          242 798 rlineto
          -37 hlineto
          endchar
        </CharString>
        <CharString name="space">
          -326 endchar
        </CharString>
        <CharString name="sterling">
          -21 154 34 rmoveto
          307 233 34 -233 31 vlineto
          111 8 90 48 32 vhcurveto
          19 29 43 4 60 hhcurveto
          30 48 -5 -6 32 hvcurveto
          32 vlineto
          8 -27 -50 5 -42 hhcurveto
          -177 -38 -60 -233 hvcurveto
          -28 -65 -34 65 -307 -65 -34 410 34 vlineto
          endchar
        </CharString>
        <CharString name="summation">
          86 89 -190 rmoveto
          441 34 -397 hlineto
          281 405 -281 405 rlineto
          397 34 -441 -30 hlineto
          281 -409 -281 -409 rlineto
          endchar
        </CharString>
        <CharString name="t">
          -240 121 hmoveto
          -36 callgsubr
          endchar
        </CharString>
        <CharString name="tbar">
          -240 265 478 rmoveto
          32 -109 148 -35 -148 -94 -32 94 -195 -88 -32 88 -251 35 251 107 32 -107 195 vlineto
          endchar
        </CharString>
        <CharString name="tcaron">
          -240 301 454 -27 callgsubr
          -192 -599 rmoveto
          -36 callgsubr
          endchar
        </CharString>
        <CharString name="thorn">
          -5 87 -190 rmoveto
          35 261 4 hlineto
          -58 21 50 -21 86 hhcurveto
          -8 callgsubr
          -86 -50 -21 -58 -21 hvcurveto
          -4 304 -35 hlineto
          187 -719 rmoveto
          -77 -45 24 71 -21 hvcurveto
          -8 27 -1 47 62 vvcurveto
          60 0 47 11 37 vhcurveto
          64 18 46 23 -21 callsubr
        </CharString>
        <CharString name="three">
          -22 219 5 callgsubr
          64 15 39 46 100 vvcurveto
          131 -49 50 -162 -50 -69 -6 -8 -47 vhcurveto
          -32 vlineto
          7 47 65 5 44 hhcurveto
          126 59 -20 -129 -120 -67 -27 -57 hvcurveto
          -117 -34 117 hlineto
          93 38 20 callsubr
          -70 5 7 -59 hvcurveto
          -32 vlineto
          -8 48 70 -6 51 hhcurveto
          endchar
        </CharString>
        <CharString name="three.dnom">
          -227 132 -4 -72 callgsubr
          endchar
        </CharString>
        <CharString name="three.numr">
          -227 132 304 -72 callgsubr
          endchar
        </CharString>
        <CharString name="three.tnum">
          43 262 5 callgsubr
          65 15 38 46 100 vvcurveto
          131 -49 50 -162 -49 -70 -6 -8 -47 vhcurveto
          -32 vlineto
          7 48 64 5 45 hhcurveto
          126 58 -20 -129 -120 -66 -27 -58 hvcurveto
          -117 -34 117 hlineto
          94 37 20 callsubr
          -69 5 7 -59 hvcurveto
          -32 vlineto
          -8 47 71 -6 50 hhcurveto
          endchar
        </CharString>
        <CharString name="threeeighths">
          246 132 304 -72 callgsubr
          21 -304 -7 callsubr
          60 -692 -96 callsubr
        </CharString>
        <CharString name="threequarters">
          161 57 350 rmoveto
          -31 vlineto
          -5 30 39 -3 27 hhcurveto
          -4 callgsubr
          -90 -27 -40 -4 -5 -28 vhcurveto
          -31 vlineto
          4 31 36 3 22 hhcurveto
          60 29 -11 -60 -10 callgsubr
          42 19 -23 -53 -62 -34 -10 -54 -19 -32 3 4 -45 hvcurveto
          100 -350 rmoveto
          39 hlineto
          390 -32 callsubr
          -38 hlineto
          7 21 callsubr
          -33 -158 -139 hlineto
          121 7 callsubr
        </CharString>
        <CharString name="tilde">
          -200 318 743 -107 callsubr
          endchar
        </CharString>
        <CharString name="tildecomb">
          -14 743 -107 callsubr
          endchar
        </CharString>
        <CharString name="tildecomb.case">
          -14 888 -107 callsubr
          endchar
        </CharString>
        <CharString name="trademark">
          96 122 384 rmoveto
          22 283 87 21 -195 -21 86 hlineto
          163 -283 rmoveto
          21 248 4 hlineto
          96 -248 rlineto
          20 hlineto
          95 249 rlineto
          4 -249 23 304 -28 hlineto
          -101 -265 rlineto
          -4 hlineto
          -102 265 rlineto
          -28 hlineto
          endchar
        </CharString>
        <CharString name="two">
          -9 103 100 rmoveto
          50 0 29 6 25 vhcurveto
          6 20 12 14 23 11 197 98 rcurveline
          82 41 27 9 callsubr
          -46 vhcurveto
          -32 vlineto
          6 56 79 5 46 hhcurveto
          128 -14 callsubr
          389 34 -353 vlineto
          endchar
        </CharString>
        <CharString name="two.dnom">
          -220 73 61 -54 callsubr
        </CharString>
        <CharString name="two.numr">
          -220 73 369 -54 callsubr
        </CharString>
        <CharString name="two.tnum">
          43 131 100 rmoveto
          47 0 28 6 25 vhcurveto
          5 22 13 15 23 12 198 98 rcurveline
          82 41 26 9 callsubr
          -45 vhcurveto
          -32 vlineto
          6 56 78 5 46 hhcurveto
          129 -14 callsubr
          388 34 -353 vlineto
          endchar
        </CharString>
        <CharString name="u">
          0 418 hmoveto
          28 -28 callgsubr
          -102 callgsubr
          endchar
        </CharString>
        <CharString name="uacute">
          0 248 -80 callsubr
          170 -610 rmoveto
          28 -28 callgsubr
          -102 callgsubr
          endchar
        </CharString>
        <CharString name="ubreve">
          0 382 -74 callgsubr
          36 -743 rmoveto
          28 -28 callgsubr
          -102 callgsubr
          endchar
        </CharString>
        <CharString name="ucircumflex">
          0 149 605 -106 callgsubr
          269 -610 rmoveto
          28 -28 callgsubr
          -102 callgsubr
          endchar
        </CharString>
        <CharString name="udieresis">
          0 156 -55 callgsubr
          85 -731 rmoveto
          28 -28 callgsubr
          -102 callgsubr
          endchar
        </CharString>
        <CharString name="ugrave">
          0 265 605 -89 callsubr
          254 -738 rmoveto
          28 -28 callgsubr
          -102 callgsubr
          endchar
        </CharString>
        <CharString name="uhorn">
          0 512 608 rmoveto
          -37 vlineto
          -46 -4 -15 -44 vhcurveto
          -53 -102 callgsubr
          3 -80 rlineto
          28 482 18 hlineto
          -34 callgsubr
          vlineto
          endchar
        </CharString>
        <CharString name="uhungarumlaut">
          0 179 607 -78 callgsubr
          77 -612 rmoveto
          28 -28 callgsubr
          -102 callgsubr
          endchar
        </CharString>
        <CharString name="umacron">
          0 162 706 -63 callsubr
          256 -742 rmoveto
          28 -28 callgsubr
          -102 callgsubr
          endchar
        </CharString>
        <CharString name="underscore">
          -212 -160 19 callsubr
          endchar
        </CharString>
        <CharString name="underscoredbl">
          -212 -160 19 callsubr
          -121 19 callsubr
          endchar
        </CharString>
        <CharString name="uni00AD">
          11 callsubr
        </CharString>
        <CharString name="uni00B2">
          -212 82 378 rmoveto
          -45 callsubr
          33 -187 vlineto
          endchar
        </CharString>
        <CharString name="uni00B3">
          -220 139 311 rmoveto
          -4 callgsubr
          -91 -26 -40 -4 -5 -28 vhcurveto
          -31 vlineto
          4 31 35 3 23 hhcurveto
          60 29 -11 -60 -10 callgsubr
          42 19 -23 -53 -62 -34 -10 -55 -18 -32 3 4 -45 hvcurveto
          -31 vlineto
          -5 30 39 -3 27 hhcurveto
          endchar
        </CharString>
        <CharString name="uni00B5">
          -42 callgsubr
        </CharString>
        <CharString name="uni00B9">
          -324 104 319 rmoveto
          33 369 -25 hlineto
          -75 -45 rlineto
          -33 vlineto
          67 35 rlineto
          endchar
        </CharString>
        <CharString name="uni0162">
          -32 32 688 rmoveto
          -34 200 -654 12 callgsubr
          5 654 200 34 hlineto
          endchar
        </CharString>
        <CharString name="uni0163">
          -240 156 510 rmoveto
          148 -35 -148 -94 -32 94 -478 12 callgsubr
          4 478 109 32 hlineto
          endchar
        </CharString>
        <CharString name="uni018F">
          83 295 696 rmoveto
          -51 -64 -7 -10 -39 hvcurveto
          -34 vlineto
          10 38 60 7 45 hhcurveto
          192 25 -27 -270 1 hvcurveto
          -425 -21 hlineto
          -310 16 -42 214 215 16 42 310 315 -36 37 -207 vhcurveto
          12 -670 rmoveto
          -172 -21 9 296 -1 hvcurveto
          389 hlineto
          -296 -1 -21 -9 -173 hhcurveto
          endchar
        </CharString>
        <CharString name="uni019D">
          106 505 688 rmoveto
          -613 -4 vlineto
          -365 613 rlineto
          -37 -798 hlineto
          -45 -8 -12 -81 vhcurveto
          -30 vlineto
          84 40 5 92 hvcurveto
          713 4 vlineto
          364 -613 rlineto
          38 688 hlineto
          endchar
        </CharString>
        <CharString name="uni01C4">
          580 833 750 -98 callsubr
          -640 -883 rmoveto
          -49 callsubr
        </CharString>
        <CharString name="uni01C5">
          498 802 605 -98 callsubr
          -609 -738 rmoveto
          -76 callsubr
          379 -34 rmoveto
          -80 callgsubr
          endchar
        </CharString>
        <CharString name="uni01C6">
          426 -76 callgsubr
          477 613 -98 callsubr
          -55 -738 rmoveto
          -80 callgsubr
          -319 -4 -72 callsubr
          endchar
        </CharString>
        <CharString name="uni01C7">
          203 99 hmoveto
          -33 callgsubr
          390 -654 -69 callgsubr
        </CharString>
        <CharString name="uni01C8">
          136 543 9 callgsubr
          -444 -743 rmoveto
          -33 callgsubr
          358 -885 -70 callsubr
        </CharString>
        <CharString name="uni01C9">
          -114 -6 callgsubr
          206 -61 -18 callsubr
          -86 -940 -70 callsubr
        </CharString>
        <CharString name="uni01CA">
          382 502 hmoveto
          -78 callsubr
          530 -579 -69 callgsubr
        </CharString>
        <CharString name="uni01CB">
          315 722 9 callgsubr
          -220 -743 rmoveto
          -78 callsubr
          498 -810 -70 callsubr
        </CharString>
        <CharString name="uni01CC">
          209 616 9 callgsubr
          -204 -743 rmoveto
          -84 callsubr
          118 -512 -70 callsubr
        </CharString>
        <CharString name="uni01CD">
          58 273 750 -98 callsubr
          340 -883 -99 callsubr
        </CharString>
        <CharString name="uni01CD.ss01">
          89 288 750 -98 callsubr
          301 -883 -101 callgsubr
        </CharString>
        <CharString name="uni01CE">
          -29 229 605 -98 callsubr
          83 -746 -107 callgsubr
          endchar
        </CharString>
        <CharString name="uni01CF">
          -296 95 750 -98 callsubr
          99 -883 -40 callgsubr
        </CharString>
        <CharString name="uni01D0">
          -323 82 605 -98 callsubr
          99 -738 -40 callsubr
        </CharString>
        <CharString name="uni01D1">
          96 291 750 -98 callsubr
          117 -891 -104 callgsubr
          endchar
        </CharString>
        <CharString name="uni01D2">
          -19 234 605 -98 callsubr
          117 -746 -102 callsubr
        </CharString>
        <CharString name="uni01D3">
          89 288 750 -98 callsubr
          301 -195 rmoveto
          -424 vlineto
          -101 callsubr
          394 vlineto
          endchar
        </CharString>
        <CharString name="uni01D4">
          0 243 605 -98 callsubr
          269 -738 rmoveto
          28 -28 callgsubr
          -102 callgsubr
          endchar
        </CharString>
        <CharString name="uni01D5">
          89 209 979 -63 callsubr
          -8 -200 -30 callsubr
          -188 rmoveto
          -424 vlineto
          -101 callsubr
          394 vlineto
          endchar
        </CharString>
        <CharString name="uni01D6">
          0 164 867 -63 callsubr
          -8 -233 -86 callgsubr
          85 -731 rmoveto
          28 -28 callgsubr
          -102 callgsubr
          endchar
        </CharString>
        <CharString name="uni01D7">
          89 295 878 -98 callgsubr
          -94 -68 -30 callsubr
          -188 rmoveto
          -424 vlineto
          -101 callsubr
          394 vlineto
          endchar
        </CharString>
        <CharString name="uni01D8">
          0 251 766 -98 callgsubr
          -95 -101 -86 callgsubr
          85 -731 rmoveto
          28 -28 callgsubr
          -102 callgsubr
          endchar
        </CharString>
        <CharString name="uni01D9">
          89 290 878 -98 callsubr
          5 -196 -30 callsubr
          -188 rmoveto
          -424 vlineto
          -101 callsubr
          394 vlineto
          endchar
        </CharString>
        <CharString name="uni01DA">
          0 245 766 -98 callsubr
          5 -229 -86 callgsubr
          85 -731 rmoveto
          28 -28 callgsubr
          -102 callgsubr
          endchar
        </CharString>
        <CharString name="uni01DB">
          89 309 878 -89 callsubr
          -7 -196 -30 callsubr
          -188 rmoveto
          -424 vlineto
          -101 callsubr
          394 vlineto
          endchar
        </CharString>
        <CharString name="uni01DC">
          0 264 766 -89 callsubr
          -7 -229 -86 callgsubr
          85 -731 rmoveto
          28 -28 callgsubr
          -102 callgsubr
          endchar
        </CharString>
        <CharString name="uni01EA">
          96 435 -25 callgsubr
          21 23 48 43 63 46 27 hvcurveto
          63 38 6 88 200 vvcurveto
          310 -16 42 -221 -220 -17 -42 -310 -310 17 -42 220 45 37 2 5 29 vhcurveto
          -40 -39 -26 -45 -42 vvcurveto
          -37 21 -32 55 vhcurveto
          -121 222 rmoveto
          -96 callgsubr
          endchar
        </CharString>
        <CharString name="uni01EB">
          -19 257 518 rmoveto
          -180 -12 -47 -217 -217 12 -45 180 36 29 2 4 24 hvcurveto
          -31 -36 -22 -47 -40 vvcurveto
          -40 21 -31 -62 callsubr
          -35 -12 20 26 47 40 66 33 26 hvcurveto
          43 33 5 68 132 vvcurveto
          217 -12 47 -179 vhcurveto
          -494 vmoveto
          -155 -2 35 195 195 2 37 155 154 2 -37 -195 -195 -2 -35 -154 hvcurveto
          endchar
        </CharString>
        <CharString name="uni01F1">
          580 99 hmoveto
          -49 callsubr
        </CharString>
        <CharString name="uni01F2">
          498 99 hmoveto
          -76 callsubr
          379 -34 rmoveto
          -80 callgsubr
          endchar
        </CharString>
        <CharString name="uni01F3">
          426 -76 callgsubr
          328 8 rmoveto
          -80 callgsubr
          -319 -4 -72 callsubr
          endchar
        </CharString>
        <CharString name="uni01F4">
          55 276 750 -98 callgsubr
          193 -440 -93 callgsubr
          endchar
        </CharString>
        <CharString name="uni01F4.ss01">
          71 284 750 -98 callgsubr
          37 -763 -94 callgsubr
          endchar
        </CharString>
        <CharString name="uni01F5">
          -5 247 -80 callsubr
          -5 -813 rmoveto
          -100 callgsubr
        </CharString>
        <CharString name="uni0200">
          58 236 752 -95 callsubr
          147 -752 -99 callsubr
        </CharString>
        <CharString name="uni0200.ss01">
          89 251 752 -95 callsubr
          108 -752 -101 callgsubr
        </CharString>
        <CharString name="uni0201">
          -29 192 607 -95 callsubr
          -110 -615 -107 callgsubr
          endchar
        </CharString>
        <CharString name="uni0202">
          58 180 753 -88 callgsubr
          339 -753 -99 callsubr
        </CharString>
        <CharString name="uni0202.ss01">
          89 195 753 -88 callgsubr
          300 -753 -101 callgsubr
        </CharString>
        <CharString name="uni0203">
          -29 136 608 -88 callgsubr
          82 -616 -107 callgsubr
          endchar
        </CharString>
        <CharString name="uni0204">
          -15 224 752 -95 callsubr
          -261 -752 rmoveto
          -91 callsubr
          endchar
        </CharString>
        <CharString name="uni0205">
          -34 189 607 -95 callsubr
          107 -351 -105 callgsubr
          endchar
        </CharString>
        <CharString name="uni0206">
          -15 168 753 -88 callgsubr
          -69 -753 rmoveto
          -91 callsubr
          endchar
        </CharString>
        <CharString name="uni0207">
          -34 250 721 -39 callsubr
          182 -465 -105 callgsubr
          endchar
        </CharString>
        <CharString name="uni0208">
          -296 58 752 -95 callsubr
          -94 -752 -40 callgsubr
        </CharString>
        <CharString name="uni0209">
          -323 45 607 -95 callsubr
          -94 -607 -40 callsubr
        </CharString>
        <CharString name="uni020A">
          -296 2 753 -88 callgsubr
          98 -753 -40 callgsubr
        </CharString>
        <CharString name="uni020B">
          -323 -11 608 -88 callgsubr
          98 -608 -40 callsubr
        </CharString>
        <CharString name="uni020C">
          96 254 752 -95 callsubr
          -76 -760 -104 callgsubr
          endchar
        </CharString>
        <CharString name="uni020D">
          -19 197 607 -95 callsubr
          -76 -615 -102 callsubr
        </CharString>
        <CharString name="uni020E">
          96 198 753 -88 callgsubr
          116 -761 -104 callgsubr
          endchar
        </CharString>
        <CharString name="uni020F">
          -19 141 608 -88 callgsubr
          116 -616 -102 callsubr
        </CharString>
        <CharString name="uni0210">
          61 237 752 -95 callsubr
          153 -752 rmoveto
          -91 callgsubr
          endchar
        </CharString>
        <CharString name="uni0210.ss01">
          67 239 752 -95 callsubr
          137 -581 -94 callsubr
          endchar
        </CharString>
        <CharString name="uni0211">
          -227 93 607 -95 callsubr
          -142 -607 rmoveto
          -73 callsubr
          endchar
        </CharString>
        <CharString name="uni0212">
          61 298 866 -39 callsubr
          228 -866 rmoveto
          -91 callgsubr
          endchar
        </CharString>
        <CharString name="uni0212.ss01">
          67 300 866 -39 callsubr
          212 -695 -94 callsubr
          endchar
        </CharString>
        <CharString name="uni0213">
          -227 37 608 -88 callgsubr
          50 -608 rmoveto
          -73 callsubr
          endchar
        </CharString>
        <CharString name="uni0214">
          89 251 752 -95 callsubr
          108 -64 rmoveto
          -424 vlineto
          -101 callsubr
          394 vlineto
          endchar
        </CharString>
        <CharString name="uni0215">
          0 206 607 -95 callsubr
          76 -607 rmoveto
          28 -28 callgsubr
          -102 callgsubr
          endchar
        </CharString>
        <CharString name="uni0216">
          89 195 753 -88 callgsubr
          300 -65 rmoveto
          -424 vlineto
          -101 callsubr
          394 vlineto
          endchar
        </CharString>
        <CharString name="uni0217">
          0 150 608 -88 callgsubr
          268 -608 rmoveto
          28 -28 callgsubr
          -102 callgsubr
          endchar
        </CharString>
        <CharString name="uni021A">
          -19 callgsubr
          -20 -861 -85 callsubr
          endchar
        </CharString>
        <CharString name="uni021B">
          -240 121 hmoveto
          -36 callgsubr
          -20 -685 -85 callsubr
          endchar
        </CharString>
        <CharString name="uni0232">
          -20 153 851 -63 callsubr
          85 -887 rmoveto
          -83 callgsubr
          endchar
        </CharString>
        <CharString name="uni0232.loclGUA">
          -21 357 887 20 callgsubr
          83 -163 -92 callsubr
          endchar
        </CharString>
        <CharString name="uni0233">
          0 162 706 -63 callsubr
          84 -945 -97 callgsubr
          endchar
        </CharString>
        <CharString name="uni0233.loclGUA">
          -71 340 742 20 callgsubr
          54 -196 -83 callsubr
          endchar
        </CharString>
        <CharString name="uni0237">
          -323 -2 -197 -70 callsubr
        </CharString>
        <CharString name="uni0259">
          -34 239 518 rmoveto
          -57 -65 -5 -8 -34 hvcurveto
          -33 vlineto
          8 41 63 6 48 hhcurveto
          147 16 -42 -177 hvcurveto
          -332 -13 hlineto
          -204 10 -58 162 189 6 65 199 210 -25 52 -169 vhcurveto
          1 -494 rmoveto
          -109 -30 19 171 hvcurveto
          21 297 vlineto
          -183 -16 -28 -142 vhcurveto
          endchar
        </CharString>
        <CharString name="uni0272">
          0 -2 -197 rmoveto
          84 40 5 92 hvcurveto
          365 vlineto
          122 0 99 152 116 22 -23 -148 vhcurveto
          -315 35 320 vlineto
          -47 callsubr
          -33 -43 -45 -14 vhcurveto
          -38 callgsubr
          -620 hlineto
          -45 -8 -12 -81 vhcurveto
          endchar
        </CharString>
        <CharString name="uni02BC">
          -441 4 598 rmoveto
          -63 callgsubr
          endchar
        </CharString>
        <CharString name="uni02C9">
          -200 63 706 -63 callsubr
          endchar
        </CharString>
        <CharString name="uni0302">
          -248 605 -106 callgsubr
          endchar
        </CharString>
        <CharString name="uni0302.case">
          -248 750 -106 callgsubr
          endchar
        </CharString>
        <CharString name="uni03020300">
          -35 743 -89 callsubr
          -112 -271 -106 callgsubr
          endchar
        </CharString>
        <CharString name="uni03020300.case">
          -35 885 -89 callsubr
          -112 -271 -106 callgsubr
          endchar
        </CharString>
        <CharString name="uni03020301">
          -58 743 -98 callgsubr
          -190 -143 -106 callgsubr
          endchar
        </CharString>
        <CharString name="uni03020301.case">
          -58 885 -98 callgsubr
          -190 -143 -106 callgsubr
          endchar
        </CharString>
        <CharString name="uni03020303">
          23 916 -107 callsubr
          -271 -311 -106 callgsubr
          endchar
        </CharString>
        <CharString name="uni03020303.case">
          23 1059 -107 callsubr
          -271 -311 -106 callgsubr
          endchar
        </CharString>
        <CharString name="uni03020309">
          -87 743 -104 callsubr
          -161 -148 -106 callgsubr
          endchar
        </CharString>
        <CharString name="uni03020309.case">
          -87 886 -104 callsubr
          -161 -149 -106 callgsubr
          endchar
        </CharString>
        <CharString name="uni0304">
          -269 706 -63 callsubr
          endchar
        </CharString>
        <CharString name="uni0304.case">
          -269 851 -63 callsubr
          endchar
        </CharString>
        <CharString name="uni0306">
          -14 -74 callgsubr
          endchar
        </CharString>
        <CharString name="uni0306.case">
          -14 -79 callsubr
          endchar
        </CharString>
        <CharString name="uni03060300">
          -132 778 -31 callsubr
        </CharString>
        <CharString name="uni03060300.case">
          -132 923 -31 callsubr
        </CharString>
        <CharString name="uni03060301">
          -145 778 -56 callgsubr
          endchar
        </CharString>
        <CharString name="uni03060301.case">
          -145 -60 callgsubr
          endchar
        </CharString>
        <CharString name="uni03060303">
          24 916 -107 callsubr
          -38 -173 -103 callgsubr
          endchar
        </CharString>
        <CharString name="uni03060303.case">
          24 1061 -107 callsubr
          -38 -173 -103 callgsubr
          endchar
        </CharString>
        <CharString name="uni03060309">
          -168 743 -58 callgsubr
        </CharString>
        <CharString name="uni03060309.case">
          -168 888 -58 callgsubr
        </CharString>
        <CharString name="uni0307">
          -63 670 -32 callgsubr
          endchar
        </CharString>
        <CharString name="uni0307.case">
          -63 815 -32 callgsubr
          endchar
        </CharString>
        <CharString name="uni0308">
          -241 -55 callgsubr
          endchar
        </CharString>
        <CharString name="uni0308.case">
          -241 815 -86 callgsubr
          endchar
        </CharString>
        <CharString name="uni030A">
          -122 -53 callgsubr
          endchar
        </CharString>
        <CharString name="uni030A.case">
          -122 730 -89 callgsubr
          endchar
        </CharString>
        <CharString name="uni030B">
          -310 607 -78 callgsubr
          endchar
        </CharString>
        <CharString name="uni030B.case">
          -310 752 -78 callgsubr
          endchar
        </CharString>
        <CharString name="uni030C">
          -154 605 -98 callsubr
          endchar
        </CharString>
        <CharString name="uni030C.case">
          -154 750 -98 callsubr
          endchar
        </CharString>
        <CharString name="uni030F">
          -183 607 -95 callsubr
          endchar
        </CharString>
        <CharString name="uni030F.case">
          -183 752 -95 callsubr
          endchar
        </CharString>
        <CharString name="uni0311">
          -246 608 -88 callgsubr
          endchar
        </CharString>
        <CharString name="uni0311.case">
          -246 753 -88 callgsubr
          endchar
        </CharString>
        <CharString name="uni0312">
          -294 -4 callsubr
          endchar
        </CharString>
        <CharString name="uni031B">
          -156 510 rmoveto
          -53 -28 53 hlineto
          -34 callgsubr
          -32 -37 vlineto
          -46 -4 -15 -44 vhcurveto
          endchar
        </CharString>
        <CharString name="uni0326">
          -130 -207 -85 callsubr
          endchar
        </CharString>
        <CharString name="uni0327">
          -104 3 callgsubr
        </CharString>
        <CharString name="uni0328">
          -195 vmoveto
          -28 callsubr
        </CharString>
        <CharString name="uni0335">
          -259 331 rmoveto
          225 36 -225 hlineto
          endchar
        </CharString>
        <CharString name="uni0336">
          -98 494 rmoveto
          36 -441 -36 vlineto
          endchar
        </CharString>
        <CharString name="uni0394">
          -21 callgsubr
        </CharString>
        <CharString name="uni03A9">
          -61 callgsubr
        </CharString>
        <CharString name="uni03BC">
          -42 callgsubr
        </CharString>
        <CharString name="uni1E0C">
          67 99 hmoveto
          -76 callsubr
          12 -161 -79 callgsubr
        </CharString>
        <CharString name="uni1E0D">
          -5 -76 callgsubr
          9 32 -72 callsubr
          -12 -151 -79 callgsubr
        </CharString>
        <CharString name="uni1E24">
          -11 callsubr
          -208 -458 -79 callgsubr
        </CharString>
        <CharString name="uni1E25">
          0 412 hmoveto
          -54 callgsubr
          -169 -442 -79 callgsubr
        </CharString>
        <CharString name="uni1E44">
          106 297 815 -32 callgsubr
          205 -876 rmoveto
          -78 callsubr
          endchar
        </CharString>
        <CharString name="uni1E45">
          0 244 670 -32 callgsubr
          168 -731 rmoveto
          -84 callgsubr
        </CharString>
        <CharString name="uni1E5A">
          -46 callsubr
          -69 -455 -79 callgsubr
        </CharString>
        <CharString name="uni1E5A.ss01">
          -53 callsubr
          -67 -459 -79 callgsubr
        </CharString>
        <CharString name="uni1E5B">
          -20 callsubr
          -5 -637 -79 callgsubr
        </CharString>
        <CharString name="uni1E62">
          -67 callsubr
          -33 -119 -79 callgsubr
        </CharString>
        <CharString name="uni1E63">
          -61 callsubr
          -24 -119 -79 callgsubr
        </CharString>
        <CharString name="uni1E6C">
          -19 callgsubr
          -5 -781 -79 callgsubr
        </CharString>
        <CharString name="uni1E6D">
          -240 121 hmoveto
          -36 callgsubr
          -5 -605 -79 callgsubr
        </CharString>
        <CharString name="uni1E92">
          -19 47 hmoveto
          -74 callsubr
          187 -159 -79 callgsubr
        </CharString>
        <CharString name="uni1E93">
          -101 45 hmoveto
          -80 callgsubr
          147 -155 -79 callgsubr
        </CharString>
        <CharString name="uni1E9E">
          103 397 365 rmoveto
          -52 hlineto
          170 259 rlineto
          28 vlineto
          23 -53 -83 21 -99 hhcurveto
          -159 -31 -58 -278 hvcurveto
          -360 36 360 vlineto
          266 17 36 145 70 55 -8 -23 65 vhcurveto
          -179 -275 rlineto
          -24 103 vlineto
          89 36 -45 -108 -120 -46 -33 -112 -40 -60 5 7 -50 hvcurveto
          -32 vlineto
          -8 40 62 -6 44 hhcurveto
          151 47 64 125 127 -54 57 -112 hvcurveto
          endchar
        </CharString>
        <CharString name="uni1EA0">
          58 519 hmoveto
          -103 callsubr
          -19 -757 -79 callgsubr
        </CharString>
        <CharString name="uni1EA0.ss01">
          89 495 hmoveto
          -106 callsubr
          -207 -551 -79 callgsubr
        </CharString>
        <CharString name="uni1EA1">
          -29 218 -8 -107 callgsubr
          12 -151 -79 callgsubr
        </CharString>
        <CharString name="uni1EA2">
          58 256 733 -95 callgsubr
          263 -743 -99 callsubr
        </CharString>
        <CharString name="uni1EA2.ss01">
          89 271 733 -95 callgsubr
          224 -743 -101 callgsubr
        </CharString>
        <CharString name="uni1EA3">
          -29 212 608 -104 callsubr
          6 -626 -107 callgsubr
          endchar
        </CharString>
        <CharString name="uni1EA4">
          58 366 885 -98 callgsubr
          -190 -143 -106 callgsubr
          343 -752 -99 callsubr
        </CharString>
        <CharString name="uni1EA4.ss01">
          89 381 885 -98 callgsubr
          -190 -143 -106 callgsubr
          304 -752 -101 callgsubr
        </CharString>
        <CharString name="uni1EA5">
          -29 322 743 -98 callgsubr
          -190 -143 -106 callgsubr
          86 -618 -107 callgsubr
          endchar
        </CharString>
        <CharString name="uni1EA6">
          58 388 885 -89 callsubr
          -112 -271 -106 callgsubr
          344 -752 -99 callsubr
        </CharString>
        <CharString name="uni1EA6.ss01">
          89 403 885 -89 callsubr
          -112 -271 -106 callgsubr
          305 -752 -101 callgsubr
        </CharString>
        <CharString name="uni1EA7">
          -29 344 743 -89 callsubr
          -112 -271 -106 callgsubr
          87 -618 -107 callgsubr
          endchar
        </CharString>
        <CharString name="uni1EA8">
          58 340 886 -104 callsubr
          -161 -149 -106 callgsubr
          340 -752 -99 callsubr
        </CharString>
        <CharString name="uni1EA8.ss01">
          89 355 886 -104 callsubr
          -161 -149 -106 callgsubr
          301 -752 -101 callgsubr
        </CharString>
        <CharString name="uni1EA9">
          -29 296 743 -104 callsubr
          -161 -148 -106 callgsubr
          83 -618 -107 callgsubr
          endchar
        </CharString>
        <CharString name="uni1EAA">
          58 448 1059 -107 callsubr
          -271 -311 -106 callgsubr
          342 -753 -99 callsubr
        </CharString>
        <CharString name="uni1EAA.ss01">
          89 463 1059 -107 callsubr
          -271 -311 -106 callgsubr
          303 -753 -101 callgsubr
        </CharString>
        <CharString name="uni1EAB">
          -29 404 916 -107 callsubr
          -271 -311 -106 callgsubr
          85 -618 -107 callgsubr
          endchar
        </CharString>
        <CharString name="uni1EAC">
          58 179 750 -106 callgsubr
          340 -755 rmoveto
          -103 callsubr
          -19 -757 -79 callgsubr
        </CharString>
        <CharString name="uni1EAC.ss01">
          89 194 750 -106 callgsubr
          301 -755 rmoveto
          -106 callsubr
          -207 -551 -79 callgsubr
        </CharString>
        <CharString name="uni1EAD">
          -29 135 605 -106 callgsubr
          83 -618 -107 callgsubr
          12 -151 -79 callgsubr
        </CharString>
        <CharString name="uni1EAE">
          58 278 -60 callgsubr
          110 -35 callgsubr
        </CharString>
        <CharString name="uni1EAE.ss01">
          89 293 -60 callgsubr
          71 -41 callsubr
        </CharString>
        <CharString name="uni1EAF">
          -29 234 778 -56 callgsubr
          -147 -751 -107 callgsubr
          endchar
        </CharString>
        <CharString name="uni1EB0">
          58 294 923 -89 callsubr
          219 -168 -71 callgsubr
        </CharString>
        <CharString name="uni1EB0.ss01">
          89 309 923 -89 callsubr
          219 -168 -75 callgsubr
        </CharString>
        <CharString name="uni1EB1">
          -29 250 778 -89 callsubr
          219 -168 -103 callgsubr
          -150 -751 -107 callgsubr
          endchar
        </CharString>
        <CharString name="uni1EB2">
          58 258 888 -58 callsubr
          107 -60 callsubr
          endchar
        </CharString>
        <CharString name="uni1EB2.ss01">
          89 273 873 -95 callgsubr
          154 5 -75 callgsubr
        </CharString>
        <CharString name="uni1EB3">
          -29 214 743 -58 callsubr
          -150 -751 -107 callgsubr
          endchar
        </CharString>
        <CharString name="uni1EB4">
          58 448 1061 -107 callsubr
          -38 -173 -103 callgsubr
          109 -35 callgsubr
        </CharString>
        <CharString name="uni1EB4.ss01">
          89 463 1061 -107 callsubr
          -38 -173 -103 callgsubr
          70 -41 callsubr
        </CharString>
        <CharString name="uni1EB5">
          -29 404 916 -107 callsubr
          -38 -173 -103 callgsubr
          -148 -751 -107 callgsubr
          endchar
        </CharString>
        <CharString name="uni1EB6">
          58 412 -79 callsubr
          107 -60 callsubr
          -19 -757 -79 callgsubr
        </CharString>
        <CharString name="uni1EB6.ss01">
          89 427 888 -75 callsubr
          -207 -551 -79 callgsubr
        </CharString>
        <CharString name="uni1EB7">
          -29 368 -74 callgsubr
          -150 -751 -107 callgsubr
          12 -151 -79 callgsubr
        </CharString>
        <CharString name="uni1EB8">
          -15 99 hmoveto
          -91 callsubr
          162 -815 -79 callgsubr
        </CharString>
        <CharString name="uni1EB9">
          -34 432 256 -105 callgsubr
          -32 -613 -79 callgsubr
        </CharString>
        <CharString name="uni1EBA">
          -15 244 733 -95 callgsubr
          -145 -743 rmoveto
          -91 callsubr
          endchar
        </CharString>
        <CharString name="uni1EBB">
          -34 324 716 -82 callgsubr
          108 -460 -105 callgsubr
          endchar
        </CharString>
        <CharString name="uni1EBC">
          -15 436 888 -107 callsubr
          -337 -888 rmoveto
          -91 callsubr
          endchar
        </CharString>
        <CharString name="uni1EBD">
          -34 154 699 -90 callgsubr
          278 -443 -105 callgsubr
          endchar
        </CharString>
        <CharString name="uni1EBE">
          -15 354 885 -98 callgsubr
          -190 -143 -106 callgsubr
          -65 -752 rmoveto
          -91 callsubr
          endchar
        </CharString>
        <CharString name="uni1EBF">
          -34 402 881 rmoveto
          -70 callgsubr
          -5 26 vlineto
          101 -62 callgsubr
          vlineto
          -200 -168 -68 callsubr
          104 -48 callsubr
        </CharString>
        <CharString name="uni1EC0">
          -15 376 885 -89 callsubr
          -112 -271 -106 callgsubr
          -64 -752 rmoveto
          -91 callsubr
          endchar
        </CharString>
        <CharString name="uni1EC1">
          -34 367 743 -59 callgsubr
          -96 -30 -68 callsubr
          277 -349 -105 callgsubr
          endchar
        </CharString>
        <CharString name="uni1EC2">
          -15 328 886 -104 callsubr
          -161 -149 -106 callgsubr
          -68 -752 rmoveto
          -91 callsubr
          endchar
        </CharString>
        <CharString name="uni1EC3">
          -34 408 851 -82 callgsubr
          -159 -138 -68 callsubr
          101 -48 callsubr
        </CharString>
        <CharString name="uni1EC4">
          -15 436 1059 -107 callsubr
          -271 -311 -106 callgsubr
          -66 -753 rmoveto
          -91 callsubr
          endchar
        </CharString>
        <CharString name="uni1EC5">
          -34 154 872 -90 callgsubr
          70 -129 rmoveto
          -50 callgsubr
          -5 27 vlineto
          90 108 90 -108 rlineto
          27 5 hlineto
          -94 -82 callsubr
          162 -487 -105 callgsubr
          endchar
        </CharString>
        <CharString name="uni1EC6">
          -15 167 750 -106 callgsubr
          -68 -755 rmoveto
          -91 callsubr
          162 -815 -79 callgsubr
        </CharString>
        <CharString name="uni1EC7">
          -34 249 713 -68 callsubr
          273 -349 -105 callgsubr
          -32 -613 -79 callgsubr
        </CharString>
        <CharString name="uni1EC8">
          -296 78 733 -95 callgsubr
          22 -743 -40 callgsubr
        </CharString>
        <CharString name="uni1EC9">
          -323 65 608 -104 callsubr
          22 -618 -40 callsubr
        </CharString>
        <CharString name="uni1ECA">
          -296 100 hmoveto
          -22 callgsubr
          -5 -815 -79 callgsubr
        </CharString>
        <CharString name="uni1ECB">
          -323 84 682 -15 callgsubr
          -26 -637 -79 callgsubr
        </CharString>
        <CharString name="uni1ECC">
          96 314 -8 -104 callgsubr
          -23 -153 -79 callgsubr
        </CharString>
        <CharString name="uni1ECD">
          -19 257 -8 -105 callsubr
          -23 -151 -79 callgsubr
        </CharString>
        <CharString name="uni1ECE">
          96 274 733 -95 callgsubr
          40 -751 -104 callgsubr
          endchar
        </CharString>
        <CharString name="uni1ECF">
          -19 217 608 -104 callsubr
          40 -626 -102 callsubr
        </CharString>
        <CharString name="uni1ED0">
          96 384 885 -98 callgsubr
          -190 -143 -106 callgsubr
          120 -760 -104 callgsubr
          endchar
        </CharString>
        <CharString name="uni1ED1">
          -19 327 743 -98 callgsubr
          -190 -143 -106 callgsubr
          120 -87 callgsubr
        </CharString>
        <CharString name="uni1ED2">
          96 406 885 -89 callsubr
          -112 -271 -106 callgsubr
          121 -760 -104 callgsubr
          endchar
        </CharString>
        <CharString name="uni1ED3">
          -19 349 743 -89 callsubr
          -112 -271 -106 callgsubr
          121 -87 callgsubr
        </CharString>
        <CharString name="uni1ED4">
          96 358 886 -104 callsubr
          -161 -149 -106 callgsubr
          117 -760 -104 callgsubr
          endchar
        </CharString>
        <CharString name="uni1ED5">
          -19 301 743 -104 callsubr
          -161 -148 -106 callgsubr
          117 -87 callgsubr
        </CharString>
        <CharString name="uni1ED6">
          96 466 1059 -107 callsubr
          -271 -311 -106 callgsubr
          119 -761 -104 callgsubr
          endchar
        </CharString>
        <CharString name="uni1ED7">
          -19 409 916 -107 callsubr
          -271 -311 -106 callgsubr
          119 -87 callgsubr
        </CharString>
        <CharString name="uni1ED8">
          96 197 750 -106 callgsubr
          117 -763 -104 callgsubr
          -23 -153 -79 callgsubr
        </CharString>
        <CharString name="uni1ED9">
          -59 callsubr
          -23 -151 -79 callgsubr
        </CharString>
        <CharString name="uni1EDA">
          96 423 883 -65 callgsubr
          236 6 -93 callsubr
          endchar
        </CharString>
        <CharString name="uni1EDB">
          -19 367 738 -65 callgsubr
          188 3 -92 callgsubr
          endchar
        </CharString>
        <CharString name="uni1EDC">
          96 336 750 -59 callgsubr
          248 6 -93 callsubr
          endchar
        </CharString>
        <CharString name="uni1EDD">
          -19 279 605 -59 callgsubr
          201 3 -92 callgsubr
          endchar
        </CharString>
        <CharString name="uni1EDE">
          96 389 -68 callgsubr
          169 -85 -93 callsubr
          endchar
        </CharString>
        <CharString name="uni1EDF">
          -19 332 716 -82 callgsubr
          122 -108 -92 callgsubr
          endchar
        </CharString>
        <CharString name="uni1EE0">
          96 219 844 -90 callgsubr
          339 -88 -93 callsubr
          endchar
        </CharString>
        <CharString name="uni1EE1">
          -19 162 699 -90 callgsubr
          292 -91 -92 callgsubr
          endchar
        </CharString>
        <CharString name="uni1EE2">
          96 558 756 -93 callsubr
          -224 -471 -79 callgsubr
        </CharString>
        <CharString name="uni1EE3">
          -19 454 608 -92 callgsubr
          -179 -381 -79 callgsubr
        </CharString>
        <CharString name="uni1EE4">
          89 495 688 rmoveto
          -424 vlineto
          -101 callsubr
          394 vlineto
          -243 -815 -79 callgsubr
        </CharString>
        <CharString name="uni1EE5">
          0 418 hmoveto
          28 -28 callgsubr
          -102 callgsubr
          -181 -207 -79 callgsubr
        </CharString>
        <CharString name="uni1EE6">
          89 271 733 -95 callgsubr
          224 -55 rmoveto
          -424 vlineto
          -101 callsubr
          394 vlineto
          endchar
        </CharString>
        <CharString name="uni1EE7">
          0 226 608 -104 callsubr
          192 -618 rmoveto
          28 -28 callgsubr
          -102 callgsubr
          endchar
        </CharString>
        <CharString name="uni1EE8">
          89 420 883 -65 callgsubr
          282 36 rmoveto
          -37 vlineto
          -46 -4 -15 -44 vhcurveto
          -58 -424 hlineto
          -101 callsubr
          366 22 vlineto
          -34 callgsubr
          vlineto
          endchar
        </CharString>
        <CharString name="uni1EE9">
          0 376 738 -65 callgsubr
          237 3 rmoveto
          -37 vlineto
          -46 -4 -15 -44 vhcurveto
          -53 -102 callgsubr
          3 -80 rlineto
          28 482 18 hlineto
          -34 callgsubr
          vlineto
          endchar
        </CharString>
        <CharString name="uni1EEA">
          89 333 750 -59 callgsubr
          294 36 rmoveto
          -37 vlineto
          -46 -4 -15 -44 vhcurveto
          -58 -424 hlineto
          -101 callsubr
          366 22 vlineto
          -34 callgsubr
          vlineto
          endchar
        </CharString>
        <CharString name="uni1EEB">
          0 288 605 -59 callgsubr
          250 3 rmoveto
          -37 vlineto
          -46 -4 -15 -44 vhcurveto
          -53 -102 callgsubr
          3 -80 rlineto
          28 482 18 hlineto
          -34 callgsubr
          vlineto
          endchar
        </CharString>
        <CharString name="uni1EEC">
          89 386 -68 callgsubr
          215 -55 rmoveto
          -37 vlineto
          -46 -4 -15 -44 vhcurveto
          -58 -424 hlineto
          -101 callsubr
          366 22 vlineto
          -34 callgsubr
          vlineto
          endchar
        </CharString>
        <CharString name="uni1EED">
          0 341 716 -82 callgsubr
          171 -108 rmoveto
          -37 vlineto
          -46 -4 -15 -44 vhcurveto
          -53 -102 callgsubr
          3 -80 rlineto
          28 482 18 hlineto
          -34 callgsubr
          vlineto
          endchar
        </CharString>
        <CharString name="uni1EEE">
          89 216 844 -90 callgsubr
          385 -58 rmoveto
          -37 vlineto
          -46 -4 -15 -44 vhcurveto
          -58 -424 hlineto
          -101 callsubr
          366 22 vlineto
          -34 callgsubr
          vlineto
          endchar
        </CharString>
        <CharString name="uni1EEF">
          0 171 699 -90 callgsubr
          341 -91 rmoveto
          -37 vlineto
          -46 -4 -15 -44 vhcurveto
          -53 -102 callgsubr
          3 -80 rlineto
          28 482 18 hlineto
          -34 callgsubr
          vlineto
          endchar
        </CharString>
        <CharString name="uni1EF0">
          89 601 786 rmoveto
          -37 vlineto
          -46 -4 -15 -44 vhcurveto
          -58 -424 hlineto
          -101 callsubr
          366 22 vlineto
          -34 callgsubr
          vlineto
          -345 -913 -79 callgsubr
        </CharString>
        <CharString name="uni1EF1">
          0 512 608 rmoveto
          -37 vlineto
          -46 -4 -15 -44 vhcurveto
          -53 -102 callgsubr
          3 -80 rlineto
          28 482 18 hlineto
          -34 callgsubr
          vlineto
          -310 -735 -79 callgsubr
        </CharString>
        <CharString name="uni1EF4">
          -20 238 hmoveto
          -83 callgsubr
          -4 -408 -79 callgsubr
        </CharString>
        <CharString name="uni1EF4.loclGUA">
          -21 440 688 -92 callsubr
          -244 -815 -79 callgsubr
        </CharString>
        <CharString name="uni1EF5">
          0 246 -203 -97 callgsubr
          -23 -127 -79 callgsubr
        </CharString>
        <CharString name="uni1EF5.loclGUA">
          -71 394 510 -83 callsubr
          -221 -827 -79 callgsubr
        </CharString>
        <CharString name="uni1EF6">
          -20 217 733 -95 callgsubr
          21 -743 rmoveto
          -83 callgsubr
          endchar
        </CharString>
        <CharString name="uni1EF6.loclGUA">
          -21 330 -68 callgsubr
          110 -153 -92 callsubr
          endchar
        </CharString>
        <CharString name="uni1EF7">
          0 226 608 -104 callsubr
          20 -821 -97 callgsubr
          endchar
        </CharString>
        <CharString name="uni1EF7.loclGUA">
          -71 313 716 -82 callgsubr
          81 -206 -83 callsubr
          endchar
        </CharString>
        <CharString name="uni1EF8">
          -20 409 888 -107 callsubr
          -171 -888 rmoveto
          -83 callgsubr
          endchar
        </CharString>
        <CharString name="uni1EF8.loclGUA">
          -21 160 844 -90 callgsubr
          280 -156 -92 callsubr
          endchar
        </CharString>
        <CharString name="uni1EF9">
          0 418 743 -107 callsubr
          -172 -946 -97 callgsubr
          endchar
        </CharString>
        <CharString name="uni1EF9.loclGUA">
          -71 143 699 -90 callgsubr
          251 -189 -83 callsubr
          endchar
        </CharString>
        <CharString name="uni2002">
          -232 endchar
        </CharString>
        <CharString name="uni20B2">
          14 297 358 rmoveto
          224 3 vlineto
          38 63 -7 -9 50 hvcurveto
          32 vlineto
          -39 9 -63 8 -52 1 rrcurveto
          80 -34 -80 vlineto
          -153 -4 -33 -39 -229 vvcurveto
          -231 30 -39 156 -2 vhcurveto
          -80 34 80 vlineto
          166 3 7 41 183 vvcurveto
          59 vlineto
          -357 -14 rmoveto
          213 27 22 123 3 vhcurveto
          -476 vlineto
          -133 3 -17 35 200 vvcurveto
          322 -43 rmoveto
          -170 -7 -23 -131 -2 vhcurveto
          218 138 vlineto
          endchar
        </CharString>
        <CharString name="uni2113">
          -131 224 27 rmoveto
          -54 -27 41 136 -8 hvcurveto
          135 85 71 171 113 vvcurveto
          76 -33 46 -72 -111 -29 -125 -247 -37 1 -34 1 -30 vhcurveto
          -20 -11 -21 -9 -23 -6 rrcurveto
          -36 vlineto
          24 5 22 9 20 10 rrcurveto
          -141 12 34 -50 75 hhcurveto
          46 40 22 37 41 hvcurveto
          42 vlineto
          -46 -50 -37 -21 -37 hhcurveto
          13 634 rmoveto
          47 21 -31 -58 -101 -60 -147 -112 -80 hvcurveto
          -1 24 0 27 29 vvcurveto
          223 22 114 83 vhcurveto
          endchar
        </CharString>
        <CharString name="uni2116">
          402 746 -13 callsubr
          -244 -397 rmoveto
          -78 callsubr
          608 -185 rmoveto
          4 callgsubr
          -110 -191 rmoveto
          216 32 -216 hlineto
          endchar
        </CharString>
        <CharString name="uni2126">
          -61 callgsubr
        </CharString>
        <CharString name="uni2153">
          150 -43 callsubr
          -55 -656 rmoveto
          -31 vlineto
          -5 31 38 -4 27 hhcurveto
          104 19 39 69 50 -21 25 -28 12 hvcurveto
          4 vlineto
          28 15 16 6 callsubr
          32 35 3 23 hhcurveto
          60 29 -11 -61 -10 callgsubr
          42 12 callsubr
          endchar
        </CharString>
        <CharString name="uni2154">
          218 275 352 rmoveto
          -187 26 hlineto
          -45 callsubr
          vlineto
          279 369 rmoveto
          -391 -688 rlineto
          39 hlineto
          390 -32 callsubr
          38 -501 rmoveto
          4 vlineto
          28 15 17 6 callsubr
          31 36 3 23 hhcurveto
          59 29 -11 -61 -10 callgsubr
          43 12 callsubr
          -31 vlineto
          -5 30 39 -4 27 hhcurveto
          104 18 39 69 50 -20 25 -29 12 hvcurveto
          endchar
        </CharString>
        <CharString name="uni2206">
          -21 callgsubr
        </CharString>
        <CharString name="uniA78B">
          14 callsubr
          178 -39 vlineto
          endchar
        </CharString>
        <CharString name="uniA78C">
          14 callsubr
          233 -39 vlineto
          endchar
        </CharString>
        <CharString name="uniF8FF">
          309 72 hmoveto
          697 698 -697 hlineto
          546 -316 rmoveto
          -66 vlineto
          -100 -72 -81 -124 -125 -73 81 100 vhcurveto
          66 vlineto
          100 73 81 125 124 72 -81 -100 vhcurveto
          -135 -92 rmoveto
          118 vlineto
          33 -27 27 -34 -35 -27 -27 -33 vhcurveto
          -118 vlineto
          -33 27 -27 35 34 27 27 33 vhcurveto
          endchar
        </CharString>
        <CharString name="uogonek">
          0 430 -164 rmoveto
          -35 -12 20 26 40 36 55 27 23 hvcurveto
          510 -77 callgsubr
          -145 22 -53 143 112 34 43 45 14 vhcurveto
          4 hlineto
          4 -72 rlineto
          -40 -36 -30 -53 -43 vvcurveto
          -41 21 -31 -62 callsubr
          endchar
        </CharString>
        <CharString name="uring">
          0 265 -53 callgsubr
          153 -643 rmoveto
          28 -28 callgsubr
          -102 callgsubr
          endchar
        </CharString>
        <CharString name="utilde">
          0 418 743 -107 callsubr
          -743 vmoveto
          28 -28 callgsubr
          -102 callgsubr
          endchar
        </CharString>
        <CharString name="v">
          -71 214 hmoveto
          33 hlineto
          184 510 rlineto
          -37 hlineto
          -160 -454 rlineto
          -6 hlineto
          -160 454 rlineto
          -38 hlineto
          endchar
        </CharString>
        <CharString name="w">
          172 480 hmoveto
          -81 callgsubr
        </CharString>
        <CharString name="wacute">
          172 335 -80 callsubr
          145 -610 rmoveto
          -81 callgsubr
        </CharString>
        <CharString name="wcircumflex">
          172 235 605 -106 callgsubr
          245 -610 rmoveto
          -81 callgsubr
        </CharString>
        <CharString name="wdieresis">
          172 242 -55 callgsubr
          61 -731 rmoveto
          -81 callgsubr
        </CharString>
        <CharString name="wgrave">
          172 348 605 -89 callsubr
          233 -738 rmoveto
          -81 callgsubr
        </CharString>
        <CharString name="x">
          -60 396 hmoveto
          43 hlineto
          -181 261 175 249 rlineto
          -42 hlineto
          -153 -217 rlineto
          -4 hlineto
          -152 217 rlineto
          -43 hlineto
          175 -251 -181 -259 rlineto
          42 hlineto
          158 226 rlineto
          5 hlineto
          endchar
        </CharString>
        <CharString name="y">
          0 246 -203 -97 callgsubr
          endchar
        </CharString>
        <CharString name="y.loclGUA">
          -71 394 510 -83 callsubr
          endchar
        </CharString>
        <CharString name="yacute">
          0 249 -80 callsubr
          -3 -813 -97 callgsubr
          endchar
        </CharString>
        <CharString name="yacute.loclGUA">
          -71 348 738 -65 callgsubr
          147 -95 -83 callsubr
          endchar
        </CharString>
        <CharString name="ycircumflex">
          0 149 605 -106 callgsubr
          97 -813 -97 callgsubr
          endchar
        </CharString>
        <CharString name="ycircumflex.loclGUA">
          -71 238 713 -68 callsubr
          246 -95 -83 callsubr
          endchar
        </CharString>
        <CharString name="ydieresis">
          0 158 -55 callgsubr
          -89 -934 -97 callgsubr
          endchar
        </CharString>
        <CharString name="ydieresis.loclGUA">
          -71 170 731 -12 callgsubr
          47 -160 -83 callsubr
          endchar
        </CharString>
        <CharString name="yen">
          13 509 688 rmoveto
          -39 hlineto
          -122 -240 rlineto
          -150 hlineto
          -121 240 rlineto
          -40 -11 callgsubr
          -240 rlineto
          -94 -34 112 hlineto
          61 -119 rlineto
          -173 -34 188 -261 36 261 189 34 -174 hlineto
          62 119 rlineto
          112 34 -95 hlineto
          -108 -143 rmoveto
          -6 hlineto
          -55 109 rlineto
          116 hlineto
          endchar
        </CharString>
        <CharString name="ygrave">
          0 262 605 -89 callsubr
          85 -941 -97 callgsubr
          endchar
        </CharString>
        <CharString name="ygrave.loclGUA">
          -71 260 605 -59 callgsubr
          160 -95 -83 callsubr
          endchar
        </CharString>
        <CharString name="z">
          -101 45 hmoveto
          -80 callgsubr
          endchar
        </CharString>
        <CharString name="zacute">
          -101 198 -80 callsubr
          -153 -610 rmoveto
          -80 callgsubr
          endchar
        </CharString>
        <CharString name="zacute.loclPLK">
          -101 198 605 -71 callsubr
          -153 -610 rmoveto
          -80 callgsubr
          endchar
        </CharString>
        <CharString name="zcaron">
          -101 197 605 -98 callsubr
          -58 -738 rmoveto
          -80 callgsubr
          endchar
        </CharString>
        <CharString name="zdotaccent">
          -101 193 670 -32 callgsubr
          -148 -731 rmoveto
          -80 callgsubr
          endchar
        </CharString>
        <CharString name="zero">
          53 292 -8 rmoveto
          208 8 42 310 310 -4 42 -212 -208 -7 -42 -310 -310 7 -42 208 -10 callsubr
          -170 -9 11 307 307 9 11 170 171 9 -11 -307 -307 -9 -11 -171 hvcurveto
          endchar
        </CharString>
        <CharString name="zero.dnom">
          -187 172 -4 -39 callgsubr
        </CharString>
        <CharString name="zero.numr">
          -187 172 304 -39 callgsubr
        </CharString>
        <CharString name="zero.tnum">
          -20 callgsubr
          34 vmoveto
          -168 -8 11 307 307 8 11 168 168 9 -11 -307 -307 -9 -11 -168 hvcurveto
          endchar
        </CharString>
        <CharString name="zero.zero">
          -20 callgsubr
          -176 371 rmoveto
          287 11 12 165 164 12 -12 -287 1 vhcurveto
          -177 -337 rmoveto
          -165 -11 11 292 hvcurveto
          353 hlineto
          -292 -1 -11 -11 -165 hhcurveto
          endchar
        </CharString>
      <CharString index="0">
        rmoveto
        62 78 8 80 25 -26 callsubr
        3 -80 rlineto
        28 330 hlineto
        153 -31 35 -146 -64 -57 -5 -7 -35 -41 callgsubr
        7 34 68 6 42 hhcurveto
        131 23 -15 -147 hvcurveto
        -46 vlineto
        2 -64 -97 3 -30 hhcurveto
        -108 -30 -34 -111 -122 51 -24 113 hvcurveto
        -1 32 rmoveto
        -104 -24 21 93 98 22 15 89 hvcurveto
        183 -41 hlineto
        -50 -5 -36 -16 -40 vhcurveto
        -56 -23 -61 -4 -61 hhcurveto
        return
      </CharString>
      <CharString index="1">
        rmoveto
        27 hlineto
        90 108 90 -108 rlineto
        27 5 hlineto
        -94 -82 callsubr
        -46 hlineto
        -50 callgsubr
        return
      </CharString>
      <CharString index="2">
        rmoveto
        204 -10 58 -162 3 callsubr
        vhcurveto
        -99 callgsubr
        return
      </CharString>
      <CharString index="3">
        rmoveto
        221 16 42 310 310 -16 42 -221 -220 -17 -42 -310 -310 17 -42 220 -10 callsubr
        -96 callgsubr
        return
      </CharString>
      <CharString index="4">
        rmoveto
        -32 hlineto
        -75 -1 -38 -84 -83 -1 38 75 vhcurveto
        -32 hlineto
        -82 0 -59 116 116 1 59 82 vhcurveto
        return
      </CharString>
      <CharString index="5">
        -264 hlineto
        -123 0 -99 -152 -117 -21 23 148 vhcurveto
        315 -35 -320 vlineto
        -145 22 -53 143 112 34 43 45 14 vhcurveto
        4 hlineto
        return
      </CharString>
      <CharString index="6">
        rmoveto
        -106 callsubr
        endchar
      </CharString>
      <CharString index="7">
        172 26 68 210 hvcurveto
        435 -27 vlineto
        -4 -80 rlineto
        -4 hlineto
        77 -24 -67 11 -70 -26 callgsubr
        28 -49 151 86 50 21 58 21 hvcurveto
        4 -10 hlineto
        -182 -19 -50 -148 -48 -63 3 4 -47 2 callsubr
        42 66 -3 54 hhcurveto
        11 227 -51 callgsubr
        133 77 46 -23 -65 18 hvcurveto
        11 -36 0 -47 -60 vvcurveto
        -62 -1 -47 -12 -41 vhcurveto
        -57 -17 -45 -24 -77 hhcurveto
        endchar
      </CharString>
      <CharString index="8">
        -88 callsubr
        -174 243 rmoveto
        109 30 -19 -171 hvcurveto
        -21 -297 vlineto
        183 16 28 142 vhcurveto
        return
      </CharString>
      <CharString index="9">
        -55 callsubr
        101 133 rlineto
        -90 callsubr
        return
      </CharString>
      <CharString index="10">
        rmoveto
        169 31 70 203 hvcurveto
        440 -77 callgsubr
        -144 22 -54 142 114 31 44 36 12 vhcurveto
        4 -21 hlineto
        -155 -15 -67 -154 -44 -58 3 4 -44 2 callsubr
        39 62 -3 49 hhcurveto
        return
      </CharString>
      <CharString index="11">
        -181 -20 9 309 309 20 9 181 182 19 -9 -309 -309 -19 -9 -182 hvcurveto
        return
      </CharString>
      <CharString index="12">
        rmoveto
        29 hlineto
        23 0 3 43 12 vhcurveto
        23 6 rlineto
        47 14 3 19 35 vvcurveto
        52 -27 13 -85 -27 -41 -3 -3 -31 vhcurveto
        -26 vlineto
        2 34 37 2 21 hhcurveto
        69 20 -2 -39 -64 callgsubr
        hvcurveto
        -21 -5 rlineto
        -29 -9 -11 -7 -30 vvcurveto
        return
      </CharString>
      <CharString index="13">
        rmoveto
        201 9 51 256 hvcurveto
        59 -198 -34 162 -23 vlineto
        -250 -9 -25 -165 -186 -22 40 278 311 42 7 199 39 67 -7 -9 51 vhcurveto
        32 vlineto
        10 -46 -76 8 -60 hhcurveto
        -209 -43 -41 -311 -310 39 -42 205 hvcurveto
        return
      </CharString>
      <CharString index="14">
        rmoveto
        -277 vlineto
        -6 -37 -69 -6 -42 hhcurveto
        -186 -22 43 275 312 43 6 192 38 66 -7 -9 51 hvcurveto
        32 vlineto
        10 -46 -76 8 -59 hhcurveto
        -203 -42 -44 -308 -310 42 -42 203 52 75 7 10 56 hvcurveto
        340 -200 -34 vlineto
        return
      </CharString>
      <CharString index="15">
        rmoveto
        -37 vlineto
        -46 -4 -15 -44 vhcurveto
        -53 hlineto
        6 -25 -31 2 -40 hhcurveto
        -180 -12 -47 -217 -217 12 -45 180 179 12 45 217 124 -4 68 -36 36 hvcurveto
        63 15 21 75 hvcurveto
        30 vlineto
        -73 -354 rmoveto
        -195 -2 -35 -154 -155 -2 35 195 195 2 37 155 154 2 -37 -195 vhcurveto
        return
      </CharString>
      <CharString index="16">
        -109 302 rlineto
        94 26 7 80 83 vvcurveto
        100 -6 97 -157 vhcurveto
        -256 -688 36 294 210 hlineto
        5 19 0 2 12 hvcurveto
        106 -296 rlineto
        -144 328 rmoveto
        -208 326 218 -11 callgsubr
        6 -66 -97 -97 -9 -66 -130 hvcurveto
        return
      </CharString>
      <CharString index="17">
        rmoveto
        28 31 -12 -12 28 hvcurveto
        -14 35 34 -13 34 hhcurveto
        48 9 25 70 hvcurveto
        -27 hlineto
        -45 -4 -17 -26 -27 -31 12 11 -28 vhcurveto
        14 -35 -34 14 -35 hhcurveto
        -48 -10 -25 -70 hvcurveto
        -31 callgsubr
        5 17 26 vhcurveto
        return
      </CharString>
      <CharString index="18">
        rmoveto
        95 7 22 68 68 -7 23 -95 -95 -7 -23 -68 -68 7 -22 95 hvcurveto
        28 vmoveto
        -67 -2 13 49 49 2 14 67 67 2 -14 -49 -49 -2 -13 -67 hvcurveto
        return
      </CharString>
      <CharString index="19">
        rmoveto
        32 hlineto
        75 1 38 84 83 1 -38 -75 vhcurveto
        32 hlineto
        82 0 59 -116 -116 -1 -59 -82 vhcurveto
        return
      </CharString>
      <CharString index="20">
        -618 -102 callsubr
      </CharString>
      <CharString index="21">
        rmoveto
        42 61 -42 hlineto
        177 -61 rmoveto
        42 61 -42 hlineto
        return
      </CharString>
      <CharString index="22">
        rmoveto
        33 vlineto
        -7 -27 -47 -6 -38 hhcurveto
        -129 -21 37 195 187 21 43 126 34 45 -5 -7 32 hvcurveto
        33 vlineto
        6 -29 -48 5 -40 hhcurveto
        -142 -34 -52 -212 -191 15 -71 166 40 48 5 7 28 hvcurveto
        endchar
      </CharString>
      <CharString index="23">
        -84 callsubr
        endchar
      </CharString>
      <CharString index="24">
        36 281 hlineto
        225 407 rlineto
        -39 hlineto
        -200 -364 rlineto
        -7 hlineto
        -199 364 rlineto
        -41 hlineto
        225 -407 rlineto
        return
      </CharString>
      <CharString index="25">
        rmoveto
        -64 callgsubr
        vhcurveto
        -21 -6 rlineto
        -29 -8 -11 -7 -30 vvcurveto
        -10 29 vlineto
        23 0 2 43 12 vhcurveto
        23 7 rlineto
        47 13 3 19 36 vvcurveto
        51 -27 13 -85 -27 -41 -2 -4 -31 vhcurveto
        -26 vlineto
        3 34 37 2 21 hhcurveto
        69 20 -2 -39 hvcurveto
        return
      </CharString>
      <CharString index="26">
        37 hlineto
        154 510 rlineto
        -36 hlineto
        -132 -451 rlineto
        -6 hlineto
        -125 451 rlineto
        -40 hlineto
        -123 -451 rlineto
        -6 hlineto
        -133 451 rlineto
        -37 hlineto
        154 -510 rlineto
        37 hlineto
        125 448 rlineto
        5 hlineto
        endchar
      </CharString>
      <CharString index="27">
        341 32 -295 hlineto
        293 450 rlineto
        28 -328 -32 283 vlineto
        -294 -450 rlineto
        return
      </CharString>
      <CharString index="28">
        rmoveto
        46 65 -46 hlineto
        endchar
      </CharString>
      <CharString index="29">
        -55 callsubr
        100 -29 callsubr
        5 -44 0 callgsubr
        162 0 callsubr
        -29 callsubr
        5 -45 0 callgsubr
        return
      </CharString>
      <CharString index="30">
        -35 -264 vlineto
        -123 0 -99 -152 -117 -21 23 148 vhcurveto
        315 -35 -320 vlineto
        return
      </CharString>
      <CharString index="31">
        244 -8 rmoveto
        70 67 11 77 24 -26 callsubr
        4 -80 rlineto
        27 743 -35 -304 -4 hlineto
        58 -21 -50 21 -86 -26 callgsubr
        29 -49 150 hvcurveto
        return
      </CharString>
      <CharString index="32">
        -75 callsubr
        endchar
      </CharString>
      <CharString index="33">
        743 -103 callgsubr
        return
      </CharString>
      <CharString index="34">
        rmoveto
        201 -10 57 -162 -103 -48 -20 -50 -24 vhcurveto
        54 -20 -47 16 -95 hhcurveto
        -64 -57 -5 -7 -35 hvcurveto
        -33 vlineto
        7 34 68 6 42 hhcurveto
        131 23 -15 -147 hvcurveto
        -45 -191 vlineto
        -108 -30 -33 -108 -122 51 -24 113 71 77 8 90 31 hvcurveto
        -76 22 47 -22 111 hhcurveto
        56 -9 callgsubr
        35 hvcurveto
        33 vlineto
        -8 -41 -63 -6 -48 hhcurveto
        -147 -16 43 180 hvcurveto
        332 hlineto
        -175 239 rmoveto
        110 30 -19 -171 hvcurveto
        -17 -297 vlineto
        180 16 27 141 vhcurveto
        -192 -276 rmoveto
        -50 -5 -36 -15 -37 vhcurveto
        -59 -24 -61 -4 -61 hhcurveto
        -104 -24 21 93 95 22 14 89 hvcurveto
        183 hlineto
        endchar
      </CharString>
      <CharString index="35">
        rmoveto
        109 23 36 68 62 -25 22 -40 7 hvcurveto
        2 vlineto
        39 9 22 25 55 vvcurveto
        73 -31 26 -96 -31 -43 -3 -5 -28 vhcurveto
        -30 vlineto
        4 29 38 2 25 hhcurveto
        72 30 -9 -62 -59 -34 -12 -35 hvcurveto
        -68 -32 68 hlineto
        52 21 -20 -55 -64 -37 -8 -64 -24 -41 2 4 -34 hvcurveto
        -30 vlineto
        -5 30 43 -3 30 hhcurveto
        return
      </CharString>
      <CharString index="36">
        -103 callgsubr
        107 -35 callgsubr
      </CharString>
      <CharString index="37">
        -83 -77 callsubr
        return
      </CharString>
      <CharString index="38">
        rmoveto
        -34 vlineto
        149 3 7 11 237 vvcurveto
        437 -36 -449 vlineto
        -197 -3 -4 -117 -4 vhcurveto
        endchar
      </CharString>
      <CharString index="39">
        841 rmoveto
        -64 callgsubr
        vhcurveto
        -21 -5 rlineto
        -29 -9 -11 -7 -30 vvcurveto
        -10 29 vlineto
        23 0 3 43 12 vhcurveto
        23 6 rlineto
        47 14 3 19 35 vvcurveto
        52 -27 13 -85 -27 -41 -3 -3 -31 vhcurveto
        -26 vlineto
        2 34 37 2 21 hhcurveto
        69 20 -2 -39 hvcurveto
        return
      </CharString>
      <CharString index="40">
        -133 -20 29 202 202 20 29 return
      </CharString>
      <CharString index="41">
        rmoveto
        -37 hlineto
        -39 -70 rlineto
        18 -35 -51 5 -75 hhcurveto
        -220 -17 -42 -310 -174 5 -90 44 -45 hvcurveto
        -49 -90 rlineto
        36 hlineto
        39 71 rlineto
        -19 35 52 -5 75 hhcurveto
        221 16 42 310 175 -5 89 -44 45 hvcurveto
        -389 -309 rmoveto
        309 20 9 181 70 46 -1 -18 29 vhcurveto
        -315 -575 rlineto
        -27 40 -4 80 156 vvcurveto
        402 hmoveto
        -309 -19 -9 -182 -70 -46 1 18 -30 vhcurveto
        316 575 rlineto
        27 -40 4 -80 -156 vvcurveto
        endchar
      </CharString>
      <CharString index="42">
        rmoveto
        -51 callsubr
        26 vlineto
        return
      </CharString>
      <CharString index="43">
        -29 -9 -6 -45 -12 return
      </CharString>
      <CharString index="44">
        -21 vlineto
        61 14 19 72 hvcurveto
        75 -47 -65 20 -17 vlineto
        -49 -4 -14 -44 vhcurveto
        return
      </CharString>
      <CharString index="45">
        -82 callsubr
        5 return
      </CharString>
      <CharString index="46">
        99 81 hmoveto
        186 29 hlineto
        -139 25 -13 65 239 vvcurveto
        273 17 31 184 184 17 -31 -273 -240 -14 -64 -139 -25 vhcurveto
        -29 186 34 -3 vlineto
        -34 -3 -35 -2 -35 -3 rrcurveto
        6 vlineto
        101 33 9 106 187 vvcurveto
        273 -14 65 -223 -223 -14 -65 -273 -187 8 -106 101 -33 vhcurveto
        -6 vlineto
        -35 3 -34 2 -35 3 rrcurveto
        -3 hlineto
        endchar
      </CharString>
      <CharString index="47">
        923 -56 callgsubr
        return
      </CharString>
      <CharString index="48">
        rmoveto
        5 vlineto
        -83 -82 callsubr
        -44 -5 hlineto
        101 -77 callsubr
        return
      </CharString>
      <CharString index="49">
        -58 callsubr
        endchar
      </CharString>
      <CharString index="50">
        rmoveto
        75 39 14 51 15 hvcurveto
        10 31 2 42 58 vvcurveto
        59 -1 41 -8 28 vhcurveto
        53 -15 -38 8 -73 hhcurveto
        -105 -20 -26 -96 -94 32 -11 87 69 23 14 13 11 hvcurveto
        3 hlineto
        -131 -12 -22 -101 -25 -39 2 4 -29 vhcurveto
        -29 vlineto
        -6 32 42 -3 26 hhcurveto
        10 189 rmoveto
        -79 -15 5 79 74 18 6 76 74 21 -10 -86 -51 -9 -17 -86 hvcurveto
        endchar
      </CharString>
      <CharString index="51">
        -98 callgsubr
        131 -40 -103 callgsubr
        return
      </CharString>
      <CharString index="52">
        670 -86 callgsubr
        return
      </CharString>
      <CharString index="53">
        35 320 hlineto
        -47 callsubr
        -31 -45 -33 -12 vhcurveto
        -4 303 -35 -743 35 264 -11 callgsubr
        0 99 152 116 22 -23 -148 vhcurveto
        return
      </CharString>
      <CharString index="54">
        615 -89 callgsubr
        return
      </CharString>
      <CharString index="55">
        -107 136 173 rmoveto
        36 85 hlineto
        48 3 8 85 37 vhcurveto
        19 7 rlineto
        76 32 2 65 82 vvcurveto
        120 -46 39 -128 -40 -63 -6 -8 -50 vhcurveto
        -32 vlineto
        7 56 60 5 33 hhcurveto
        112 30 -25 -111 -104 -15 -17 -74 -29 hvcurveto
        -23 -10 rlineto
        -54 -21 -19 -10 -75 vvcurveto
        -6 -260 -14 callgsubr
        endchar
      </CharString>
      <CharString index="56">
        rmoveto
        -67 callgsubr
        return
      </CharString>
      <CharString index="57">
        -94 -77 callsubr
        return
      </CharString>
      <CharString index="58">
        hhcurveto
        -175 -32 -47 -171 -168 52 -19 158 123 39 24 28 20 hvcurveto
        5 hlineto
        -269 -23 -48 -183 -46 -64 5 7 -48 vhcurveto
        -32 vlineto
        -8 52 69 -6 44 hhcurveto
        16 333 rmoveto
        -149 -29 10 162 146 34 19 144 141 39 -25 -177 -98 -15 -37 -165 hvcurveto
        endchar
      </CharString>
      <CharString index="59">
        46 rmoveto
        32 50 rlineto
        -83 52 -55 91 105 vvcurveto
        104 56 92 82 51 vhcurveto
        -32 51 rlineto
        -99 -62 -67 -111 -125 vvcurveto
        -126 67 -110 99 -62 vhcurveto
        return
      </CharString>
      <CharString index="60">
        28 hlineto
        3 146 2 142 80 vvcurveto
        147 -38 -147 vlineto
        -80 2 -142 3 -146 vhcurveto
        return
      </CharString>
      <CharString index="61">
        rmoveto
        -38 callsubr
        return
      </CharString>
      <CharString index="62">
        46 rmoveto
        99 62 67 110 126 vvcurveto
        125 -67 111 -99 62 vhcurveto
        -32 -51 rlineto
        82 -51 56 -92 -104 vvcurveto
        -105 -55 -91 -83 -52 vhcurveto
        -31 51 rmoveto
        65 41 44 73 83 vvcurveto
        83 -44 73 -66 41 vhcurveto
        -32 -51 rlineto
        49 -31 33 -54 -61 vvcurveto
        -62 -33 -53 -48 -31 vhcurveto
        return
      </CharString>
      <CharString index="63">
        -3 callsubr
        -321 -65 -36 65 hlineto
        166 -297 rmoveto
        -130 297 124 36 -124 287 130 hlineto
        203 18 -15 callsubr
        -15 -9 -206 hvcurveto
        endchar
      </CharString>
      <CharString index="64">
        282 34 -252 hlineto
        -77 297 rlineto
        288 34 -297 hlineto
        -75 289 rlineto
        413 34 -459 hlineto
        -308 -688 rlineto
        37 hlineto
        98 220 rlineto
        294 hlineto
        -105 410 rmoveto
        96 -376 rlineto
        -269 hlineto
        168 376 rlineto
        endchar
      </CharString>
      <CharString index="65">
        2 412 510 rmoveto
        -264 vlineto
        -123 0 -99 -152 -116 -22 23 148 vhcurveto
        315 -35 -700 35 222 6 vlineto
        -28 24 39 -12 63 hhcurveto
        111 33 43 45 14 -26 callsubr
        3 -80 rlineto
        28 510 hlineto
        endchar
      </CharString>
      <CharString index="66">
        vhcurveto
        -33 vlineto
        return
      </CharString>
      <CharString index="67">
        rmoveto
        -36 callsubr
      </CharString>
      <CharString index="68">
        rmoveto
        126 4 27 165 165 -4 28 -126 -125 -4 -28 -165 -165 4 -27 125 hvcurveto
        32 vmoveto
        -91 -3 4 156 157 3 4 91 91 4 -4 -157 -156 -4 -4 -91 hvcurveto
        endchar
      </CharString>
      <CharString index="69">
        -4 hlineto
        -3 80 rlineto
        -28 return
      </CharString>
      <CharString index="70">
        53 -174 -173 -44 -53 -128 -100 32 -48 71 -14 vhcurveto
        -4 vlineto
        -71 -17 -37 -27 -121 vvcurveto
        -130 31 -62 191 vhcurveto
        373 vmoveto
        -145 -36 33 115 115 32 34 149 150 return
      </CharString>
      <CharString index="71">
        35 478 109 32 -109 148 -35 -148 -94 -32 94 hlineto
        return
      </CharString>
      <CharString index="72">
        -60 callsubr
        endchar
      </CharString>
      <CharString index="73">
        65 15 20 76 hvcurveto
        30 return
      </CharString>
      <CharString index="74">
        335 34 -299 654 -36 hlineto
        return
      </CharString>
      <CharString index="75">
        rmoveto
        43 61 -43 hlineto
        return
      </CharString>
      <CharString index="76">
        27 hlineto
        45 return
      </CharString>
      <CharString index="77">
        rmoveto
        94 -62 callgsubr
        -27 vlineto
        -90 -108 -90 108 rlineto
        -27 -5 hlineto
        94 -77 callsubr
        return
      </CharString>
      <CharString index="78">
        94 10 26 142 141 -10 27 -94 -93 -11 -27 -141 -142 11 -26 93 hvcurveto
        return
      </CharString>
      <CharString index="79">
        510 -35 return
      </CharString>
      <CharString index="80">
        rmoveto
        23 hlineto
        28 145 rlineto
        89 -39 -89 vlineto
        return
      </CharString>
      <CharString index="81">
        hhcurveto
        -151 -28 -49 -214 -214 return
      </CharString>
      <CharString index="82">
        -196 rmoveto
        9 4 0 1 9 hvcurveto
        -42 callsubr
        -35 -12 return
      </CharString>
      <CharString index="83">
        41 500 hmoveto
        42 hlineto
        -233 349 230 339 rlineto
        -41 hlineto
        -220 -322 rlineto
        -143 322 -36 -688 36 332 143 hlineto
        return
      </CharString>
      <CharString index="84">
        34 91 53 31 -53 146 -29 hlineto
        -5 -146 rlineto
        -151 hlineto
        133 255 rlineto
        -38 hlineto
        -133 -258 rlineto
        -28 189 vlineto
        endchar
      </CharString>
      <CharString index="85">
        -12 callsubr
        hlineto
        return
      </CharString>
      <CharString index="86">
        58 33 hmoveto
        524 hlineto
        -243 -32 callsubr
        -37 hlineto
        21 -58 rmoveto
        209 -596 rlineto
        -424 hlineto
        210 596 rlineto
        endchar
      </CharString>
      <CharString index="87">
        43 287 -8 rmoveto
        205 8 42 310 310 -4 42 -209 -205 -7 -42 -310 -310 7 -42 205 hvcurveto
        return
      </CharString>
      <CharString index="88">
        -32 232 hmoveto
        -9 callsubr
        return
      </CharString>
      <CharString index="89">
        31 20 21 34 42 vvcurveto
        41 -21 35 -32 20 vhcurveto
        -32 -51 rlineto
        15 -9 10 -16 -20 vvcurveto
        -20 -10 -16 -14 -9 vhcurveto
        endchar
      </CharString>
      <CharString index="90">
        -45 -12 hvcurveto
        return
      </CharString>
      <CharString index="91">
        -103 callgsubr
        68 return
      </CharString>
      <CharString index="92">
        -18 callsubr
        3 13 callsubr
        return
      </CharString>
      <CharString index="93">
        rmoveto
        47 65 -47 hlineto
        return
      </CharString>
      <CharString index="94">
        rmoveto
        380 173 rlineto
        50 vlineto
        -380 173 rlineto
        -37 vlineto
        353 -161 -353 -161 rlineto
        return
      </CharString>
      <CharString index="95">
        rmoveto
        -42 -61 42 hlineto
        177 61 rmoveto
        -42 -61 42 hlineto
        return
      </CharString>
      <CharString index="96">
        hlineto
        123 return
      </CharString>
      <CharString index="97">
        -58 -32 -12 -25 hvcurveto
        -68 -31 68 hlineto
        return
      </CharString>
      <CharString index="98">
        65 5 8 return
      </CharString>
      <CharString index="99">
        151 28 49 214 214 -28 49 -151 return
      </CharString>
      <CharString index="100">
        rmoveto
        23 hlineto
        25 145 9 149 rlineto
        -39 hlineto
        return
      </CharString>
      <CharString index="101">
        87 hmoveto
        35 743 -35 hlineto
        return
      </CharString>
      <CharString index="102">
        -63 -8 3 132 132 8 4 63 66 5 -4 -132 -132 -9 -3 -62 hvcurveto
        return
      </CharString>
      <CharString index="103">
        103 19 38 70 49 -21 26 -28 12 hvcurveto
        4 vlineto
        28 15 17 24 44 vvcurveto
        74 -27 29 return
      </CharString>
      <CharString index="104">
        rmoveto
        37 vlineto
        -354 161 354 161 rlineto
        37 vlineto
        -380 -173 rlineto
        -50 vlineto
        return
      </CharString>
      <CharString index="105">
        rmoveto
        20 -17 hlineto
        -49 -4 -14 -44 vhcurveto
        -21 vlineto
        61 15 19 72 hvcurveto
        75 -48 vlineto
        endchar
      </CharString>
      <CharString index="106">
        164 99 rmoveto
        31 hlineto
        -104 205 104 206 rlineto
        -31 hlineto
        -115 -206 rlineto
        return
      </CharString>
      <CharString index="107">
        vlineto
        -82 -127 rlineto
        return
      </CharString>
      <CharString index="108">
        -8 rmoveto
        191 32 62 130 121 -38 27 -71 17 hvcurveto
        4 vlineto
        72 14 return
      </CharString>
      <CharString index="109">
        rmoveto
        346 204 vlineto
        130 6 -67 -106 -106 -9 -67 -127 hvcurveto
        endchar
      </CharString>
      <CharString index="110">
        -190 rmoveto
        40 hlineto
        44 193 rlineto
        5 -26 vlineto
        -58 -193 rlineto
        endchar
      </CharString>
      <CharString index="111">
        -78 0 21 97 97 0 22 78 76 0 -22 -97 -97 0 -21 -76 hvcurveto
        return
      </CharString>
      <CharString index="112">
        -8 rmoveto
        186 33 69 123 112 -44 42 -66 12 hvcurveto
        4 vlineto
        return
      </CharString>
      <CharString index="113">
        -135 397 hmoveto
        696 vlineto
        -207 -145 -143 -205 return
      </CharString>
      <CharString index="114">
        38 hlineto
        148 349 rlineto
        28 -239 -32 201 vlineto
        endchar
      </CharString>
      <CharString index="115">
        36 hhcurveto
        52 10 25 70 hvcurveto
        -27 hlineto
        -45 -6 -17 -29 -29 -32 return
      </CharString>
      <CharString index="116">
        682 -18 callsubr
        return
      </CharString>
      <CharString index="117">
        -8 rmoveto
        175 31 47 171 168 -51 19 -158 return
      </CharString>
</ttFont>
